<svg width="564" height="406" viewBox="0 0 564 406" fill="none" xmlns="http://www.w3.org/2000/svg">
<g clip-path="url(#clip0)">
<path d="M125.794 376.105C125.794 376.105 97.2343 354.536 91.839 327.1C89.6511 315.577 83.7824 305.073 75.1132 297.164C70.966 293.443 66.4867 290.109 61.7314 287.204" stroke="#535461" stroke-width="2" stroke-miterlimit="10"/>
<path d="M58.2366 269.92C60.7395 273.302 61.8715 287.635 61.8715 287.635C61.8715 287.635 48.4898 282.369 45.9817 278.992C44.7774 277.369 44.2679 275.334 44.5654 273.335C44.8629 271.337 45.943 269.538 47.5681 268.335C49.1932 267.132 51.2302 266.623 53.2309 266.92C55.2316 267.217 57.0322 268.296 58.2366 269.92V269.92Z" fill="#66CCCC"/>
<path d="M82.2376 281.166C82.4972 285.363 75.6584 298.009 75.6584 298.009C75.6584 298.009 67.2825 286.317 67.0177 282.12C66.917 280.12 67.6094 278.16 68.9451 276.666C70.2807 275.172 72.1519 274.263 74.1532 274.138C76.1546 274.012 78.1248 274.68 79.6371 275.995C81.1493 277.311 82.0818 279.168 82.2324 281.166H82.2376Z" fill="#66CCCC"/>
<path d="M105.501 313.494C103.611 317.249 91.3094 324.719 91.3094 324.719C91.3094 324.719 89.9956 310.402 91.8858 306.646C92.8163 304.88 94.4036 303.549 96.3063 302.941C98.2089 302.332 100.275 302.494 102.059 303.391C103.844 304.288 105.204 305.85 105.848 307.739C106.492 309.629 106.367 311.695 105.501 313.494V313.494Z" fill="#66CCCC"/>
<path d="M117.595 341.9C116.364 345.92 105.506 355.356 105.506 355.356C105.506 355.356 101.783 341.469 103.014 337.444C103.605 335.512 104.941 333.894 106.726 332.946C108.512 331.998 110.601 331.798 112.535 332.389C114.468 332.98 116.088 334.314 117.037 336.097C117.986 337.881 118.186 339.968 117.595 341.9V341.9Z" fill="#66CCCC"/>
<path d="M63.2789 308.177C67.4331 308.737 80.5655 302.813 80.5655 302.813C80.5655 302.813 69.4842 293.642 65.3092 293.081C63.3054 292.812 61.2767 293.35 59.6694 294.575C58.0621 295.8 57.0078 297.613 56.7386 299.615C56.4693 301.617 57.0071 303.643 58.2337 305.249C59.4602 306.854 61.275 307.908 63.2789 308.177V308.177Z" fill="#66CCCC"/>
<path d="M77.8445 341.225C81.9987 340.515 92.7321 330.944 92.7321 330.944C92.7321 330.944 79.4075 325.508 75.2585 326.218C74.2651 326.381 73.3139 326.738 72.4596 327.27C71.6053 327.802 70.8649 328.498 70.2812 329.317C69.6975 330.136 69.282 331.063 69.0586 332.043C68.8353 333.024 68.8086 334.039 68.98 335.03C69.1514 336.021 69.5176 336.968 70.0575 337.817C70.5973 338.665 71.3 339.399 72.1251 339.975C72.9502 340.551 73.8814 340.958 74.8648 341.173C75.8482 341.387 76.8645 341.405 77.8549 341.225H77.8445Z" fill="#66CCCC"/>
<path d="M96.4087 371.411C100.62 371.411 112.823 363.79 112.823 363.79C112.823 363.79 100.615 356.18 96.4035 356.18C94.3817 356.18 92.4428 356.983 91.0132 358.411C89.5836 359.839 88.7805 361.776 88.7805 363.796C88.7805 365.815 89.5836 367.752 91.0132 369.18C92.4428 370.608 94.3817 371.411 96.4035 371.411H96.4087Z" fill="#66CCCC"/>
<path d="M403.243 189.552C403.243 189.552 420.846 158.402 447.381 149.427C458.524 145.731 468.166 138.525 474.861 128.891C478.002 124.285 480.712 119.4 482.957 114.299" stroke="#535461" stroke-width="2" stroke-miterlimit="10"/>
<path d="M499.615 108.592C496.593 111.518 482.526 114.548 482.526 114.548C482.526 114.548 485.979 100.594 489.001 97.6626C490.46 96.2983 492.397 95.5607 494.394 95.6087C496.392 95.6567 498.291 96.4864 499.683 97.9192C501.074 99.3521 501.847 101.273 501.834 103.27C501.821 105.266 501.025 107.177 499.615 108.592Z" fill="#66CCCC"/>
<path d="M491.66 133.819C487.506 134.638 474.072 129.544 474.072 129.544C474.072 129.544 484.561 119.688 488.69 118.884C489.681 118.664 490.706 118.645 491.705 118.826C492.704 119.008 493.657 119.387 494.507 119.941C495.357 120.495 496.088 121.214 496.657 122.054C497.225 122.894 497.62 123.84 497.818 124.834C498.016 125.829 498.013 126.854 497.809 127.847C497.605 128.841 497.205 129.784 496.631 130.621C496.057 131.458 495.322 132.172 494.468 132.721C493.615 133.27 492.66 133.643 491.66 133.819V133.819Z" fill="#66CCCC"/>
<path d="M462.705 161.146C458.727 159.771 449.687 148.587 449.687 148.587C449.687 148.587 463.707 145.381 467.695 146.756C468.653 147.073 469.539 147.578 470.3 148.24C471.062 148.902 471.684 149.709 472.131 150.613C472.578 151.518 472.84 152.502 472.903 153.508C472.966 154.515 472.829 155.524 472.498 156.476C472.168 157.429 471.651 158.307 470.978 159.059C470.305 159.811 469.49 160.422 468.579 160.856C467.668 161.29 466.679 161.54 465.671 161.589C464.663 161.639 463.654 161.488 462.705 161.146V161.146Z" fill="#66CCCC"/>
<path d="M436.097 176.895C431.943 176.21 421.163 166.691 421.163 166.691C421.163 166.691 434.451 161.161 438.6 161.846C440.597 162.174 442.382 163.281 443.562 164.924C444.742 166.566 445.22 168.61 444.891 170.605C444.563 172.6 443.455 174.383 441.81 175.561C440.166 176.74 438.12 177.217 436.123 176.889L436.097 176.895Z" fill="#66CCCC"/>
<path d="M462.342 118.635C462.336 122.842 469.975 135.048 469.975 135.048C469.975 135.048 477.603 122.858 477.603 118.656C477.63 117.64 477.452 116.628 477.081 115.681C476.71 114.735 476.153 113.872 475.443 113.143C474.733 112.415 473.884 111.836 472.946 111.441C472.008 111.046 471.001 110.842 469.983 110.842C468.965 110.842 467.957 111.046 467.02 111.441C466.082 111.836 465.233 112.415 464.523 113.143C463.812 113.872 463.255 114.735 462.884 115.681C462.513 116.628 462.336 117.64 462.362 118.656L462.342 118.635Z" fill="#66CCCC"/>
<path d="M431.481 137.445C432.738 141.46 443.663 150.823 443.663 150.823C443.663 150.823 447.298 136.91 446.031 132.895C445.374 131.035 444.02 129.502 442.254 128.619C440.488 127.736 438.448 127.573 436.564 128.162C434.68 128.752 433.098 130.049 432.152 131.78C431.205 133.512 430.969 135.542 431.491 137.445H431.481Z" fill="#66CCCC"/>
<path d="M404.027 159.838C404.588 163.988 413.769 175.074 413.769 175.074C413.769 175.074 419.694 161.976 419.133 157.81C419.021 156.801 418.709 155.824 418.215 154.937C417.72 154.05 417.053 153.271 416.252 152.645C415.451 152.02 414.534 151.561 413.553 151.295C412.572 151.029 411.547 150.961 410.54 151.097C409.533 151.232 408.563 151.567 407.687 152.082C406.811 152.598 406.047 153.283 405.44 154.097C404.834 154.912 404.396 155.839 404.153 156.825C403.91 157.811 403.868 158.836 404.027 159.838V159.838Z" fill="#66CCCC"/>
<path opacity="0.25" d="M499.615 108.592C496.593 111.518 482.526 114.548 482.526 114.548C482.526 114.548 485.979 100.594 489.001 97.6626C490.46 96.2983 492.397 95.5607 494.394 95.6087C496.392 95.6567 498.291 96.4864 499.683 97.9192C501.074 99.3521 501.847 101.273 501.834 103.27C501.821 105.266 501.025 107.177 499.615 108.592Z" fill="black"/>
<path opacity="0.25" d="M491.66 133.819C487.506 134.638 474.072 129.544 474.072 129.544C474.072 129.544 484.561 119.688 488.69 118.884C489.681 118.664 490.706 118.645 491.705 118.826C492.704 119.008 493.657 119.387 494.507 119.941C495.357 120.495 496.088 121.214 496.657 122.054C497.225 122.894 497.62 123.84 497.818 124.834C498.016 125.829 498.013 126.854 497.809 127.847C497.605 128.841 497.205 129.784 496.631 130.621C496.057 131.458 495.322 132.172 494.468 132.721C493.615 133.27 492.66 133.643 491.66 133.819V133.819Z" fill="black"/>
<path opacity="0.25" d="M462.705 161.146C458.727 159.771 449.687 148.587 449.687 148.587C449.687 148.587 463.707 145.381 467.695 146.756C468.653 147.073 469.539 147.578 470.3 148.24C471.062 148.902 471.684 149.709 472.131 150.613C472.578 151.518 472.84 152.502 472.903 153.508C472.966 154.515 472.829 155.524 472.498 156.476C472.168 157.429 471.651 158.307 470.978 159.059C470.305 159.811 469.49 160.422 468.579 160.856C467.668 161.29 466.679 161.54 465.671 161.589C464.663 161.639 463.654 161.488 462.705 161.146V161.146Z" fill="black"/>
<path opacity="0.25" d="M436.097 176.895C431.943 176.21 421.163 166.691 421.163 166.691C421.163 166.691 434.451 161.161 438.6 161.846C440.597 162.174 442.382 163.281 443.562 164.924C444.742 166.566 445.22 168.61 444.891 170.605C444.563 172.6 443.455 174.383 441.81 175.561C440.166 176.74 438.12 177.217 436.123 176.889L436.097 176.895Z" fill="black"/>
<path opacity="0.25" d="M462.342 118.635C462.336 122.842 469.975 135.048 469.975 135.048C469.975 135.048 477.603 122.858 477.603 118.656C477.63 117.64 477.452 116.628 477.081 115.681C476.71 114.735 476.153 113.872 475.443 113.143C474.733 112.415 473.884 111.836 472.946 111.441C472.008 111.046 471.001 110.842 469.983 110.842C468.965 110.842 467.957 111.046 467.02 111.441C466.082 111.836 465.233 112.415 464.523 113.143C463.812 113.872 463.255 114.735 462.884 115.681C462.513 116.628 462.336 117.64 462.362 118.656L462.342 118.635Z" fill="black"/>
<path opacity="0.25" d="M431.481 137.445C432.738 141.46 443.663 150.823 443.663 150.823C443.663 150.823 447.298 136.91 446.031 132.895C445.374 131.035 444.02 129.502 442.254 128.619C440.488 127.736 438.448 127.573 436.564 128.162C434.68 128.752 433.098 130.049 432.152 131.78C431.205 133.512 430.969 135.542 431.491 137.445H431.481Z" fill="black"/>
<path opacity="0.25" d="M404.027 159.838C404.588 163.988 413.769 175.074 413.769 175.074C413.769 175.074 419.694 161.976 419.133 157.81C419.021 156.801 418.709 155.824 418.215 154.937C417.72 154.05 417.053 153.271 416.252 152.645C415.451 152.02 414.534 151.561 413.553 151.295C412.572 151.029 411.547 150.961 410.54 151.097C409.533 151.232 408.563 151.567 407.687 152.082C406.811 152.598 406.047 153.283 405.44 154.097C404.834 154.912 404.396 155.839 404.153 156.825C403.91 157.811 403.868 158.836 404.027 159.838V159.838Z" fill="black"/>
<path d="M404.255 188.934C404.255 188.934 407.714 153.328 428.308 134.394C436.995 126.504 442.887 116.013 445.101 104.494C446.109 99.0188 446.612 93.4623 446.602 87.8948" stroke="#535461" stroke-width="2" stroke-miterlimit="10"/>
<path d="M459.512 75.8809C457.954 79.7818 446.301 88.2476 446.301 88.2476C446.301 88.2476 443.798 74.0912 445.372 70.1903C446.129 68.3172 447.6 66.8214 449.462 66.0319C451.323 65.2425 453.423 65.2241 455.298 65.9808C457.173 66.7374 458.67 68.2072 459.46 70.0668C460.251 71.9263 460.269 74.0233 459.512 75.8964V75.8809Z" fill="#66CCCC"/>
<path d="M462.476 102.191C459.034 104.609 444.665 105.402 444.665 105.402C444.665 105.402 450.263 92.1537 453.706 89.7364C454.522 89.1259 455.453 88.6853 456.443 88.4407C457.433 88.1961 458.462 88.1524 459.469 88.3123C460.477 88.4721 461.441 88.8322 462.307 89.3712C463.172 89.9102 463.92 90.6173 464.507 91.4504C465.094 92.2835 465.508 93.2259 465.724 94.2216C465.94 95.2173 465.953 96.2461 465.764 97.2472C465.574 98.2482 465.186 99.2011 464.621 100.049C464.056 100.898 463.327 101.624 462.476 102.186V102.191Z" fill="#66CCCC"/>
<path d="M447.075 138.907C442.879 139.26 430.074 132.683 430.074 132.683C430.074 132.683 441.602 124.072 445.797 123.719C447.812 123.55 449.812 124.187 451.356 125.49C452.901 126.794 453.864 128.657 454.033 130.67C454.202 132.683 453.565 134.68 452.26 136.223C450.955 137.766 449.09 138.728 447.075 138.897V138.907Z" fill="#66CCCC"/>
<path d="M429.155 164.061C425.079 165.098 411.349 160.809 411.349 160.809C411.349 160.809 421.251 150.377 425.328 149.318C427.285 148.812 429.363 149.102 431.106 150.126C432.849 151.15 434.113 152.823 434.62 154.778C435.128 156.733 434.837 158.809 433.812 160.55C432.787 162.291 431.112 163.554 429.155 164.061V164.061Z" fill="#66CCCC"/>
<path d="M429.518 100.179C431.221 104.022 443.134 112.109 443.134 112.109C443.134 112.109 445.159 97.8753 443.456 94.0315C442.607 92.2331 441.088 90.8376 439.223 90.1432C437.358 89.4488 435.295 89.5106 433.475 90.3153C431.655 91.1201 430.222 92.6039 429.483 94.4498C428.744 96.2958 428.756 98.3574 429.518 100.194V100.179Z" fill="#66CCCC"/>
<path d="M408.934 129.861C411.712 133.02 425.494 137.159 425.494 137.159C425.494 137.159 423.167 122.972 420.389 119.813C419.734 119.045 418.932 118.416 418.03 117.96C417.129 117.505 416.146 117.234 415.138 117.161C414.131 117.089 413.119 117.217 412.162 117.539C411.204 117.86 410.321 118.369 409.562 119.034C408.803 119.7 408.184 120.51 407.741 121.417C407.298 122.323 407.039 123.309 406.981 124.316C406.923 125.324 407.065 126.333 407.4 127.284C407.736 128.236 408.257 129.112 408.934 129.861V129.861Z" fill="#66CCCC"/>
<path d="M392.894 161.462C395.095 165.041 407.979 171.448 407.979 171.448C407.979 171.448 408.088 157.074 405.902 153.489C404.813 151.834 403.123 150.668 401.188 150.237C399.253 149.806 397.226 150.146 395.538 151.183C393.849 152.22 392.631 153.873 392.143 155.792C391.654 157.711 391.933 159.745 392.92 161.462H392.894Z" fill="#66CCCC"/>
<path d="M377.772 49.4927C378.634 46.3336 379.673 43.1589 380.4 39.9583C379.528 43.1589 378.484 46.344 377.772 49.4927Z" fill="url(#paint0_linear)"/>
<path d="M373.909 79.9218C373.836 79.7973 373.784 79.6728 373.727 79.5587C373.727 79.5068 373.675 79.4653 373.655 79.4134C373.541 79.4668 373.425 79.5135 373.307 79.5535C373.078 79.6417 372.845 79.7247 372.606 79.7921C372.367 79.8596 372.268 79.8959 372.086 79.9374C371.936 79.9892 371.781 80.0291 371.624 80.0567L371.666 80.15C371.858 80.1085 372.045 80.0722 372.237 80.0204L372.289 80.6636C372.507 80.6636 372.71 80.6325 372.907 80.6325C373 80.6273 373.094 80.6273 373.187 80.6325C373.592 80.6325 373.945 80.6325 374.226 80.6325C374.117 80.399 374.003 80.1552 373.909 79.9218ZM479.322 247.541C476.881 244.258 472.01 209.015 472.01 209.015C472.01 209.015 462.43 183.955 465.042 173.953C467.654 163.952 457.907 138.363 457.907 138.363C457.907 138.363 451.468 135.567 451.12 131.417C451.12 131.417 424.829 123.117 423.599 116.892C422.602 111.788 406.296 108.126 400.439 106.969C398.653 99.7687 396.856 93.051 395.532 89.3836C395.173 88.2423 394.836 87.2567 394.524 86.4786C392.286 80.7725 385.369 80.2538 380.353 80.7103C380.136 79.7378 379.732 78.8165 379.164 77.9973C379.081 77.7157 378.917 77.4648 378.692 77.2762C378.584 77.1846 378.469 77.1013 378.349 77.0272C378.258 76.8591 378.139 76.7081 377.996 76.5811C377.853 76.4529 377.696 76.3415 377.528 76.2491C377.408 76.1839 377.283 76.1267 377.155 76.078C376.854 75.9635 376.542 75.8784 376.225 75.8238C375.855 75.7478 375.48 75.6993 375.103 75.6785C376.02 75.278 376.837 74.6812 377.497 73.9304C377.946 73.4032 378.281 72.7885 378.479 72.1252C378.643 71.5736 378.717 70.9989 378.697 70.4237C378.562 70.6608 378.406 70.8848 378.229 71.0929C378.448 68.7949 377.232 66.4606 376.537 64.1729C375.694 61.1948 375.537 58.0644 376.08 55.0172C376.775 50.4212 378.499 45.7733 379.668 41.0943C379.671 41.0685 379.671 41.0424 379.668 41.0165C380.281 38.6928 380.66 36.3139 380.8 33.915C381.002 29.0752 379.761 24.2457 377.767 19.8365C375.997 15.9304 373.385 12.0866 369.386 10.4992C366.416 9.30093 363.087 9.49287 359.889 9.29575C352.712 8.84963 345.868 6.32857 339.045 4.03575C332.222 1.74294 325.201 -0.342389 318.02 0.0570389C310.838 0.456466 303.449 3.91644 300.172 10.2658C299.134 12.2474 298.536 14.452 297.295 16.3143C294.969 19.8261 290.804 21.5846 287.33 24.0071C283.856 26.4296 280.798 29.8689 279.541 33.9721C278.855 36.1827 278.758 38.534 279.261 40.7935V40.7935C279.374 41.3037 279.52 41.8062 279.697 42.2978C280.19 43.6684 280.959 44.9237 281.956 45.986C282.708 46.7712 283.573 47.4407 284.521 47.9728V47.9728C285.712 48.6324 286.987 49.128 288.312 49.446C288.265 49.6016 288.218 49.7676 288.166 49.9284C288.083 50.193 288.011 50.4472 287.933 50.7325C287.761 51.3705 287.6 52.0189 287.465 52.6725C287.46 52.7191 287.46 52.7661 287.465 52.8126C286.828 55.7632 286.507 58.7734 286.51 61.7919C286.509 63.2195 286.582 64.6462 286.728 66.0663V66.0663C288.805 87.1167 306.201 103.721 327.694 104.8C328.431 104.837 329.174 104.857 329.927 104.857C330.269 104.857 330.607 104.857 330.965 104.857C331.303 105.304 331.635 105.76 331.952 106.206C332.268 106.652 332.559 107.109 332.834 107.555L332.082 106.777L331.329 106.087C331.124 106.367 330.897 106.629 330.648 106.87C330.157 106.698 329.656 106.556 329.148 106.445V106.445C326.993 105.968 323.711 105.791 319.39 107.093C315.418 108.281 310.563 110.724 304.882 115.367L277.199 131.967L262.223 141.065L256.828 154.241C256.828 154.241 252.773 169.897 248.26 187.835C248.084 187.887 247.912 187.938 247.741 188.001C247.375 187.959 247.008 187.938 246.64 187.938C244.022 187.932 241.503 188.94 239.613 190.75C237.723 192.56 236.609 195.031 236.504 197.644C227.531 208.537 227.022 219.431 229.13 224.432C229.321 224.9 229.561 225.347 229.847 225.765C231.228 227.757 233.809 232.892 236.426 238.365C236.358 238.816 236.317 239.195 236.296 239.48C236.291 239.573 236.291 239.667 236.296 239.76C236.296 239.76 237.854 263.264 232.661 270.003C231.524 271.471 231.695 273.4 232.661 275.538C236.14 283.225 249.896 293.491 249.896 293.491C249.896 293.491 266.393 293.403 275.584 292.402C275.558 293.325 275.538 294.243 275.517 295.141C275.309 304.208 275.309 311.808 275.309 311.808L274.966 321.316C274.966 321.316 271.851 341.355 270.293 346.879C269.312 350.345 270.444 382.429 271.43 406.015H433.974C435.885 392.061 433.19 349.665 433.19 349.665C433.19 349.665 430.629 338.704 430.536 329.149C430.531 329.139 430.528 329.127 430.528 329.115C430.528 329.104 430.531 329.092 430.536 329.082C430.536 328.246 430.536 327.432 430.567 326.633L431.746 326.592L433.865 326.519H434.057C434.057 326.519 434.109 326.322 434.228 326C434.508 325.199 434.891 324.437 435.365 323.733C436.269 322.4 437.681 321.093 439.805 321.005C440.979 320.958 442.796 320.009 444.847 318.608C444.861 318.611 444.875 318.611 444.889 318.608C450.409 314.879 457.704 307.995 459.475 306.864C461.911 305.308 473.574 294.933 473.574 294.933C473.574 294.933 475.313 292.734 477.167 290.083L477.234 289.99C479.54 286.67 481.991 282.701 481.389 281.451C480.35 279.21 482.084 273.852 482.084 273.852C487.5 263.949 481.762 250.825 479.322 247.541ZM378.91 87.9882C378.959 88.143 378.991 88.3032 379.003 88.4654C378.873 88.2942 378.744 88.1127 378.614 87.9467L378.489 87.7807L378.401 87.6562L378.598 87.3864C378.598 87.3864 378.598 87.3864 378.598 87.4227C378.735 87.5909 378.841 87.7825 378.91 87.9882V87.9882ZM377.165 83.3922C376.599 83.5063 376.152 83.61 375.862 83.6878C375.493 83.0342 375.14 82.3806 374.823 81.7166C375.655 82.1991 376.44 82.7602 377.165 83.3922V83.3922ZM376.189 84.2118C376.187 84.2014 376.187 84.191 376.189 84.1806L376.23 84.2118C376.443 84.3518 376.651 84.4867 376.843 84.6267C377.014 84.7512 377.17 84.8706 377.326 84.995C377.222 85.1766 377.108 85.3634 376.994 85.5138C376.812 85.2285 376.64 84.9536 376.474 84.6682C376.37 84.5541 376.277 84.3985 376.189 84.2118ZM373.073 77.8105C374.076 77.7117 375.087 77.7117 376.09 77.8105V77.8105C376.23 77.8105 376.355 77.8365 376.48 77.8572C376.761 77.9007 377.038 77.972 377.305 78.0699C377.919 78.9275 378.297 79.931 378.401 80.98L378.12 81.0215L377.845 81.0734C377.326 81.1616 376.807 81.2498 376.402 81.3328L375.882 81.4417C375.192 81.5921 374.792 81.7063 374.776 81.7114C374.709 81.5714 374.641 81.4417 374.569 81.3068C374.454 81.0838 374.335 80.8555 374.231 80.6325C374.127 80.4094 373.992 80.1552 373.883 79.9218C373.81 79.7973 373.758 79.6728 373.701 79.5587C373.701 79.5068 373.649 79.4653 373.629 79.4134C373.598 79.3584 373.572 79.3012 373.551 79.2423C373.234 78.599 372.943 77.9558 372.663 77.3229C372.632 77.2607 372.606 77.1932 372.58 77.131L372.974 77.1051V77.2399L373.073 77.8105ZM249.179 399.604C249.138 391.88 248.577 383.523 247.019 375.68C246.354 372.344 245.669 369.009 244.973 365.73C244.797 364.911 244.625 364.102 244.454 363.292L242.854 363.505H242.709C238.347 342.958 233.788 324.854 233.788 324.854C233.788 324.854 224.732 290.311 225.781 287.557C225.916 287.199 225.744 286.234 225.36 284.818C223.169 276.964 214.019 255.322 210.82 247.925C210.82 247.894 210.794 247.858 210.784 247.832C210.265 246.592 209.891 245.757 209.777 245.513L210.53 234.474L210.571 233.81L210.67 232.399L210.628 232.363L210.67 231.709C210.67 231.709 202.766 225.236 189.38 220.562C188.86 220.375 188.31 220.193 187.765 220.017C188.434 215.551 189.322 210.509 190.48 205.596C190.589 205.103 190.709 204.626 190.834 204.144C190.943 203.661 191.067 203.194 191.192 202.722C191.389 201.955 191.602 201.197 191.82 200.45C192.542 200.222 193.253 199.968 193.954 199.698L194.224 199.594C202.86 196.238 209.986 189.868 214.283 181.666C218.579 173.464 219.754 163.985 217.592 154.983V154.983C216.359 149.878 214.081 145.083 210.904 140.899C210.665 140.578 210.41 140.256 210.156 139.94C209.901 139.623 209.595 139.271 209.309 138.949C210.81 135.541 212.581 132.299 212.726 128.984C212.752 128.564 212.752 128.143 212.726 127.723V127.672C212.534 125.54 211.589 123.382 209.387 121.115C206.173 117.79 201.598 116.104 197.023 115.294C192.448 114.485 187.785 114.464 183.185 113.92C175.556 113.007 168.126 110.657 160.497 109.936C151.102 109.067 141.642 110.677 133.064 114.605C127.389 117.198 121.64 121.732 121.297 127.952C121.017 133.092 124.6 138.02 123.696 143.099C122.798 148.089 117.709 152.016 118.156 157.063C118.327 159.034 119.34 160.798 120.607 162.37C121.043 162.889 121.505 163.407 121.983 163.926C123.831 165.882 125.867 167.76 126.9 170.224C126.942 170.327 126.983 170.431 127.02 170.535C127.897 172.968 127.503 176.044 125.332 177.439C125.344 177.448 125.353 177.461 125.358 177.476V177.476C125.389 177.517 125.42 177.548 125.446 177.59C125.45 177.581 125.45 177.572 125.446 177.564C126.216 178.475 127.253 179.121 128.412 179.41L128.853 179.545C128.495 179.934 128.157 180.339 127.814 180.764L127.591 181.06C127.019 181.829 126.498 182.634 126.033 183.472C125.768 183.939 125.514 184.406 125.301 184.873C124.589 186.296 124.074 187.809 123.769 189.37C123.214 192.804 123.998 196.383 123.156 199.745C122.118 203.895 118.831 207.08 116.977 210.934C113.467 218.196 115.456 226.719 116.162 234.739C117.122 245.632 115.565 256.573 114.012 267.393C113.188 273.148 112.364 278.908 111.54 284.673C109.463 299.142 107.386 313.611 105.309 328.08C104.551 333.382 103.652 338.974 100.116 343.067H100.153C100.153 343.067 100.153 343.098 100.116 343.108C101.178 343.572 102.307 343.862 103.46 343.969V343.969C108.077 344.431 112.968 342.2 117.122 339.762C120.412 337.863 123.528 335.678 126.433 333.231C126.007 334.788 125.55 336.484 125.062 338.31C125.064 338.327 125.064 338.345 125.062 338.362V338.362C119.2 360.667 109.77 401.56 109.77 401.56C109.77 401.56 108.913 403.339 107.801 405.99H254.237C252.523 403.915 250.929 401.928 249.683 400.325L249.179 399.604ZM140.755 193.354C140.791 193.292 140.817 193.235 140.853 193.178C140.853 193.344 140.853 193.504 140.853 193.66C140.853 193.816 140.853 193.956 140.853 194.101C140.853 194.246 140.853 194.231 140.853 194.303C140.853 194.376 140.853 194.303 140.853 194.303C140.853 194.516 140.807 194.729 140.77 194.941C140.77 194.941 140.77 194.967 140.77 194.988L141.29 195.18L141.892 195.429C145.451 196.833 149.054 198.104 152.703 199.242C153.077 199.361 153.456 199.475 153.835 199.584L153.913 200.227C154.007 200.886 154.095 201.555 154.178 202.224C154.178 202.224 154.178 202.256 154.178 202.276C154.412 204.128 154.64 205.975 154.843 207.78C154.843 207.78 145.309 204.149 145.428 209.663C145.423 209.762 145.423 209.86 145.428 209.959C145.418 210.09 145.418 210.222 145.428 210.353C145.516 214.648 146.861 217.195 147.131 218.502C147.115 218.557 147.087 218.606 147.048 218.648C146.818 219.148 146.739 219.705 146.82 220.251C146.811 221.179 146.884 222.105 147.038 223.021C146.757 223.192 146.482 223.363 146.207 223.539C145.999 223.669 145.802 223.814 145.599 223.96C144.326 219.545 142.659 215.254 140.62 211.136C139.192 208.2 137.587 205.14 137.603 201.918C137.603 201.711 137.603 201.498 137.629 201.286C137.687 200.352 137.865 199.43 138.158 198.541C138.278 198.204 138.408 197.872 138.553 197.545C138.892 196.769 139.272 196.011 139.69 195.273C139.96 194.786 140.246 194.303 140.521 193.816C140.609 193.67 140.692 193.52 140.775 193.375L140.755 193.354ZM373.909 79.9218C373.836 79.7973 373.784 79.6728 373.727 79.5587C373.727 79.5068 373.675 79.4653 373.655 79.4134C373.541 79.4668 373.425 79.5135 373.307 79.5535C373.078 79.6417 372.845 79.7247 372.606 79.7921C372.367 79.8596 372.268 79.8959 372.086 79.9374L371.624 80.0567L371.666 80.15C371.858 80.1085 372.045 80.0722 372.237 80.0204L372.289 80.6636C372.507 80.6636 372.71 80.6325 372.907 80.6325H373.187C373.592 80.6325 373.945 80.6325 374.226 80.6325C374.117 80.399 374.003 80.1552 373.909 79.9218Z" fill="url(#paint1_linear)"/>
<path d="M260.447 156.114L257.332 157.489C257.332 157.489 237.023 236.306 237.023 242.676C237.023 249.046 280.086 284.491 280.086 284.491L286.806 239.185C286.806 239.185 277.158 135.287 260.447 156.114Z" fill="#E8F5FF"/>
<path d="M354.909 131.043L336.916 121.665C335.908 117.373 334.12 113.302 331.64 109.656C329.007 105.859 325.508 102.129 321.146 100.184C310.121 95.2453 367.777 69.324 367.777 69.324C368.685 72.4379 369.754 75.5026 370.98 78.5057C373.951 85.8303 378.879 95.3024 385.229 97.9998C396.025 102.591 354.909 131.043 354.909 131.043Z" fill="#FFC1C7"/>
<path opacity="0.1" d="M370.98 78.5057C368.517 87.1608 363.394 94.8241 356.335 100.413C349.276 106.003 340.638 109.236 331.64 109.656C329.007 105.859 325.508 102.129 321.146 100.184C310.121 95.2453 367.776 69.324 367.776 69.324C368.685 72.4379 369.754 75.5026 370.98 78.5057V78.5057Z" fill="black"/>
<path d="M372.6 65.418C372.602 73.9064 370.085 82.2049 365.365 89.2637C360.646 96.3225 353.937 101.825 346.087 105.074C338.237 108.324 329.598 109.175 321.264 107.52C312.93 105.865 305.274 101.778 299.266 95.7757C293.257 89.7739 289.165 82.1266 287.507 73.8013C285.849 65.476 286.7 56.8465 289.952 49.0042C293.204 41.162 298.711 34.4593 305.776 29.7439C312.842 25.0285 321.149 22.5122 329.646 22.5132C335.294 22.4871 340.891 23.579 346.114 25.7259C351.336 27.8728 356.082 31.032 360.076 35.0212C364.07 39.0104 367.233 43.7506 369.382 48.9678C371.532 54.1851 372.626 59.7761 372.6 65.418V65.418Z" fill="#FFC1C7"/>
<path d="M378.801 125.534L367.086 152.841L356.752 170.965H323.674L314.026 146.185L317.937 120.487H343.199L359.51 119.569L365.019 117.733L368.571 119.745L378.801 125.534Z" fill="#575A89"/>
<path opacity="0.1" d="M374.766 89.1346C374.766 89.1346 382.072 90.6908 375.529 96.0494C368.986 101.408 346.414 118.448 346.414 118.448C346.414 118.448 354.343 125.503 352.702 133.767L378.972 119.138L383.646 95.7329C383.646 95.7329 384.17 88.6989 374.766 89.1346Z" fill="black"/>
<path opacity="0.1" d="M351.58 118.448L334.87 121.203C334.87 121.203 338.318 133.938 336.594 137.554C336.542 137.666 336.498 137.782 336.464 137.901L329.646 156.311L334.756 170.768L352.442 146.673L346.413 137.554C346.413 137.554 352.785 129.119 356.576 126.193C360.366 123.267 351.58 118.448 351.58 118.448Z" fill="black"/>
<path d="M351.58 117.738L334.87 120.487C334.87 120.487 338.318 133.222 336.594 136.838C336.542 136.95 336.498 137.066 336.464 137.185L329.646 155.595L334.756 170.052L352.442 145.942L346.413 136.822C346.413 136.822 352.785 128.387 356.576 125.462C360.366 122.536 351.58 117.738 351.58 117.738Z" fill="#DCE6F2"/>
<path d="M375.467 87.7599C375.467 87.7599 382.773 89.3162 376.225 94.6747C369.677 100.033 346.414 118.448 346.414 118.448C346.414 118.448 355.028 124.129 353.393 132.387L379.663 117.764L384.336 94.3583C384.336 94.3583 384.856 87.3242 375.467 87.7599Z" fill="#575A89"/>
<path opacity="0.1" d="M332.788 111.28C332.788 111.28 334.382 114.257 341.418 119.626C341.418 119.626 329.703 125.851 334.185 134.602L316.264 129.933L313.507 121.327L332.788 111.28Z" fill="black"/>
<path d="M332.097 110.595C332.097 110.595 333.691 113.572 340.727 118.941C340.727 118.941 329.013 125.135 333.494 133.912L315.579 129.243L312.822 120.643L332.097 110.595Z" fill="#575A89"/>
<path opacity="0.1" d="M378.801 125.534L367.086 152.841L356.773 170.965H323.674L314.026 146.185L317.931 120.487H324.957C324.843 126.484 327.034 133.528 326.894 136.148C326.655 140.453 333.323 163.682 333.323 163.682C333.323 163.682 347.276 141.138 352.785 139.13C356.249 137.87 363.586 127.381 368.566 119.745L378.801 125.534Z" fill="black"/>
<path d="M424.949 269.23L423.759 270.724C423.759 270.724 432.374 313.919 429.991 323.728C429.586 325.496 429.354 327.3 429.3 329.113V329.191C428.879 339.171 431.896 352.124 431.896 352.124C431.896 352.124 434.306 390.303 432.935 406.005H271.638C270.693 382.787 269.675 352.705 270.599 349.369C272.157 343.866 275.273 323.899 275.273 323.899L275.615 314.438C275.615 314.438 275.615 305.292 275.896 295.104C276.015 290.524 276.192 285.715 276.446 281.451C276.773 276.087 277.23 271.569 277.859 269.349C278.246 267.666 278.468 265.95 278.523 264.224C278.523 264.063 278.523 263.897 278.555 263.731C278.555 263.212 278.607 262.652 278.627 262.076C278.627 261.916 278.627 261.755 278.627 261.558C278.726 258.217 278.69 254.254 278.581 250.145C278.581 249.922 278.581 249.694 278.581 249.466C278.492 246.385 278.362 243.241 278.217 240.253C277.765 230.916 277.178 223.021 277.178 223.021L257.368 157.452L262.706 144.318L277.521 135.25L304.913 118.729C318.274 107.757 327.07 109.075 330.425 110.278C330.751 110.389 331.07 110.519 331.38 110.667C331.484 110.719 331.567 110.761 331.645 110.807C331.752 110.858 331.854 110.917 331.952 110.984V110.984C331.033 111.425 330.235 112.082 329.625 112.898C328.938 113.827 328.449 114.886 328.187 116.01C328.011 116.707 327.888 117.417 327.818 118.132C327.751 118.884 327.725 119.662 327.725 120.446C327.762 122.163 327.909 123.877 328.166 125.576C328.166 125.607 328.166 125.649 328.166 125.69C328.337 126.904 328.55 128.092 328.758 129.207C328.756 129.226 328.756 129.245 328.758 129.264C328.997 130.566 329.236 131.77 329.397 132.807C329.428 132.994 329.454 133.165 329.48 133.326C329.594 134.011 329.648 134.706 329.641 135.401C329.699 137.079 329.925 138.747 330.316 140.381C330.451 141.065 330.607 141.797 330.778 142.559C331.012 143.597 331.266 144.728 331.541 145.879C331.692 146.512 331.853 147.166 332.019 147.814C332.081 148.074 332.149 148.333 332.211 148.597L332.315 149.007C333.421 153.401 334.621 157.774 335.358 160.419C335.794 161.976 336.069 162.935 336.069 162.935C336.069 162.935 343.89 150.304 350.131 143.114C350.225 143.011 350.308 142.912 350.396 142.819C351.014 142.108 351.622 141.46 352.203 140.889C353.476 139.623 354.618 138.721 355.537 138.389C355.733 138.317 355.922 138.228 356.103 138.124C358.658 136.677 362.781 131.422 366.639 125.918C367.018 125.4 367.387 124.834 367.761 124.3C368.618 123.065 369.448 121.825 370.233 120.638C370.835 119.73 371.411 118.848 371.957 118.008C374.553 113.972 376.381 110.963 376.381 110.963L379.985 110.802L380.613 110.771H381.033L397.396 110.014C397.396 110.014 398.102 110.133 399.265 110.367C399.328 110.367 399.39 110.367 399.457 110.408C405.263 111.56 421.392 115.206 422.378 120.264C423.583 126.458 449.599 134.721 449.599 134.721C449.941 138.871 456.313 141.605 456.313 141.605C456.313 141.605 465.961 167.075 463.38 177.055C460.83 186.911 470.016 211.292 470.26 211.977L468.5 214.197L424.949 269.23Z" fill="#E8F5FF"/>
<path opacity="0.1" d="M374.761 87.3242C374.761 87.3242 390.687 82.8112 394.306 92.1018C397.926 101.392 406.021 138.913 406.021 138.913C406.021 138.913 385.001 142.871 379.491 138.913C376.26 136.564 372.26 135.519 368.291 135.987L356.404 144.074L352.894 143.037C352.894 143.037 371.91 114.797 376.043 105.2C380.177 95.6033 381.574 91.3133 374.761 87.3242Z" fill="black"/>
<path d="M374.07 85.2493C374.07 85.2493 390.007 80.7363 393.642 90.0268C397.276 99.3174 405.356 136.838 405.356 136.838C405.356 136.838 384.341 140.796 378.827 136.838C375.597 134.489 371.599 133.444 367.631 133.912L355.734 141.999L352.224 140.962C352.224 140.962 371.24 112.722 375.373 103.125C379.507 93.5283 380.883 89.2487 374.07 85.2493Z" fill="#E8F5FF"/>
<path opacity="0.1" d="M267.167 234.931C267.167 234.931 279.053 237.857 281.296 244.569C283.54 251.281 272.51 251.453 272.51 251.453C272.51 251.453 265.791 239.579 267.167 234.931Z" fill="black"/>
<path opacity="0.1" d="M311.44 284.491C311.44 284.491 282.33 344.037 289.049 349.717C295.769 355.397 311.44 284.491 311.44 284.491Z" fill="black"/>
<path opacity="0.1" d="M351.58 240.611C351.58 240.611 374.838 298.45 370.186 307.383C365.533 316.316 380.177 307.383 380.177 307.383L351.58 240.611Z" fill="black"/>
<path d="M383.967 297.745C383.967 297.745 305.412 301.532 328.327 325.969C351.243 350.407 398.268 327.007 398.268 327.007L383.967 297.745Z" fill="#FFC1C7"/>
<path opacity="0.1" d="M372.6 65.418C372.608 71.0464 371.501 76.6206 369.345 81.8204C368.623 81.9034 367.901 81.9553 367.205 81.9864C366.167 79.7092 366.722 77.0792 366.743 74.5737C366.764 72.0682 365.84 69.1218 363.425 68.4474C358.611 67.0935 355.288 76.0832 350.542 74.4596C346.907 73.225 347.857 67.716 345.764 64.5361C344.108 62.0202 340.79 61.3096 338.209 59.7326C332.72 56.366 332.886 50.9815 330.337 45.8875C327.668 40.5497 322.028 42.1267 317.132 45.2754C313.414 47.672 310.204 50.8829 306.227 52.7919C302.784 54.4519 298.915 55.0536 295.099 55.1418C292.749 55.2327 290.398 54.9847 288.12 54.4052C290.8 44.3385 297.054 35.5894 305.716 29.7894C314.377 23.9894 324.855 21.5345 335.195 22.8824C345.535 24.2304 355.031 29.2892 361.912 37.1155C368.794 44.9418 372.591 55.0013 372.595 65.418H372.6Z" fill="black"/>
<path d="M317.147 43.9007C313.424 46.2973 310.22 49.5031 306.242 51.4224C302.799 53.0772 298.931 53.6789 295.114 53.7671C290.441 53.8709 285.409 53.0513 282.215 49.6795C279.281 46.567 278.58 41.7791 279.821 37.6966C281.063 33.6142 284.038 30.2268 287.533 27.7732C291.027 25.3196 295.083 23.6233 297.399 20.1115C298.624 18.2544 299.216 16.0653 300.234 14.0889C303.49 7.76551 310.812 4.34185 317.89 3.91648C324.967 3.49112 331.983 5.59719 338.723 7.87963C345.463 10.1621 352.255 12.6728 359.369 13.1448C362.537 13.3419 365.829 13.1448 368.768 14.3431C372.72 15.946 375.311 19.7795 377.076 23.6804C379.055 28.0793 380.286 32.8828 380.078 37.6863C379.642 47.9417 372.86 58.0052 375.841 67.8301C376.63 70.4497 378.11 73.1368 377.321 75.7564C376.168 79.5795 371.229 80.451 367.236 80.6325C366.198 78.3553 366.753 75.7201 366.774 73.2198C366.795 70.7195 365.871 67.7678 363.461 67.0935C358.642 65.7499 355.319 74.7241 350.583 73.1056C346.974 71.8659 347.909 66.3621 345.811 63.1822C344.154 60.6611 340.831 59.9557 338.256 58.3787C332.767 55.0121 332.933 49.6276 330.383 44.5336C327.693 39.1699 322.049 40.7468 317.147 43.9007Z" fill="#99607E"/>
<path d="M240.975 241.296L237.013 242.676C237.013 242.676 238.571 266.081 233.378 272.793C228.185 279.506 250.431 296.194 250.431 296.194C250.431 296.194 280.923 296.023 281.785 293.6C282.647 291.178 280.227 250.234 280.227 250.234C280.227 250.234 263.859 243.863 265.235 233.712C265.235 233.712 260.24 257.631 252.835 256.598C245.43 255.566 237.023 249.388 240.975 241.296Z" fill="#E8F5FF"/>
<path opacity="0.1" d="M254.19 263.84C259.963 263.84 264.643 259.564 264.643 254.29C264.643 249.016 259.963 244.74 254.19 244.74C248.417 244.74 243.737 249.016 243.737 254.29C243.737 259.564 248.417 263.84 254.19 263.84Z" fill="black"/>
<path d="M265.619 241.986C265.619 241.986 263.542 178.658 245.461 192.768C227.38 206.878 227.203 223.752 230.646 228.737C234.089 233.722 245.129 258.679 245.129 258.679C246.856 259.679 248.795 260.255 250.788 260.362C252.781 260.469 254.771 260.102 256.595 259.292C258.419 258.483 260.025 257.253 261.281 255.703C262.537 254.154 263.408 252.329 263.823 250.379L265.619 241.986Z" fill="#FFC1C7"/>
<path opacity="0.1" d="M378.411 81.5766C378.327 81.2984 378.165 81.05 377.944 80.8607C377.051 80.0463 375.129 79.761 372.232 80.01L372.351 81.3795C376.215 81.0475 376.978 81.8152 377.077 81.9449V82.0746L377.196 82.2458C377.678 82.8925 378.019 83.6326 378.198 84.4187C378.377 85.2047 378.389 86.0195 378.235 86.8107C377.388 91.0384 372.19 94.405 372.138 94.4413L372.014 94.5139L371.936 94.6332C369.692 97.9583 357.007 107.342 353.688 109.77L353.398 109.438C351.912 110.724 338.858 122.142 338.152 126.515C337.695 129.259 334.6 130.322 333.478 130.618C332.294 129.721 328.452 126.665 326.452 123.242C324.578 120.02 332.123 113.733 332.788 111.279L331.749 110.216C331.64 110.61 321.95 119.657 324.645 124.279C326.806 127.988 330.752 131.163 332.133 132.211C331.692 136.215 328.945 159.73 324.723 165.301C319.479 172.226 315.07 207.127 315.558 219.312C315.989 230.138 313.159 250.586 303.708 259.369C302.072 260.956 300.098 262.153 297.934 262.872C295.77 263.59 293.471 263.811 291.209 263.519H291.095H290.981C290.846 263.519 277.137 264.919 265.619 255.219C256.195 247.298 250.856 234.371 249.745 216.785H249.517L249.423 211.666C251.979 211.267 254.28 209.895 255.844 207.837C257.408 205.779 258.112 203.196 257.809 200.63C257.506 198.064 256.219 195.715 254.219 194.077C252.219 192.439 249.661 191.639 247.083 191.845C244.505 192.052 242.108 193.248 240.394 195.184C238.681 197.119 237.785 199.643 237.895 202.224C238.005 204.805 239.112 207.244 240.984 209.026C242.856 210.809 245.347 211.798 247.933 211.785H248.047L248.141 216.874L247.684 216.905C248.826 235.061 254.434 248.491 264.3 256.785C271.799 262.993 281.378 266.124 291.1 265.547C291.79 265.622 292.483 265.66 293.177 265.661C297.634 265.684 301.921 263.961 305.121 260.863C315.075 251.603 318.102 230.402 317.63 219.208C317.111 206.297 321.737 172.651 326.38 166.525C330.929 160.513 333.686 137.087 334.169 132.548C335.815 132.086 339.538 130.628 340.172 126.842C340.629 124.103 349.347 115.663 354.711 110.989L354.55 110.802C357.438 108.696 366.416 102.056 370.866 97.7923C372.247 96.4695 373.618 95.1468 375.051 93.8862C376.775 92.3611 378.967 89.9386 379.543 87.0752C379.74 86.13 379.741 85.1546 379.546 84.209C379.351 83.2635 378.965 82.3676 378.411 81.5766V81.5766Z" fill="black"/>
<path d="M331.957 131.884C331.739 131.733 326.567 128.035 323.976 123.584C321.286 118.962 330.975 109.92 331.079 109.526L332.118 110.59C331.458 113.038 323.913 119.33 325.788 122.546C328.15 126.608 333.125 130.162 333.177 130.198L331.957 131.884Z" fill="#353146"/>
<path d="M353.013 110.776L352.203 109.661C352.37 109.542 368.68 97.756 371.25 93.9433L371.333 93.8292L371.453 93.7514C371.505 93.715 376.703 90.3536 377.549 86.1207C377.705 85.3304 377.694 84.5162 377.515 83.7307C377.336 82.9452 376.994 82.2061 376.511 81.561L376.391 81.3847V81.2602C376.287 81.1253 375.524 80.3628 371.661 80.6947L371.541 79.3201C374.444 79.0711 376.36 79.3564 377.253 80.1708C377.476 80.3619 377.639 80.6119 377.726 80.8919C378.287 81.6806 378.681 82.5758 378.883 83.5224C379.085 84.469 379.09 85.4468 378.899 86.3957C378.323 89.2643 376.137 91.6868 374.408 93.2067C372.98 94.4672 371.603 95.8004 370.227 97.1128C365.009 102.108 353.585 110.367 353.013 110.776Z" fill="#E8F5FF"/>
<path d="M248.753 209.86L247.377 209.885L247.531 218.24L248.907 218.215L248.753 209.86Z" fill="#E8F5FF"/>
<path d="M247.263 211.126C252.812 211.126 257.311 206.632 257.311 201.088C257.311 195.545 252.812 191.051 247.263 191.051C241.714 191.051 237.215 195.545 237.215 201.088C237.215 206.632 241.714 211.126 247.263 211.126Z" fill="#66CCCC"/>
<path d="M247.263 209.425C251.872 209.425 255.608 205.692 255.608 201.088C255.608 196.485 251.872 192.752 247.263 192.752C242.655 192.752 238.918 196.485 238.918 201.088C238.918 205.692 242.655 209.425 247.263 209.425Z" fill="#E8F5FF"/>
<path d="M292.523 264.992C291.829 264.993 291.136 264.956 290.446 264.883C280.725 265.455 271.148 262.324 263.646 256.121C253.78 247.821 248.182 234.407 247.03 216.236L249.107 216.106C250.218 233.691 255.556 246.623 264.986 254.539C276.504 264.214 290.207 262.839 290.342 262.839H290.457H290.571C292.833 263.13 295.132 262.909 297.297 262.19C299.462 261.472 301.437 260.275 303.075 258.689C312.521 249.907 315.351 229.458 314.92 218.632C314.4 206.437 318.809 171.536 324.059 164.616C328.654 158.552 331.505 131.22 331.536 130.945L331.614 130.167L332.383 130.032C332.43 130.032 336.916 129.181 337.477 125.83C338.204 121.462 351.238 110.045 352.718 108.753L354.073 110.309C348.688 114.978 339.969 123.423 339.533 126.167C338.9 129.964 335.176 131.417 333.536 131.873C333.016 136.417 330.28 159.838 325.746 165.851C321.104 171.977 316.477 205.622 316.997 218.534C317.443 229.728 314.447 250.934 304.493 260.188C301.287 263.295 296.989 265.019 292.523 264.992Z" fill="#353146"/>
<g opacity="0.1">
<path opacity="0.1" d="M377.025 53.155C377.876 50.0115 378.904 46.8472 379.621 43.6621C378.764 46.8627 377.731 50.0115 377.025 53.155Z" fill="black"/>
<path opacity="0.1" d="M368.337 77.8573C367.299 75.58 367.854 72.9448 367.875 70.4445C367.896 67.9442 366.972 65.0185 364.562 64.3182C359.743 62.9747 356.42 71.954 351.684 70.3304C348.049 69.0906 349.01 63.5868 346.912 60.4069C345.255 57.8859 341.937 57.1804 339.362 55.6034C333.868 52.2368 334.034 46.8523 331.489 41.7583C328.815 36.4154 323.181 37.9923 318.279 41.1462C314.556 43.5428 311.352 46.7538 307.374 48.6679C303.932 50.3227 300.063 50.9244 296.246 51.0126C291.599 51.1215 286.541 50.2968 283.347 46.925C280.886 44.3313 279.998 40.5289 280.507 36.9652C280.419 37.209 280.341 37.4528 280.263 37.6966C279.017 41.7791 279.744 46.5774 282.657 49.6795C285.85 53.0512 290.908 53.8709 295.556 53.7671C299.378 53.6789 303.241 53.0772 306.689 51.4224C310.677 49.5031 313.881 46.2973 317.594 43.9007C322.496 40.7468 328.135 39.1698 330.804 44.5128C333.348 49.6068 333.188 54.9913 338.676 58.3579C341.273 59.9141 344.57 60.6404 346.232 63.1614C348.309 66.3517 347.39 71.8451 351.004 73.0849C355.734 74.7033 359.058 65.7292 363.877 67.0727C366.286 67.7471 367.216 70.7039 367.19 73.199C367.164 75.6941 366.624 78.3345 367.652 80.6118C371.645 80.4302 376.583 79.5743 377.741 75.7356C377.901 75.1847 377.974 74.6126 377.959 74.0394C376.272 76.9495 371.931 77.6965 368.337 77.8573Z" fill="black"/>
</g>
<path opacity="0.1" d="M462.186 205.674L468.215 212.044C468.215 212.044 473.039 247.147 475.448 250.431C477.858 253.714 483.549 266.776 478.205 276.585C478.205 276.585 476.482 281.923 477.515 284.159C478.548 286.395 469.767 297.584 469.767 297.584C469.767 297.584 458.224 307.907 455.809 309.458C453.395 311.009 440.652 323.396 436.347 323.567C432.042 323.739 430.635 329.076 430.635 329.076L406.343 329.938C406.343 329.938 392.925 329.237 390.007 331.131C390.007 331.131 391.564 310.651 376.573 297.226L395.693 290.342C395.693 290.342 402.931 287.23 405.169 283.977C406.577 281.983 408.575 280.48 410.881 279.677C410.881 279.677 416.22 275.89 416.391 273.826C416.562 271.761 422.918 269.23 422.918 269.23L419.32 238.546L421.215 187.606C421.215 187.606 427.244 144.925 439.992 147.337C452.74 149.749 462.186 205.674 462.186 205.674Z" fill="black"/>
<path d="M464.263 205.674L470.292 212.044C470.292 212.044 475.116 247.147 477.525 250.431C479.935 253.714 485.626 266.776 480.283 276.585C480.283 276.585 478.564 281.923 479.597 284.159C480.63 286.395 471.844 297.584 471.844 297.584C471.844 297.584 460.301 307.907 457.886 309.458C455.472 311.009 442.729 323.396 438.424 323.567C434.119 323.739 432.712 329.076 432.712 329.076L408.42 329.938C408.42 329.938 394.992 329.237 392.084 331.131C392.084 331.131 393.642 310.651 378.65 297.226L397.77 290.342C397.77 290.342 405.009 287.23 407.247 283.977C408.655 281.983 410.652 280.48 412.959 279.677C412.959 279.677 418.297 275.89 418.468 273.826C418.639 271.761 424.995 269.23 424.995 269.23L421.397 238.546L423.292 187.606C423.292 187.606 429.321 144.925 442.069 147.337C454.817 149.749 464.263 205.674 464.263 205.674Z" fill="#E8F5FF"/>
<path opacity="0.1" d="M441.851 257.133C441.851 257.133 459.595 252.464 464.247 258.17C468.9 263.876 441.851 257.133 441.851 257.133Z" fill="black"/>
<path opacity="0.1" d="M437.718 264.961C443.746 269.178 462.352 269.349 462.352 269.349L437.718 264.961Z" fill="black"/>
<path opacity="0.1" d="M446.846 286.042C447.366 286.213 459.636 299.296 464.787 295.338C469.939 291.38 446.846 286.042 446.846 286.042Z" fill="black"/>
<path opacity="0.1" d="M281.592 176.246C281.592 176.246 285.196 201.031 283.42 211.126C281.644 221.221 288.125 233.727 288.125 233.727L281.592 176.246Z" fill="black"/>
<path d="M201.811 186.325C197.657 189.578 194.624 197.276 192.428 205.736C188.595 220.494 187.344 237.608 187.344 237.608C187.344 237.608 154.266 230.034 156.676 226.595C158.192 224.432 156.156 208.133 154.458 196.316C153.446 189.334 152.542 183.913 152.542 183.913C152.542 183.913 213.183 177.372 201.811 186.325Z" fill="#FFCCD0"/>
<path opacity="0.1" d="M201.811 185.635C197.657 188.893 194.624 196.586 192.428 205.046C185.837 207.046 178.828 207.226 172.144 205.568C165.459 203.911 159.348 200.477 154.458 195.631C153.446 188.644 152.542 183.223 152.542 183.223C152.542 183.223 213.183 176.687 201.811 185.635Z" fill="black"/>
<path d="M219.591 167.096C219.594 176.118 216.402 184.851 210.58 191.748C204.758 198.646 196.681 203.264 187.778 204.784C178.875 206.304 169.721 204.63 161.936 200.056C154.15 195.482 148.236 188.305 145.239 179.793C142.241 171.282 142.355 161.986 145.559 153.551C148.763 145.115 154.852 138.084 162.747 133.701C170.641 129.319 179.834 127.868 188.697 129.605C197.559 131.342 205.521 136.155 211.173 143.192C216.62 149.971 219.589 158.403 219.591 167.096V167.096Z" fill="#FFCCD0"/>
<path opacity="0.1" d="M249.75 406.005H238.846L237.926 386.765L236.966 366.851C236.966 366.851 239.443 366.483 243.389 365.933L244.983 365.72H245.113C245.975 369.761 246.827 373.911 247.647 378.056C249.013 385.414 249.724 392.878 249.771 400.361C249.771 400.88 249.771 401.399 249.771 401.886C249.802 403.271 249.771 404.657 249.75 406.005Z" fill="black"/>
<path d="M247.658 406.005H110.901C111.493 404.662 111.888 403.847 111.888 403.847C111.888 403.847 122.829 356.03 128.391 335.799C128.392 335.782 128.392 335.765 128.391 335.747C129.085 332.999 129.924 330.289 130.904 327.629V327.629C130.967 327.448 131.049 327.275 131.148 327.11C133.9 322.639 137.348 317.82 132.524 310.936C127.7 304.053 129.408 273.764 129.408 273.764C129.408 273.764 135.266 247.946 141.466 234.179C142.407 232.046 143.742 230.11 145.402 228.473C145.942 227.945 146.518 227.456 147.126 227.01V227.01C147.588 226.663 148.07 226.342 148.57 226.05L148.668 225.988C151.273 224.513 154.165 223.616 157.148 223.358C159.267 223.137 161.406 223.196 163.509 223.534C173.562 225.007 181.611 227.471 188.008 230.278C205.347 237.888 210.597 248.086 210.701 248.299L210.742 248.387C211.438 250.011 221.616 273.748 225.282 284.823C226.232 287.707 226.752 289.735 226.544 290.29C225.505 293.04 234.468 327.458 234.468 327.458C234.468 327.458 238.622 344.058 242.776 363.515C242.958 364.325 243.129 365.134 243.296 365.953C244.038 369.486 244.776 373.086 245.487 376.681C246.865 384.09 247.576 391.607 247.611 399.142C247.687 401.49 247.703 403.778 247.658 406.005Z" fill="#FF748E"/>
<path opacity="0.1" d="M156.333 211.52C156.333 211.52 146.898 207.889 147.012 213.398C147.126 218.907 149.312 221.542 148.622 222.346C147.931 223.15 148.964 227.969 148.964 227.969C148.964 227.969 161.712 227.969 167.57 230.605C173.427 233.24 195.019 238.521 197.776 240.129C200.533 241.737 210.758 248.947 210.758 248.947L211.677 235.294C211.677 235.294 201.11 226.574 183.771 222.103C166.433 217.631 156.333 211.52 156.333 211.52Z" fill="black"/>
<path d="M156.333 210.83C156.333 210.83 146.898 207.199 147.012 212.708C147.126 218.217 149.312 220.852 148.622 221.656C147.931 222.46 148.964 227.279 148.964 227.279C148.964 227.279 161.712 227.28 167.57 229.92C173.427 232.56 195.019 237.836 197.776 239.439C200.533 241.042 210.758 248.257 210.758 248.257L211.687 234.646C211.687 234.646 201.12 225.926 183.782 221.454C166.443 216.983 156.333 210.83 156.333 210.83Z" fill="#FF748E"/>
<path opacity="0.1" d="M184.815 243.687C184.815 243.687 202.844 263.186 201.925 268.586C201.006 273.987 184.815 243.687 184.815 243.687Z" fill="black"/>
<path opacity="0.1" d="M155.528 314.126C155.528 314.126 142.312 326.291 138.418 326.981C134.523 327.671 141.404 329.964 145.88 328.132C150.356 326.301 159.9 321.482 159.9 321.482L155.528 314.126Z" fill="black"/>
<path d="M253.027 406.005H222.208C217.898 402.27 213.822 398.81 211.225 396.73C207.071 393.4 204.075 388.498 202.164 384.555C201.733 383.658 201.359 382.818 201.042 382.055C200.475 380.742 199.976 379.4 199.547 378.035L222.369 364.496C223.63 365.567 224.815 366.725 225.916 367.961L226.191 368.277C227.458 369.771 228.574 371.468 228.673 372.858C228.787 374.476 233.295 380.737 237.901 386.75C242.574 392.866 247.362 398.712 247.678 399.106C247.678 399.106 248.468 400.18 249.756 401.829C250.664 403.022 251.786 404.454 253.027 406.005Z" fill="#FFCCD0"/>
<path opacity="0.1" d="M211.173 143.192C210.078 145.661 209.096 148.224 208.951 150.973C208.541 158.91 209.205 176.656 200.409 180.64C196.052 182.601 191.389 178.295 186.612 178.191C183.174 178.119 180.022 180.297 177.924 183.021C175.826 185.744 174.523 188.976 173.002 192.057C171.617 194.854 170.021 197.542 168.229 200.098C167.694 200.88 167.104 201.624 166.464 202.323C161.1 200.062 156.324 196.608 152.499 192.223C148.674 187.839 145.901 182.64 144.392 177.024C142.883 171.407 142.677 165.52 143.79 159.811C144.904 154.103 147.307 148.724 150.817 144.084C154.326 139.443 158.85 135.665 164.043 133.036C169.236 130.407 174.961 128.996 180.782 128.912C186.603 128.829 192.367 130.073 197.633 132.551C202.9 135.03 207.531 138.676 211.173 143.213V143.192Z" fill="black"/>
<path d="M208.26 149.573C207.845 157.509 208.515 175.255 199.713 179.234C195.356 181.195 190.693 176.895 185.916 176.791C182.478 176.713 179.332 178.897 177.229 181.615C175.125 184.333 173.832 187.57 172.306 190.657C170.92 193.453 169.325 196.141 167.534 198.697C166.464 200.212 165.28 201.732 163.634 202.582C160.768 204.076 157.294 203.236 154.219 202.276C150.231 201.021 146.302 199.607 142.432 198.033C142.521 197.449 142.566 196.86 142.567 196.269C142.453 196.487 142.328 196.69 142.203 196.907L141.959 197.333C141.518 198.111 141.087 198.889 140.692 199.688C140.542 199.994 140.396 200.31 140.267 200.627C139.744 201.804 139.416 203.059 139.295 204.341C139.031 207.801 140.739 211.085 142.255 214.197C148.087 226.237 151.691 240.315 147.303 252.947C145.402 258.44 142.11 263.321 139.706 268.628C135.503 278.027 134.266 288.482 136.159 298.601C137.359 304.888 139.763 311.113 139.171 317.488C138.132 328.459 128.661 336.624 119.174 342.237C114.048 345.256 107.775 347.943 102.333 345.557C105.802 341.511 106.695 335.913 107.443 330.633C109.489 316.229 111.54 301.819 113.597 287.401C114.417 281.664 115.236 275.927 116.053 270.189C117.579 259.41 119.127 248.511 118.171 237.665C117.476 229.671 115.513 221.184 118.981 213.948C120.814 210.114 124.081 206.94 125.099 202.811C125.935 199.454 125.156 195.886 125.706 192.467C126.007 190.912 126.517 189.404 127.222 187.985C128.12 186.06 129.292 184.274 130.701 182.684C129.31 182.279 128.012 181.724 127.222 180.562C129.455 179.11 129.793 175.836 128.78 173.378C127.768 170.919 125.742 169.046 123.92 167.106C122.097 165.166 120.342 162.904 120.113 160.259C119.672 155.222 124.709 151.321 125.597 146.351C126.495 141.294 122.944 136.376 123.229 131.256C123.561 125.068 129.253 120.57 134.871 117.961C143.35 114.04 152.716 112.429 162.019 113.292C169.59 114.008 176.917 116.348 184.467 117.255C189.021 117.774 193.638 117.826 198.16 118.625C202.683 119.424 207.217 121.11 210.4 124.424C218.791 133.165 208.738 140.36 208.26 149.573Z" fill="#FFE0D0"/>
<path opacity="0.1" d="M201.24 384.561C198.591 383.414 193.773 384.099 185.501 381.583C177.229 379.067 175.634 367.696 175.634 367.696V367.66C175.536 367.401 174.767 365.71 169.564 359.786C163.816 353.244 151.389 320.206 151.389 320.206C151.389 320.206 140.37 308.384 140.718 304.027C141.066 299.669 138.761 288.075 138.989 275.107C139.218 262.139 163.795 253.538 163.795 253.538C211.116 245.16 199.973 299.659 198.711 303.788C197.449 307.917 203.997 319.07 203.997 319.07C203.073 323.925 207.788 331.442 207.788 331.442C207.788 331.442 208.93 338.092 209.164 340.618C209.177 340.735 209.203 340.85 209.242 340.961C210 343.342 216.179 345.5 218.693 346.812C221.336 348.192 229.836 360.237 229.836 360.237C231.669 369.081 203.878 385.723 201.24 384.561Z" fill="black"/>
<path d="M202.616 382.486C199.973 381.334 195.149 382.024 186.882 379.503C178.615 376.982 177.016 365.622 177.016 365.622V365.585C176.922 365.321 176.149 363.635 170.945 357.711C165.197 351.17 152.771 318.126 152.771 318.126C152.771 318.126 141.752 306.309 142.095 301.952C142.437 297.594 140.142 286.001 140.371 273.042C140.599 260.084 165.161 251.489 165.161 251.489C212.482 243.111 201.339 297.61 200.077 301.739C198.815 305.868 205.363 317.021 205.363 317.021C204.439 321.876 209.154 329.393 209.154 329.393C209.154 329.393 210.296 336.043 210.535 338.569C210.544 338.686 210.568 338.801 210.608 338.912C211.366 341.293 217.545 343.451 220.064 344.763C222.702 346.138 231.207 358.188 231.207 358.188C233.051 367.017 205.259 383.658 202.616 382.486Z" fill="#FF748E"/>
<path opacity="0.1" d="M166.095 279.942C166.095 279.942 186.768 301.729 192.163 301.729C197.558 301.729 166.095 279.942 166.095 279.942Z" fill="black"/>
<path d="M202.616 382.486C199.973 381.334 195.149 382.024 186.882 379.503C178.615 376.982 177.016 365.621 177.016 365.621V365.585C182.494 361.954 196.369 351.699 201.837 347.948C205.685 345.318 208.826 341.454 210.665 338.891C211.423 341.272 217.602 343.43 220.121 344.742C222.759 346.117 231.264 358.167 231.264 358.167C233.051 367.017 205.259 383.658 202.616 382.486Z" fill="#FF748E"/>
<g opacity="0.1">
<path opacity="0.1" d="M127.253 180.619C127.279 180.661 127.316 180.697 127.347 180.738C127.503 180.541 127.664 180.344 127.83 180.157C127.653 180.329 127.46 180.484 127.253 180.619V180.619Z" fill="black"/>
<path opacity="0.1" d="M139.301 204.398C139.519 201.519 141.061 198.982 142.505 196.451C141.559 196.088 140.614 195.72 139.68 195.336C139.769 194.754 139.814 194.166 139.815 193.577C138.356 196.171 136.767 198.723 136.543 201.644C136.278 205.109 137.987 208.387 139.503 211.5C145.34 223.534 148.938 237.613 144.551 250.249C142.645 255.737 139.358 260.624 136.954 265.931C132.752 275.328 131.517 285.782 133.412 295.898C134.601 302.19 137.011 308.41 136.419 314.785C135.38 325.757 125.914 333.922 116.421 339.529C112.542 341.822 108.009 343.923 103.673 343.772C103.272 344.418 102.824 345.033 102.333 345.614C107.781 348.016 114.048 345.313 119.174 342.284C128.671 336.681 138.158 328.537 139.197 317.545C139.789 311.17 137.379 304.95 136.185 298.658C134.289 288.542 135.521 278.09 139.716 268.69C142.105 263.389 145.428 258.497 147.313 253.009C151.701 240.372 148.097 226.294 142.266 214.259C140.755 211.126 139.036 207.863 139.301 204.398Z" fill="black"/>
<path opacity="0.1" d="M210.389 124.487C209.879 123.963 209.33 123.478 208.748 123.034C215.042 131.189 205.955 138.119 205.503 146.896C205.098 154.833 205.763 172.584 196.961 176.557C192.609 178.523 187.941 174.218 183.169 174.114C179.726 174.041 176.579 176.225 174.476 178.944C172.373 181.662 171.08 184.899 169.559 187.98C168.171 190.776 166.574 193.464 164.781 196.02C163.743 197.54 162.528 199.055 160.877 199.911C158.021 201.4 154.547 200.564 151.467 199.6C148.473 198.659 145.506 197.622 142.567 196.487C142.561 197.028 142.516 197.567 142.432 198.1C146.306 199.677 150.237 201.092 154.225 202.344C157.299 203.309 160.773 204.144 163.634 202.655C165.28 201.799 166.474 200.279 167.539 198.759C169.332 196.206 170.928 193.52 172.311 190.724C173.838 187.643 175.125 184.401 177.234 181.682C179.342 178.964 182.484 176.786 185.921 176.858C190.698 176.962 195.367 181.267 199.718 179.301C208.52 175.328 207.85 157.577 208.26 149.64C208.738 140.412 218.791 133.222 210.389 124.487Z" fill="black"/>
</g>
<path opacity="0.1" d="M141.965 197.338C141.523 198.116 141.092 198.894 140.698 199.693C140.547 199.999 140.402 200.316 140.272 200.632C137.551 197.893 130.925 191.383 127.228 189.365C128.126 187.44 129.298 185.655 130.707 184.064C130.707 184.064 139.519 188.717 141.965 197.338Z" fill="black"/>
<path d="M142.209 196.913C140.168 187.684 130.707 182.689 130.707 182.689C129.297 184.279 128.125 186.065 127.228 187.99C131.127 190.122 138.314 197.271 140.698 199.693L142.209 196.913Z" fill="#FF748E"/>
</g>
<defs>
<linearGradient id="paint0_linear" x1="379.086" y1="49.4927" x2="379.086" y2="39.9583" gradientUnits="userSpaceOnUse">
<stop stop-color="#808080" stop-opacity="0.25"/>
<stop offset="0.54" stop-color="#808080" stop-opacity="0.12"/>
<stop offset="1" stop-color="#808080" stop-opacity="0.1"/>
</linearGradient>
<linearGradient id="paint1_linear" x1="238229" y1="341591" x2="238229" y2="23816.4" gradientUnits="userSpaceOnUse">
<stop stop-color="#808080" stop-opacity="0.25"/>
<stop offset="0.54" stop-color="#808080" stop-opacity="0.12"/>
<stop offset="1" stop-color="#808080" stop-opacity="0.1"/>
</linearGradient>
<clipPath id="clip0">
<rect width="564" height="406" fill="white"/>
</clipPath>
</defs>
</svg>
