<svg xmlns="http://www.w3.org/2000/svg" xmlns:xlink="http://www.w3.org/1999/xlink" width="564" height="406" fill="none"><style><![CDATA[.B{opacity:.1}.C{fill:#000}.D{opacity:.25}.E{fill:#e8f5ff}.F{fill:#ff748e}.G{fill:#ffc1c7}.H{stroke:#535461}.I{stroke-width:2}.J{stroke-miterlimit:10}.K{fill:#575a89}.L{fill:#ffccd0}]]></style><g clip-path="url(#C)"><path d="M125.794 376.105s-28.56-21.57-33.955-49.005c-2.188-11.523-8.057-22.027-16.726-29.936a91.34 91.34 0 0 0-13.382-9.96" class="H I J"/><g fill="#6cc"><path d="M58.237 269.92c2.503 3.382 3.635 17.715 3.635 17.715s-13.382-5.266-15.9-8.643a7.61 7.61 0 0 1-1.416-5.657 7.62 7.62 0 0 1 3.003-5c1.625-1.203 3.662-1.712 5.663-1.415a7.63 7.63 0 0 1 5.006 3h0zm24 11.246c.26 4.197-6.58 16.843-6.58 16.843s-8.376-11.692-8.64-15.9a7.61 7.61 0 0 1 1.927-5.454c1.336-1.494 3.207-2.403 5.208-2.528a7.63 7.63 0 0 1 5.484 1.857 7.61 7.61 0 0 1 2.595 5.17h.005zm23.262 32.328c-1.9 3.755-14.192 11.225-14.192 11.225s-1.314-14.317.576-18.073a7.62 7.62 0 0 1 4.42-3.705 7.63 7.63 0 0 1 5.753.45c1.785.897 3.145 2.46 3.8 4.348a7.61 7.61 0 0 1-.347 5.755h0zm12.095 28.406c-1.23 4.02-12.1 13.456-12.1 13.456s-3.723-13.887-2.492-17.912c.6-1.932 1.927-3.55 3.712-4.498a7.63 7.63 0 0 1 5.809-.557 7.62 7.62 0 0 1 4.502 3.708c.95 1.783 1.15 3.87.558 5.803h0zM63.28 308.177c4.154.56 17.287-5.364 17.287-5.364s-11.08-9.17-15.256-9.732a7.63 7.63 0 0 0-5.64 1.494 7.61 7.61 0 0 0-1.435 10.674 7.63 7.63 0 0 0 5.045 2.928h0zm14.565 33.048c4.154-.7 14.888-10.28 14.888-10.28s-13.325-5.436-17.474-4.726a7.63 7.63 0 0 0-2.799 1.052 7.62 7.62 0 0 0-3.401 4.773 7.61 7.61 0 0 0 .999 5.774 7.62 7.62 0 0 0 2.068 2.158 7.64 7.64 0 0 0 5.73 1.25h-.01zM96.4 371.4c4.2 0 16.414-7.62 16.414-7.62s-12.208-7.6-16.42-7.6a7.63 7.63 0 0 0-5.39 2.231 7.61 7.61 0 0 0 0 10.769 7.63 7.63 0 0 0 5.39 2.231h.005z"/></g><path d="M403.243 189.552s17.603-31.15 44.138-40.125c11.143-3.696 20.785-10.902 27.48-20.536a90.87 90.87 0 0 0 8.096-14.592" class="H I J"/><g fill="#6cc"><use xlink:href="#D"/><use xlink:href="#E"/><use xlink:href="#F"/><use xlink:href="#G"/><use xlink:href="#H"/><use xlink:href="#I"/><use xlink:href="#J"/></g><g class="C"><use xlink:href="#D" class="D"/><use xlink:href="#E" class="D"/><use xlink:href="#F" class="D"/><use xlink:href="#G" class="D"/><use xlink:href="#H" class="D"/><use xlink:href="#I" class="D"/><use xlink:href="#J" class="D"/></g><path d="M404.255 188.934s3.46-35.606 24.053-54.54c8.687-7.9 14.58-18.38 16.793-29.9a90.78 90.78 0 0 0 1.501-16.599" class="H I J"/><g fill="#6cc"><path d="M459.512 75.88c-1.558 3.9-13.2 12.367-13.2 12.367s-2.503-14.156-.93-18.057a7.6 7.6 0 0 1 4.1-4.158c1.872-.788 3.96-.808 5.836-.05a7.62 7.62 0 0 1 4.162 4.086 7.61 7.61 0 0 1 .052 5.83v-.016zm2.964 26.3c-3.442 2.418-17.8 3.2-17.8 3.2s5.598-13.248 9.04-15.666a7.62 7.62 0 0 1 2.737-1.296 7.63 7.63 0 0 1 5.864.93c.865.54 1.613 1.246 2.2 2.08a7.64 7.64 0 0 1 1.217 2.77 7.61 7.61 0 0 1-1.103 5.827 7.62 7.62 0 0 1-2.145 2.137v.005zm-15.4 36.717c-4.196.353-17-6.224-17-6.224s11.528-8.6 15.723-8.964a7.63 7.63 0 0 1 5.559 1.771 7.61 7.61 0 0 1 .904 10.733c-1.305 1.543-3.17 2.505-5.185 2.674v.01zm-17.92 25.153c-4.076 1.037-17.806-3.252-17.806-3.252s9.902-10.432 13.98-11.5c1.957-.506 4.035-.216 5.778.808a7.61 7.61 0 0 1 3.514 4.652c.508 1.955.217 4.03-.808 5.772a7.62 7.62 0 0 1-4.657 3.511h0zm.363-63.88c1.703 3.843 13.616 11.93 13.616 11.93s2.025-14.234.322-18.077a7.62 7.62 0 0 0-4.233-3.888 7.63 7.63 0 0 0-5.748.172 7.62 7.62 0 0 0-3.992 4.135 7.61 7.61 0 0 0 .035 5.744v-.015zm-20.584 29.68c2.778 3.16 16.56 7.298 16.56 7.298s-2.327-14.187-5.105-17.346a7.61 7.61 0 0 0-2.359-1.853 7.64 7.64 0 0 0-2.892-.799 7.63 7.63 0 0 0-2.976.378 7.62 7.62 0 0 0-4.421 3.878c-.443.906-.702 1.892-.76 2.9a7.6 7.6 0 0 0 .42 2.968 7.63 7.63 0 0 0 1.534 2.577h0zm-16.04 31.602c2.2 3.58 15.085 9.986 15.085 9.986s.1-14.374-2.077-17.96c-1.1-1.655-2.78-2.82-4.714-3.252a7.63 7.63 0 0 0-5.65.946 7.61 7.61 0 0 0-2.618 10.279h-.026z"/></g><path d="M377.772 49.493l2.628-9.534-2.628 9.534z" fill="url(#A)"/><path d="M373.91 79.922c-.073-.124-.125-.25-.182-.363 0-.052-.052-.093-.072-.145a3.37 3.37 0 0 1-.348.14l-.7.24-.52.145a3.02 3.02 0 0 1-.462.119l.042.093.57-.13.052.643c.218 0 .42-.03.618-.03.093-.005.187-.005.28 0h1.04l-.317-.71zm105.413 167.62c-2.44-3.283-7.312-38.526-7.312-38.526s-9.58-25.06-6.968-35.062-7.135-35.6-7.135-35.6-6.44-2.796-6.787-6.946c0 0-26.29-8.3-27.52-14.525-.997-5.104-17.303-8.766-23.16-9.923-1.786-7.2-3.583-13.918-4.907-17.585-.36-1.14-.696-2.127-1.008-2.905-2.238-5.706-9.155-6.225-14.17-5.768a7.71 7.71 0 0 0-1.189-2.713 1.49 1.49 0 0 0-.472-.721c-.108-.092-.223-.175-.343-.25a1.64 1.64 0 0 0-.353-.446 2.52 2.52 0 0 0-.468-.332c-.12-.065-.245-.122-.373-.17a5.01 5.01 0 0 0-.93-.254 7.68 7.68 0 0 0-1.122-.145c.917-.4 1.734-.997 2.394-1.748.45-.527.784-1.142.982-1.805a5.32 5.32 0 0 0 .218-1.702c-.135.237-.29.46-.468.67.22-2.298-.997-4.632-1.692-6.92-.843-2.978-1-6.108-.457-9.156.695-4.596 2.42-9.244 3.588-13.923.003-.026.003-.052 0-.078a36.08 36.08 0 0 0 1.132-7.102c.202-4.84-1.04-9.67-3.033-14.078-1.77-3.906-4.382-7.75-8.38-9.337-2.97-1.198-6.3-1.006-9.497-1.203-7.177-.446-14.02-2.967-20.844-5.26S325.2-.342 318.02.057s-14.57 3.86-17.848 10.21c-1.038 1.982-1.636 4.186-2.877 6.048-2.326 3.512-6.49 5.27-9.965 7.693s-6.532 5.862-7.79 9.965a13.28 13.28 0 0 0-.28 6.821h0a12.28 12.28 0 0 0 .436 1.504c.493 1.37 1.262 2.626 2.26 3.688a11.02 11.02 0 0 0 2.565 1.987h0c1.19.66 2.466 1.155 3.79 1.473l-.146.482a22.11 22.11 0 0 0-.233.804 33.51 33.51 0 0 0-.468 1.94c-.005.047-.005.094 0 .14a42.35 42.35 0 0 0-.955 8.979 41.51 41.51 0 0 0 .218 4.274h0c2.077 21.05 19.473 37.655 40.966 38.734a44.48 44.48 0 0 0 2.233.057h1.038c.338.447.67.903.987 1.35s.607.903.882 1.35l-.752-.778-.753-.7c-.205.28-.432.542-.68.783-.49-.172-.992-.314-1.5-.425h0c-2.155-.477-5.437-.654-9.758.648-3.972 1.188-8.827 3.63-14.508 8.274l-27.683 16.6-14.976 9.098-5.395 13.176-8.568 33.594a8.25 8.25 0 0 0-.519.166 9.65 9.65 0 0 0-1.101-.063c-2.618-.006-5.137 1.002-7.027 2.812s-3.004 4.28-3.11 6.894c-8.973 10.893-9.482 21.787-7.374 26.788.19.468.43.915.717 1.333 1.38 1.992 3.962 7.127 6.58 12.6-.068.45-.11.83-.13 1.115-.005.093-.005.187 0 .28 0 0 1.558 23.504-3.635 30.243-1.137 1.468-.966 3.397 0 5.535 3.48 7.687 17.235 17.953 17.235 17.953s16.497-.088 25.688-1.09l-.067 2.74-.208 16.667-.343 9.508s-3.115 20.04-4.673 25.563c-.98 3.466.15 35.55 1.137 59.136h162.544c1.91-13.954-.784-56.35-.784-56.35s-2.56-10.96-2.654-20.516c-.005-.01-.008-.022-.008-.034s.003-.023.008-.033l.03-2.45 3.298-.114h.192s.052-.197.17-.52c.28-.8.663-1.563 1.137-2.267.904-1.333 2.316-2.64 4.44-2.728 1.174-.047 2.99-.996 5.042-2.397.014.003.028.003.042 0 5.52-3.73 12.815-10.613 14.586-11.744 2.436-1.556 14.1-11.93 14.1-11.93s1.74-2.2 3.593-4.85l.067-.093c2.306-3.32 4.757-7.29 4.155-8.54-1.04-2.24.695-7.6.695-7.6 5.416-9.903-.322-23.027-2.762-26.31zM378.9 87.988c.05.155.08.315.093.477l-.39-.52-.125-.166-.088-.124.197-.27v.036c.137.168.243.36.312.566h0zm-1.745-4.596c-.566.114-1.013.218-1.303.296-.37-.654-.722-1.307-1.04-1.97a15.07 15.07 0 0 1 2.342 1.676h0zm-.976.82c-.002-.01-.002-.02 0-.03l.04.03c.213.14.42.275.613.415a13.64 13.64 0 0 1 .483.368c-.104.182-.218.368-.332.52a24.01 24.01 0 0 1-.52-.846c-.104-.114-.197-.27-.285-.456zm-3.116-6.4a15.39 15.39 0 0 1 3.017 0h0c.14 0 .265.026.4.047a4.32 4.32 0 0 1 .825.213 6.02 6.02 0 0 1 1.096 2.91l-.28.04-.275.052-1.443.26-.52.11c-.7.15-1.1.265-1.106.27-.067-.14-.135-.27-.207-.405l-.338-.674c-.104-.223-.24-.477-.348-.71-.073-.124-.125-.25-.182-.363 0-.052-.052-.093-.072-.145a1.1 1.1 0 0 1-.078-.171c-.317-.643-.608-1.287-.888-1.92-.03-.062-.057-.13-.083-.192l.394-.026v.135l.1.57zM249.18 399.604c-.04-7.724-.602-16.08-2.16-23.924l-2.046-9.95-.52-2.438-1.6.213h-.145c-4.362-20.547-8.92-38.65-8.92-38.65s-9.056-34.543-8.007-37.297c.135-.358-.037-1.323-.42-2.74-2.19-7.854-11.34-29.496-14.54-36.893 0-.03-.026-.067-.036-.093l-1.007-2.32.893-13.114-.042-.036.042-.654s-7.904-6.473-21.3-11.147c-.52-.187-1.07-.37-1.615-.545.67-4.466 1.557-9.508 2.715-14.42.11-.493.23-.97.354-1.452.11-.483.233-.95.358-1.422a72.44 72.44 0 0 1 .628-2.272c.722-.228 1.433-.482 2.134-.752l.27-.104a38.31 38.31 0 0 0 20.059-17.928 38.25 38.25 0 0 0 3.309-26.683h0a38.07 38.07 0 0 0-6.688-14.084c-.24-.32-.494-.643-.748-.96a27.88 27.88 0 0 0-.847-.991c1.5-3.408 3.272-6.65 3.417-9.965.026-.42.026-.84 0-1.26v-.05c-.192-2.132-1.137-4.3-3.34-6.557-3.214-3.325-7.79-5.01-12.364-5.82s-9.238-.83-13.838-1.374c-7.63-.913-15.06-3.263-22.688-3.984a53.96 53.96 0 0 0-27.433 4.669c-5.675 2.593-11.424 7.127-11.767 13.347-.28 5.14 3.303 10.068 2.4 15.147-.898 5-5.987 8.917-5.54 13.964.17 1.97 1.184 3.735 2.45 5.307a45.71 45.71 0 0 0 1.376 1.556c1.848 1.956 3.884 3.834 4.917 6.298.042.103.083.207.12.31.877 2.433.483 5.51-1.688 6.904.012.01.02.022.026.037h0c.03.04.062.072.088.114.004-.01.004-.018 0-.026.77.91 1.807 1.557 2.966 1.846l.44.135a24.6 24.6 0 0 0-1.039 1.219l-.223.296a21.61 21.61 0 0 0-1.558 2.412c-.265.467-.52.934-.732 1.4-.712 1.423-1.227 2.936-1.532 4.497-.555 3.434.23 7.013-.613 10.375-1.038 4.15-4.325 7.335-6.18 11.19-3.5 7.262-1.52 15.785-.815 23.805.96 10.893-.597 21.834-2.15 32.654l-8.703 60.687c-.758 5.302-1.657 10.894-5.193 14.987h.037s0 .03-.037.04c1.062.464 2.19.754 3.344.86h0c4.617.462 9.508-1.77 13.662-4.207 3.3-1.9 6.406-4.084 9.31-6.53l-1.37 5.08c.002.017.002.035 0 .052h0c-5.862 22.305-15.292 63.198-15.292 63.198s-.857 1.78-1.97 4.43h146.436l-4.554-5.665-.504-.72zm-108.424-206.25c.036-.062.062-.12.098-.176v1.125c0 .073 0 0 0 0 0 .213-.046.426-.083.638v.047l.52.192.602.25a156.06 156.06 0 0 0 10.811 3.813c.374.12.753.233 1.132.342l.078.643.265 1.997v.052l.665 5.504s-9.534-3.63-9.415 1.883a2.92 2.92 0 0 0 0 .296 2.59 2.59 0 0 0 0 .394c.088 4.295 1.433 6.842 1.703 8.15a.36.36 0 0 1-.083.146 2.84 2.84 0 0 0-.228 1.603c-.01.928.064 1.854.218 2.77l-.83.518c-.208.13-.405.275-.608.42-1.273-4.415-2.94-8.706-4.98-12.824-1.428-2.936-3.033-5.996-3.017-9.218 0-.207 0-.42.026-.632a10.93 10.93 0 0 1 .529-2.745c.12-.337.25-.67.395-.996.34-.776.72-1.534 1.137-2.272l.83-1.457c.088-.146.17-.296.254-.44l-.02-.02zM373.91 79.922c-.073-.124-.125-.25-.182-.363 0-.052-.052-.093-.072-.145a3.37 3.37 0 0 1-.348.14 7.98 7.98 0 0 1-.701.239c-.24.067-.338.104-.52.145l-.462.12.042.093c.192-.04.38-.078.57-.13l.052.643c.218 0 .42-.03.618-.03h1.32c-.11-.233-.223-.477-.317-.71z" fill="url(#B)"/><path d="M260.447 156.114l-3.115 1.375s-20.31 78.817-20.31 85.187 43.063 41.815 43.063 41.815l6.72-45.306s-9.648-103.898-26.36-83.07z" class="E"/><path d="M354.91 131.043l-17.993-9.378a35.98 35.98 0 0 0-5.276-12.009c-2.633-3.797-6.132-7.527-10.494-9.472-11.025-4.94 46.63-30.86 46.63-30.86.908 3.114 1.977 6.18 3.203 9.182 2.97 7.325 7.9 16.797 14.25 19.494 10.796 4.59-30.32 33.043-30.32 33.043z" class="G"/><path d="M370.98 78.506a42.93 42.93 0 0 1-14.645 21.907 43.01 43.01 0 0 1-24.695 9.243c-2.633-3.797-6.132-7.527-10.494-9.472-11.025-4.94 46.63-30.86 46.63-30.86.91 3.114 1.978 6.18 3.204 9.182h0z" class="B C"/><path d="M372.6 65.418a42.88 42.88 0 0 1-7.235 23.846c-4.72 7.06-11.428 12.56-19.278 15.8a43 43 0 0 1-24.823 2.446c-8.334-1.655-16-5.742-21.998-11.744a42.9 42.9 0 0 1-11.759-21.974c-1.658-8.325-.807-16.955 2.445-24.797s8.76-14.545 15.824-19.26 15.373-7.232 23.87-7.23c5.648-.026 11.245 1.066 16.468 3.213a42.77 42.77 0 0 1 13.962 9.295c3.994 3.99 7.157 8.73 9.306 13.947a42.66 42.66 0 0 1 3.218 16.45h0z" class="G"/><path d="M378.8 125.534l-11.715 27.307-10.334 18.124h-33.078l-9.648-24.78 3.91-25.698H343.2l16.31-.918 5.51-1.836 13.782 7.8z" class="K"/><g class="C"><path d="M374.766 89.135s7.306 1.556.763 6.915-29.115 22.4-29.115 22.4 7.93 7.055 6.288 15.32l26.27-14.63 4.674-23.405s.524-7.034-8.88-6.598z" class="B"/><path d="M351.58 118.448l-16.7 2.755s3.448 12.735 1.724 16.35c-.052.112-.096.228-.13.347l-6.818 18.4 5.1 14.457 17.686-24.095-6.03-9.12s6.372-8.435 10.163-11.36-4.996-7.745-4.996-7.745z" class="B"/></g><path d="M351.58 117.738l-16.7 2.75s3.448 12.735 1.724 16.35c-.052.112-.096.228-.13.347l-6.818 18.4 5.1 14.457 17.686-24.1-6.03-9.12s6.372-8.435 10.163-11.36-4.996-7.724-4.996-7.724z" fill="#dce6f2"/><path d="M375.467 87.76s7.306 1.556.758 6.915l-29.81 23.773s8.614 5.68 6.98 13.94l26.27-14.623 4.673-23.406s.52-7.034-8.87-6.598z" class="K"/><path d="M332.788 111.28s1.594 2.977 8.63 8.346c0 0-11.715 6.225-7.233 14.976l-17.92-4.67-2.757-8.606 19.28-10.047z" class="B C"/><path d="M332.097 110.595s1.594 2.977 8.63 8.346c0 0-11.714 6.194-7.233 14.97l-17.915-4.67-2.757-8.6 19.275-10.048z" class="K"/><path d="M378.8 125.534l-11.715 27.307-10.313 18.124h-33.1l-9.648-24.78 3.905-25.698h7.026c-.114 5.997 2.077 13.04 1.937 15.66-.24 4.305 6.43 27.534 6.43 27.534s13.953-22.544 19.462-24.552c3.464-1.26 10.8-11.75 15.78-19.385l10.235 5.79z" class="B C"/><path d="M424.95 269.23l-1.2 1.494s8.615 43.195 6.232 53.004a27.83 27.83 0 0 0-.691 5.385v.078c-.42 9.98 2.596 22.933 2.596 22.933s2.4 38.18 1.04 53.88H271.638c-.945-23.218-1.963-53.3-1.04-56.636 1.558-5.503 4.674-25.47 4.674-25.47l.342-9.46.28-19.334.55-13.653c.327-5.364.784-9.882 1.413-12.102.387-1.683.61-3.4.664-5.125 0-.16 0-.327.032-.493 0-.52.052-1.08.072-1.655v-.518c.1-3.34.063-7.304-.046-11.413v-.68l-.364-9.213-1.04-17.232-19.8-65.57 5.338-13.134 14.815-9.068 27.392-16.52c13.36-10.972 22.157-9.654 25.512-8.45a8.8 8.8 0 0 1 .955.389 4.36 4.36 0 0 1 .265.14c.107.05.21.1.307.177h0a6.32 6.32 0 0 0-2.327 1.914c-.687.93-1.176 1.988-1.438 3.112-.176.697-.3 1.407-.37 2.122-.067.752-.093 1.53-.093 2.314.037 1.717.184 3.43.44 5.13v.114a80.1 80.1 0 0 0 .592 3.517c-.002.02-.002.038 0 .057l.64 3.543.083.52c.114.685.168 1.38.16 2.075.058 1.678.284 3.346.675 4.98l.462 2.178.763 3.32.67 2.718.104.4 3.043 11.412.71 2.516s7.82-12.63 14.062-19.82l.265-.295c.618-.71 1.226-1.36 1.807-1.93 1.273-1.266 2.415-2.168 3.334-2.5a3.69 3.69 0 0 0 .566-.265c2.555-1.447 6.678-6.702 10.536-12.206.38-.518.748-1.084 1.122-1.618l2.472-3.662 1.724-2.63 4.424-7.045 4.232-.192h.42l16.363-.757a66.85 66.85 0 0 0 1.869.353c.063 0 .125 0 .192.04 5.806 1.152 21.935 4.798 22.92 9.856 1.205 6.194 27.22 14.457 27.22 14.457.342 4.15 6.714 6.884 6.714 6.884s9.648 25.47 7.067 35.45c-2.55 9.856 6.636 34.237 6.88 34.922l-1.76 2.22-43.55 55.033z" class="E"/><path d="M374.76 87.324s15.926-4.513 19.545 4.778 11.715 46.81 11.715 46.81-21.02 3.958-26.53 0c-3.23-2.35-7.23-3.394-11.2-2.926l-11.887 8.087-3.5-1.037s19.016-28.24 23.15-37.837 5.53-13.887-1.282-17.876z" class="B C"/><path d="M374.07 85.25s15.937-4.513 19.572 4.777 11.714 46.81 11.714 46.81-21.015 3.958-26.53 0c-3.23-2.35-7.228-3.394-11.196-2.926L355.734 142l-3.5-1.037s19.016-28.24 23.15-37.837 5.5-13.876-1.303-17.876z" class="E"/><g class="C"><path d="M267.167 234.93s11.886 2.926 14.13 9.638-8.786 6.884-8.786 6.884-6.72-11.874-5.343-16.522zm44.273 49.56s-29.1 59.546-22.4 65.226 22.4-65.226 22.4-65.226zm40.14-43.88s23.258 57.84 18.606 66.772 10 0 10 0L351.58 240.6z" class="B"/></g><path d="M383.967 297.745s-78.555 3.787-55.64 28.224 69.94 1.038 69.94 1.038l-14.3-29.262z" class="G"/><path d="M372.6 65.418c.008 5.628-1.1 11.203-3.255 16.402-.722.083-1.444.135-2.14.166-1.038-2.277-.483-4.907-.462-7.413s-.903-5.452-3.318-6.126c-4.814-1.354-8.137 7.636-12.883 6.012-3.635-1.235-2.685-6.744-4.778-9.923-1.656-2.516-4.974-3.227-7.555-4.804-5.49-3.367-5.323-8.75-7.872-13.845-2.67-5.338-8.31-3.76-13.205-.612-3.718 2.397-6.928 5.608-10.905 7.517-3.443 1.66-7.312 2.262-11.128 2.35-2.35.09-4.7-.157-6.98-.737 2.68-10.067 8.934-18.816 17.596-24.616s19.14-8.255 29.48-6.907a42.97 42.97 0 0 1 26.717 14.233c6.882 7.826 10.68 17.886 10.683 28.303h.005z" class="B C"/><path d="M317.147 43.9c-3.723 2.397-6.927 5.602-10.905 7.522-3.443 1.655-7.31 2.256-11.128 2.345-4.673.104-9.705-.716-12.9-4.088-2.934-3.112-3.635-7.9-2.394-11.983s4.217-7.47 7.712-9.923 7.55-4.15 9.866-7.662c1.225-1.857 1.817-4.046 2.835-6.023C303.5 7.766 310.812 4.342 317.9 3.916s14.093 1.68 20.833 3.963 13.532 4.793 20.646 5.265c3.168.197 6.46 0 9.4 1.198 3.952 1.603 6.543 5.436 8.308 9.337 1.98 4.4 3.2 9.202 3.002 14.006-.436 10.255-7.218 20.32-4.237 30.144.79 2.62 2.27 5.307 1.48 7.926-1.153 3.823-6.092 4.695-10.085 4.876-1.038-2.277-.483-4.912-.462-7.413s-.903-5.452-3.313-6.126c-4.82-1.344-8.142 7.63-12.878 6.012-3.61-1.24-2.674-6.743-4.772-9.923-1.657-2.52-4.98-3.227-7.555-4.803-5.49-3.367-5.323-8.75-7.873-13.845-2.7-5.364-8.334-3.787-13.236-.633z" fill="#99607e"/><path d="M240.975 241.296l-3.962 1.38s1.558 23.405-3.635 30.117 17.053 23.4 17.053 23.4 30.492-.17 31.354-2.594-1.558-43.366-1.558-43.366-16.368-6.37-14.992-16.522c0 0-4.995 23.92-12.4 22.886s-15.812-7.2-11.86-15.302z" class="E"/><path d="M254.2 263.84c5.773 0 10.453-4.276 10.453-9.55s-4.68-9.55-10.453-9.55-10.453 4.276-10.453 9.55 4.68 9.55 10.453 9.55z" class="B C"/><path d="M265.62 241.986s-2.077-63.328-20.158-49.218-18.258 30.984-14.815 35.97 14.483 29.942 14.483 29.942c1.727 1 3.666 1.576 5.66 1.683a12.64 12.64 0 0 0 5.807-1.07c1.824-.81 3.43-2.04 4.686-3.59s2.127-3.374 2.542-5.324l1.796-8.393z" class="G"/><path d="M378.41 81.577a1.52 1.52 0 0 0-.467-.716c-.893-.814-2.815-1.1-5.712-.85l.12 1.37c3.864-.332 4.627.436 4.726.565v.13l.12.17c.482.647.823 1.387 1.002 2.173a5.79 5.79 0 0 1 .037 2.392c-.847 4.228-6.045 7.594-6.097 7.63l-.124.073-.078.12c-2.244 3.325-14.93 12.71-18.248 15.137l-.3-.332c-1.486 1.286-14.54 12.704-15.246 17.077-.457 2.744-3.552 3.807-4.674 4.103-1.184-.897-5.026-3.953-7.026-7.376-1.874-3.222 5.67-9.51 6.336-11.963l-1.04-1.063c-.11.394-9.8 9.44-7.104 14.063 2.16 3.71 6.107 6.884 7.488 7.932-.44 4.004-3.188 27.52-7.4 33.1-5.244 6.925-9.653 41.826-9.165 54.01.43 10.826-2.4 31.274-11.85 40.057-1.636 1.587-3.6 2.784-5.774 3.503s-4.463.94-6.725.647h-.228c-.135 0-13.844 1.4-25.362-8.3-9.424-7.92-14.763-20.848-15.874-38.434h-.228l-.094-5.12a10 10 0 0 0 6.421-3.829c1.564-2.058 2.268-4.64 1.965-7.207s-1.6-4.915-3.6-6.553-4.558-2.438-7.136-2.232a10 10 0 0 0-6.689 3.339 9.98 9.98 0 0 0 .59 13.842c1.872 1.783 4.363 2.772 6.95 2.76h.114l.094 5.09-.457.03c1.142 18.156 6.75 31.586 16.616 39.88 7.5 6.208 17.078 9.34 26.8 8.762.7.075 1.383.113 2.077.114 4.457.023 8.744-1.7 11.944-4.798 9.954-9.26 12.98-30.46 12.51-41.655-.52-12.91 4.107-46.557 8.75-52.683 4.55-6.012 7.306-29.438 7.79-33.977 1.646-.462 5.37-1.92 6.003-5.706.457-2.74 9.175-11.18 14.54-15.853l-.16-.187c2.888-2.106 11.866-8.746 16.316-13 1.38-1.323 2.752-2.645 4.185-3.906 1.724-1.525 3.916-3.948 4.492-6.81a7.06 7.06 0 0 0 .003-2.866 7.08 7.08 0 0 0-1.135-2.632h0z" class="B C"/><path d="M331.957 131.884c-.218-.15-5.4-3.85-7.98-8.3-2.7-4.622 7-13.664 7.103-14.058l1.04 1.064c-.66 2.448-8.205 8.74-6.33 11.956 2.362 4.062 7.337 7.616 7.39 7.652l-1.22 1.686z" fill="#353146"/><g class="E"><path d="M353.013 110.776l-.8-1.115c.167-.12 16.477-11.905 19.047-15.718l.083-.114.12-.078c.052-.036 5.25-3.398 6.096-7.63.156-.8.145-1.605-.034-2.4a5.75 5.75 0 0 0-1.004-2.17l-.12-.176v-.124c-.104-.135-.867-.897-4.73-.566l-.12-1.375c2.903-.25 4.82.036 5.712.85.223.2.386.44.473.72a7.09 7.09 0 0 1 1.157 2.63c.202.947.207 1.924.016 2.873-.576 2.87-2.762 5.3-4.5 6.8-1.428 1.26-2.805 2.594-4.18 3.906-5.218 4.995-16.642 13.254-17.214 13.663zm-104.26 99.084l-1.376.025.154 8.355 1.376-.025-.154-8.355z"/></g><path d="M247.263 211.126c5.55 0 10.048-4.494 10.048-10.038s-4.5-10.037-10.048-10.037-10.048 4.494-10.048 10.037 4.5 10.038 10.048 10.038z" fill="#6cc"/><path d="M247.263 209.425c4.61 0 8.345-3.733 8.345-8.337s-3.736-8.336-8.345-8.336-8.345 3.733-8.345 8.336 3.737 8.337 8.345 8.337z" class="E"/><path d="M292.523 264.992a19.47 19.47 0 0 1-2.077-.109 38.51 38.51 0 0 1-26.8-8.762c-9.866-8.3-15.464-21.714-16.616-39.885l2.077-.13c1.11 17.585 6.45 30.517 15.88 38.433 11.518 9.675 25.22 8.3 25.356 8.3h.23a15.19 15.19 0 0 0 6.726-.649c2.165-.718 4.14-1.915 5.778-3.5 9.446-8.782 12.276-29.23 11.845-40.057-.52-12.195 3.89-47.096 9.14-54.016 4.595-6.064 7.446-33.396 7.477-33.67l.078-.778.77-.135c.047 0 4.533-.85 5.094-4.202.727-4.368 13.76-15.785 15.24-17.077l1.355 1.556c-5.385 4.67-14.104 13.114-14.54 15.858-.633 3.797-4.357 5.25-5.997 5.706-.52 4.544-3.256 27.965-7.8 33.978-4.642 6.126-9.27 39.77-8.75 52.683.446 11.194-2.55 32.4-12.504 41.654a17.05 17.05 0 0 1-11.97 4.804z" fill="#353146"/><g class="B C"><path d="M377.025 53.155l2.596-9.493-2.596 9.493zm-8.688 24.702c-1.038-2.277-.483-4.912-.462-7.413s-.903-5.426-3.313-6.126c-4.82-1.344-8.142 7.636-12.878 6.012-3.635-1.24-2.674-6.744-4.772-9.923-1.657-2.52-4.975-3.227-7.55-4.803-5.494-3.367-5.328-8.75-7.873-13.845-2.674-5.343-8.308-3.766-13.2-.612-3.723 2.397-6.927 5.608-10.905 7.522-3.442 1.655-7.3 2.256-11.128 2.345-4.647.1-9.705-.716-12.9-4.088-2.46-2.594-3.35-6.396-2.84-9.96-.088.244-.166.488-.244.73-1.246 4.083-.52 8.88 2.394 11.983 3.193 3.372 8.25 4.2 12.9 4.088 3.822-.088 7.685-.7 11.133-2.345 3.988-1.92 7.192-5.125 10.905-7.522 4.902-3.154 10.54-4.73 13.2.612 2.544 5.094 2.384 10.48 7.872 13.845 2.597 1.556 5.894 2.282 7.556 4.804 2.077 3.2 1.158 8.684 4.772 9.924 4.73 1.618 8.054-7.356 12.873-6.012 2.4.674 3.34 3.63 3.313 6.126s-.566 5.136.462 7.413c3.993-.182 8.93-1.038 10.1-4.876a5.56 5.56 0 0 0 .218-1.696c-1.687 2.9-6.028 3.657-9.622 3.818z" class="B"/></g><path d="M462.186 205.674l6.03 6.37s4.824 35.103 7.233 38.387 8.1 16.345 2.757 26.154c0 0-1.723 5.338-.7 7.574s-7.748 13.425-7.748 13.425-11.543 10.323-13.958 11.874-15.157 13.938-19.462 14.11-5.712 5.51-5.712 5.51l-24.292.862s-13.418-.7-16.336 1.193c0 0 1.557-20.48-13.434-33.905l19.12-6.884s7.238-3.112 9.476-6.365c1.408-1.994 3.406-3.497 5.712-4.3 0 0 5.34-3.787 5.5-5.85s6.527-4.596 6.527-4.596l-3.598-30.684 1.895-50.94s6.03-42.68 18.777-40.27 22.194 58.337 22.194 58.337z" class="B C"/><path d="M464.263 205.674l6.03 6.37s4.824 35.103 7.233 38.387 8.1 16.345 2.758 26.154c0 0-1.72 5.338-.686 7.574s-7.753 13.425-7.753 13.425-11.543 10.323-13.958 11.874-15.157 13.938-19.462 14.11-5.712 5.51-5.712 5.51l-24.292.862s-13.428-.7-16.336 1.193c0 0 1.558-20.48-13.434-33.905l19.12-6.884s7.24-3.112 9.477-6.365a11.7 11.7 0 0 1 5.712-4.3s5.338-3.787 5.51-5.85 6.527-4.596 6.527-4.596l-3.598-30.684 1.895-50.94s6.03-42.68 18.777-40.27 22.194 58.337 22.194 58.337z" class="E"/><g class="C"><path d="M441.85 257.133s17.744-4.67 22.396 1.037-22.396-1.037-22.396-1.037zm-4.132 7.827c6.028 4.217 24.634 4.388 24.634 4.388l-24.634-4.388zm9.128 21.082c.52.17 12.8 13.254 17.94 9.296s-17.94-9.296-17.94-9.296zM281.592 176.246s3.604 24.785 1.828 34.88 4.705 22.6 4.705 22.6l-6.533-57.48z" class="B"/></g><path d="M201.81 186.325c-4.154 3.253-7.187 10.95-9.383 19.41-3.833 14.758-5.084 31.872-5.084 31.872s-33.078-7.574-30.668-11.013c1.516-2.163-.52-18.462-2.218-30.28l-1.916-12.403s60.64-6.54 49.27 2.412z" class="L"/><path d="M201.81 185.635c-4.154 3.258-7.187 10.95-9.383 19.41a38.19 38.19 0 0 1-20.284.522 38.17 38.17 0 0 1-17.686-9.937l-1.916-12.408s60.64-6.536 49.27 2.412z" class="B C"/><path d="M219.59 167.096a38.2 38.2 0 0 1-9.011 24.652c-5.822 6.898-13.9 11.516-22.802 13.036s-18.057-.154-25.842-4.728-13.7-11.75-16.697-20.263a38.18 38.18 0 0 1 .32-26.242c3.204-8.436 9.293-15.467 17.188-19.85s17.087-5.833 25.95-4.096a38.27 38.27 0 0 1 22.476 13.587c5.447 6.78 8.416 15.21 8.418 23.904h0z" class="L"/><path d="M249.75 406.005h-10.904l-1.88-39.154 6.423-.918 1.594-.213h.13l2.534 12.336c1.366 7.358 2.077 14.822 2.124 22.305v1.525c.03 1.385 0 2.77-.02 4.12z" class="B C"/><path d="M247.658 406.005H110.9l.987-2.158L128.39 335.8a.45.45 0 0 0 0-.052c.694-2.748 1.533-5.458 2.513-8.118h0a2.79 2.79 0 0 1 .244-.519c2.752-4.47 6.2-9.3 1.376-16.174s-3.116-37.172-3.116-37.172 5.858-25.818 12.058-39.585a18.5 18.5 0 0 1 3.936-5.706 16.02 16.02 0 0 1 1.724-1.463h0c.462-.347.944-.668 1.444-.96l.098-.062a20.86 20.86 0 0 1 8.48-2.63 24.24 24.24 0 0 1 6.361.176c10.053 1.473 18.102 3.937 24.5 6.744 17.34 7.6 22.59 17.808 22.693 18.02l.04.088c.696 1.624 10.874 25.36 14.54 36.436.95 2.884 1.47 4.912 1.262 5.467-1.04 2.75 7.924 37.168 7.924 37.168s4.154 16.6 8.308 36.057l.52 2.438 2.19 10.728c1.378 7.41 2.09 14.926 2.124 22.46.076 2.348.092 4.636.047 6.863z" class="F"/><path d="M156.333 211.52s-9.435-3.63-9.32 1.878 2.3 8.144 1.6 8.948.342 5.623.342 5.623 12.748 0 18.606 2.636 27.45 7.916 30.206 9.524 12.982 8.818 12.982 8.818l.92-13.653s-10.567-8.72-27.906-13.19-27.438-10.583-27.438-10.583z" class="B C"/><path d="M156.333 210.83s-9.435-3.63-9.32 1.878 2.3 8.144 1.6 8.948.342 5.623.342 5.623 12.748.001 18.606 2.64 27.45 7.916 30.206 9.52 12.982 8.818 12.982 8.818l.93-13.61s-10.567-8.72-27.905-13.192-27.45-10.624-27.45-10.624z" class="F"/><g class="C"><path d="M184.815 243.687s18.03 19.5 17.1 24.9-17.1-24.9-17.1-24.9zm-29.287 70.44s-13.216 12.165-17.1 12.855 2.986 2.983 7.462 1.15 14.02-6.65 14.02-6.65l-4.372-7.356z" class="B"/></g><path d="M253.027 406.005h-30.82l-10.983-9.275c-4.154-3.33-7.15-8.232-9.06-12.175-.43-.897-.805-1.737-1.122-2.5-.567-1.313-1.066-2.655-1.495-4.02l22.822-13.54c1.26 1.07 2.446 2.23 3.547 3.465l.275.316c1.267 1.494 2.383 3.19 2.482 4.58.114 1.618 4.622 7.88 9.228 13.892 4.673 6.116 9.46 11.962 9.777 12.356 0 0 .8 1.074 2.078 2.723l3.27 4.176z" class="L"/><path d="M211.173 143.192c-1.095 2.47-2.077 5.032-2.222 7.78-.4 7.937.254 25.683-8.542 29.667-4.357 1.96-9.02-2.345-13.797-2.45-3.438-.072-6.6 2.106-8.688 4.83s-3.4 5.955-4.922 9.036a61.71 61.71 0 0 1-4.773 8.041c-.535.782-1.125 1.526-1.765 2.225a38.24 38.24 0 0 1-13.965-10.1c-3.825-4.384-6.598-9.583-8.107-15.2a38.18 38.18 0 0 1-.602-17.213c1.114-5.708 3.517-11.087 7.027-15.727s8.033-8.42 13.226-11.048 10.918-4.04 16.74-4.124 11.585 1.16 16.85 3.64 9.898 6.125 13.54 10.662v-.02z" class="B C"/><path d="M208.26 149.573c-.415 7.936.255 25.682-8.547 29.66-4.357 1.96-9.02-2.34-13.797-2.443-3.438-.078-6.584 2.106-8.687 4.824s-3.397 5.955-4.923 9.042a61.98 61.98 0 0 1-4.772 8.04c-1.07 1.515-2.254 3.035-3.9 3.885-2.866 1.494-6.34.654-9.415-.306a153.87 153.87 0 0 1-11.787-4.243c.09-.584.134-1.173.135-1.764-.114.218-.24.42-.364.638l-.244.426c-.44.778-.872 1.556-1.267 2.355-.15.306-.296.622-.425.94a11.9 11.9 0 0 0-.972 3.714c-.264 3.46 1.444 6.744 2.96 9.856 5.832 12.04 9.436 26.118 5.048 38.75-1.9 5.493-5.193 10.374-7.597 15.68a50.62 50.62 0 0 0-3.547 29.973c1.2 6.287 3.604 12.512 3.012 18.887-1.04 10.97-10.5 19.136-19.997 24.75-5.126 3.02-11.4 5.706-16.84 3.32 3.47-4.046 4.362-9.644 5.1-14.924l8.6-60.444c1.526-10.78 3.074-21.678 2.118-32.524-.695-7.994-2.658-16.48.8-23.717 1.833-3.834 5.1-7.008 6.118-11.137.836-3.357.057-6.925.607-10.344.3-1.555.81-3.063 1.516-4.482.898-1.925 2.07-3.71 3.48-5.3-1.39-.405-2.69-.96-3.48-2.122 2.233-1.452 2.57-4.726 1.558-7.184s-3.038-4.332-4.86-6.272-3.578-4.202-3.807-6.847c-.44-5.037 4.596-8.938 5.484-13.908.898-5.057-2.653-9.975-2.368-15.095.332-6.188 6.024-10.686 11.642-13.295 8.48-3.92 17.845-5.532 27.148-4.67 7.57.716 14.898 3.056 22.448 3.963 4.554.52 9.17.57 13.693 1.37s9.057 2.485 12.24 5.8c8.39 8.74-1.662 15.936-2.14 25.15z" fill="#ffe0d0"/><path d="M201.24 384.56c-2.65-1.147-7.467-.462-15.74-2.978s-9.867-13.887-9.867-13.887v-.036c-.098-.26-.867-1.95-6.07-7.874-5.748-6.542-18.175-39.58-18.175-39.58s-11.02-11.822-10.67-16.18-1.957-15.952-1.73-28.92 24.806-21.57 24.806-21.57c47.32-8.378 36.178 46.12 34.916 50.25s5.286 15.282 5.286 15.282c-.924 4.855 3.79 12.372 3.79 12.372s1.142 6.65 1.376 9.176a1.55 1.55 0 0 0 .078.343c.758 2.38 6.937 4.54 9.45 5.85 2.643 1.38 11.143 13.425 11.143 13.425 1.833 8.844-25.958 25.486-28.596 24.324z" class="B C"/><path d="M202.616 382.486c-2.643-1.152-7.467-.462-15.734-2.983s-9.866-13.88-9.866-13.88v-.037c-.094-.264-.867-1.95-6.07-7.874-5.748-6.54-18.174-39.585-18.174-39.585s-11.02-11.817-10.676-16.174-1.953-15.95-1.724-28.9 24.8-21.553 24.8-21.553c47.32-8.378 36.178 46.12 34.916 50.25s5.286 15.282 5.286 15.282c-.924 4.855 3.79 12.372 3.79 12.372s1.142 6.65 1.38 9.176c.01.117.033.232.073.343.758 2.38 6.937 4.54 9.456 5.85 2.638 1.375 11.143 13.425 11.143 13.425 1.844 8.83-25.948 25.47-28.59 24.298z" class="F"/><path d="M166.095 279.942s20.673 21.787 26.068 21.787-26.068-21.787-26.068-21.787z" class="B C"/><path d="M202.616 382.486c-2.643-1.152-7.467-.462-15.734-2.983s-9.866-13.882-9.866-13.882v-.036c5.478-3.63 19.353-13.886 24.82-17.637 3.848-2.63 6.99-6.494 8.828-9.057.758 2.38 6.937 4.54 9.456 5.85 2.638 1.375 11.143 13.425 11.143 13.425 1.787 8.85-26.005 25.49-28.648 24.32z" class="F"/><g class="B C"><path d="M127.253 180.62c.026.042.063.078.094.12l.483-.58a3.83 3.83 0 0 1-.577.462h0zm12.047 23.778c.218-2.88 1.76-5.416 3.204-7.947l-2.825-1.115a11.77 11.77 0 0 0 .135-1.759c-1.46 2.594-3.048 5.146-3.272 8.067-.265 3.465 1.444 6.743 2.96 9.856 5.837 12.034 9.435 26.113 5.048 38.75-1.906 5.488-5.193 10.375-7.597 15.682a50.59 50.59 0 0 0-3.542 29.967c1.2 6.292 3.6 12.512 3.007 18.887-1.04 10.972-10.505 19.137-19.998 24.744-3.88 2.293-8.412 4.394-12.748 4.243a15.6 15.6 0 0 1-1.34 1.842c5.448 2.402 11.715-.3 16.84-3.33 9.497-5.603 18.984-13.747 20.023-24.74.592-6.375-1.818-12.595-3.012-18.887a50.64 50.64 0 0 1 3.531-29.968c2.4-5.3 5.712-10.193 7.597-15.68 4.388-12.637.784-26.715-5.047-38.75-1.5-3.133-3.23-6.396-2.965-9.86zm71.1-79.91a14.9 14.9 0 0 0-1.641-1.453c6.294 8.155-2.793 15.085-3.245 23.862-.405 7.937.26 25.688-8.542 29.66-4.352 1.966-9.02-2.34-13.792-2.443-3.443-.073-6.6 2.1-8.693 4.83s-3.396 5.955-4.917 9.036c-1.388 2.796-2.985 5.484-4.778 8.04-1.038 1.52-2.253 3.035-3.904 3.9-2.856 1.5-6.33.653-9.4-.3-2.994-.94-5.96-1.978-8.9-3.113-.006.54-.05 1.08-.135 1.613a152.1 152.1 0 0 0 11.793 4.244c3.074.965 6.548 1.8 9.4.3 1.646-.856 2.84-2.376 3.905-3.896a61.17 61.17 0 0 0 4.772-8.035c1.527-3.08 2.814-6.323 4.923-9.042s5.25-4.896 8.687-4.824c4.777.104 9.446 4.4 13.797 2.443 8.802-3.973 8.132-21.724 8.542-29.66.478-9.228 10.53-16.418 2.13-25.153z" class="B"/></g><path d="M141.965 197.338l-1.267 2.355-.426.94c-2.72-2.74-9.347-9.25-13.044-11.267.898-1.925 2.07-3.7 3.48-5.3 0 0 8.812 4.653 11.258 13.274z" class="B C"/><path d="M142.21 196.913c-2.04-9.23-11.502-14.224-11.502-14.224a21.99 21.99 0 0 0-3.479 5.301c3.9 2.132 11.086 9.28 13.47 11.703l1.51-2.78z" class="F"/></g><defs><linearGradient id="A" x1="379.086" y1="49.493" x2="379.086" y2="39.958" gradientUnits="userSpaceOnUse"><stop stop-color="gray" stop-opacity=".25"/><stop offset=".54" stop-color="gray" stop-opacity=".12"/><stop offset="1" stop-color="gray" stop-opacity=".1"/></linearGradient><linearGradient id="B" x1="238229" y1="341591" x2="238229" y2="23816.4" gradientUnits="userSpaceOnUse"><stop stop-color="gray" stop-opacity=".25"/><stop offset=".54" stop-color="gray" stop-opacity=".12"/><stop offset="1" stop-color="gray" stop-opacity=".1"/></linearGradient><clipPath id="C"><path fill="#fff" d="M0 0h564v406H0z"/></clipPath><path id="D" d="M499.615 108.592c-3.022 2.926-17.09 5.956-17.09 5.956s3.453-13.954 6.475-16.885a7.63 7.63 0 0 1 10.682.257 7.61 7.61 0 0 1-.068 10.673z"/><path id="E" d="M491.66 133.82c-4.154.82-17.588-4.275-17.588-4.275s10.49-9.856 14.618-10.66c.99-.22 2.016-.24 3.015-.058a7.64 7.64 0 0 1 2.802 1.115 7.63 7.63 0 0 1 2.15 2.113c.568.84.963 1.786 1.16 2.78s.195 2.02-.01 3.013a7.61 7.61 0 0 1-1.178 2.774c-.574.837-1.31 1.55-2.163 2.1s-1.808.922-2.808 1.098h0z"/><path id="F" d="M462.705 161.146c-3.978-1.375-13.018-12.56-13.018-12.56s14.02-3.206 18.008-1.83c.958.317 1.844.822 2.605 1.484s1.384 1.47 1.83 2.373a7.61 7.61 0 0 1 .772 2.895c.063 1.007-.074 2.016-.405 2.968s-.847 1.83-1.52 2.583-1.488 1.363-2.4 1.797-1.9.684-2.908.733-2.017-.1-2.966-.443h0z"/><path id="G" d="M436.097 176.895c-4.154-.685-14.934-10.204-14.934-10.204s13.288-5.53 17.437-4.845a7.63 7.63 0 0 1 4.962 3.078 7.61 7.61 0 0 1 1.329 5.681c-.328 1.995-1.436 3.778-3.08 4.956s-3.7 1.656-5.687 1.328l-.026.006z"/><path id="H" d="M462.342 118.635c-.006 4.207 7.633 16.413 7.633 16.413s7.628-12.2 7.628-16.392c.027-1.016-.15-2.028-.522-2.975a7.63 7.63 0 0 0-1.638-2.538 7.62 7.62 0 0 0-2.497-1.702c-.938-.395-1.945-.6-2.963-.6a7.63 7.63 0 0 0-2.963.599 7.62 7.62 0 0 0-4.136 4.24c-.37.947-.548 1.96-.522 2.975l-.02-.02z"/><path id="I" d="M431.48 137.445c1.257 4.015 12.182 13.378 12.182 13.378s3.635-13.913 2.368-17.928a7.62 7.62 0 0 0-3.777-4.276 7.63 7.63 0 0 0-5.69-.457c-1.884.6-3.466 1.887-4.412 3.618a7.61 7.61 0 0 0-.661 5.665h-.01z"/><path id="J" d="M404.027 159.838c.56 4.15 9.742 15.236 9.742 15.236s5.925-13.098 5.364-17.264c-.112-1.01-.424-1.986-.918-2.873s-1.162-1.666-1.963-2.292-1.718-1.084-2.7-1.35a7.62 7.62 0 0 0-3.013-.198 7.63 7.63 0 0 0-2.853.985 7.64 7.64 0 0 0-2.247 2.015c-.606.815-1.044 1.742-1.287 2.728a7.61 7.61 0 0 0-.126 3.013h0z"/></defs></svg>