<svg xmlns="http://www.w3.org/2000/svg" xmlns:xlink="http://www.w3.org/1999/xlink" width="535" height="307" fill="none"><style><![CDATA[.B{fill:#3f3d56}.C{fill:#ff748e}.D{fill:#f2f2f2}]]></style><g clip-path="url(#A)"><path d="M115.92 272.5c15.366 0 27.823-12.44 27.823-27.787s-12.457-27.787-27.823-27.787-27.823 12.44-27.823 27.787S100.553 272.5 115.92 272.5z" class="D"/><path d="M120.444 268.443c15.366 0 27.823-12.44 27.823-27.786S135.8 212.87 120.444 212.87 92.62 225.3 92.62 240.657s12.457 27.786 27.823 27.786z" class="C"/><g class="B"><path d="M487.097 209.9H142.85v.938h344.246v-.938zM321.136 8.748H198.95V6.233h-55.404v2.515H20.857c-1.085 0-2.16.213-3.163.628a8.24 8.24 0 0 0-2.68 1.79 8.29 8.29 0 0 0-1.792 2.678 8.24 8.24 0 0 0-.63 3.16v167.092a8.25 8.25 0 0 0 2.421 5.837 8.27 8.27 0 0 0 5.844 2.418h300.28c2.192 0 4.295-.87 5.845-2.418s2.42-3.647 2.42-5.837V17.003c0-1.084-.213-2.157-.63-3.16a8.3 8.3 0 0 0-1.79-2.678 8.27 8.27 0 0 0-5.845-2.417h0z"/></g><g class="C"><path d="M318.32 23.336H23.673V189.33H318.32V23.336zM170.745 18.8a3.02 3.02 0 0 0 3.022-3.018 3.022 3.022 0 1 0-6.044 0 3.02 3.02 0 0 0 3.022 3.018z"/></g><path opacity=".1" d="M234.056 189.332H23.673V23.336l210.383 165.996z" fill="#000"/><path d="M69.776 176.9c15.642 0 28.322-12.664 28.322-28.286s-12.68-28.285-28.322-28.285-28.322 12.664-28.322 28.285S54.134 176.9 69.776 176.9z" class="D"/><g class="B"><path d="M267.017 112.86h-27.523v5.743h27.523v-5.743zm33.275-44.72H206.22v2.462h94.073V68.14zm0 7.795H206.22v2.462h94.073v-2.462zm0 7.795H206.22v2.462h94.073V83.73zm0 7.795H206.22v2.462h94.073v-2.462zm0 7.795H206.22v2.462h94.073V99.32z"/></g><path d="M300.292 26.704H288.8V38.19h11.502V26.704z" class="D"/><g class="B"><path d="M305.632 43.524h-13.967v-13.95h13.967v13.95zm-13.36-.606h12.752V30.182h-12.752v12.736zm45.402 143.395H308.92v-2.07c0-.054-.01-.107-.032-.157a.41.41 0 0 0-.089-.133c-.038-.038-.083-.068-.133-.1s-.103-.03-.157-.03h-9.86a.42.42 0 0 0-.291.12c-.038.038-.068.084-.1.133s-.03.103-.03.157v2.07h-6.162v-2.07a.42.42 0 0 0-.03-.157c-.02-.05-.05-.095-.1-.133a.42.42 0 0 0-.291-.12h-9.86a.42.42 0 0 0-.157.03c-.05.02-.095.05-.133.1s-.07.084-.1.133a.42.42 0 0 0-.032.157v2.07h-6.162v-2.07a.42.42 0 0 0-.03-.157c-.02-.05-.05-.095-.1-.133a.46.46 0 0 0-.133-.09c-.05-.022-.103-.03-.157-.03h-9.86c-.053 0-.107.01-.157.03s-.095.05-.133.1-.068.084-.1.133-.03.103-.03.157v2.07h-6.162v-2.07c0-.054-.01-.107-.032-.157a.4.4 0 0 0-.09-.133.46.46 0 0 0-.133-.09c-.05-.022-.103-.03-.157-.03h-9.86a.42.42 0 0 0-.291.12c-.038.038-.068.084-.1.133s-.03.103-.03.157v2.07h-6.162v-2.07a.42.42 0 0 0-.03-.157c-.02-.05-.05-.095-.1-.133s-.084-.068-.133-.1-.104-.03-.158-.03h-9.86a.42.42 0 0 0-.157.03c-.05.02-.095.05-.133.1a.41.41 0 0 0-.089.133c-.02.05-.032.103-.032.157v2.07H224.7v-2.07a.42.42 0 0 0-.03-.157.41.41 0 0 0-.089-.133c-.038-.038-.083-.068-.133-.1s-.103-.03-.157-.03h-9.86c-.054 0-.108.01-.158.03s-.095.05-.133.1-.068.084-.1.133-.03.103-.03.157v2.07h-6.162v-2.07a.42.42 0 0 0-.03-.157.41.41 0 0 0-.09-.133c-.038-.038-.083-.068-.133-.1s-.103-.03-.157-.03h-77.23a.42.42 0 0 0-.157.03c-.05.02-.095.05-.133.1a.41.41 0 0 0-.089.133.42.42 0 0 0-.03.157v2.07h-6.162v-2.07c0-.054-.01-.107-.032-.157a.41.41 0 0 0-.089-.133c-.038-.038-.083-.068-.133-.1s-.103-.03-.157-.03h-9.86a.42.42 0 0 0-.291.12c-.038.038-.068.084-.1.133s-.03.103-.03.157v2.07h-6.162v-2.07a.42.42 0 0 0-.03-.157c-.02-.05-.05-.095-.1-.133a.42.42 0 0 0-.291-.12h-9.86a.42.42 0 0 0-.157.03c-.05.02-.095.05-.133.1s-.068.084-.1.133a.41.41 0 0 0-.031.157v2.07H89.96v-2.07a.41.41 0 0 0-.031-.157c-.02-.05-.05-.095-.1-.133a.46.46 0 0 0-.133-.09c-.05-.022-.103-.03-.157-.03h-9.86a.42.42 0 0 0-.29.119c-.038.038-.068.084-.1.133a.41.41 0 0 0-.031.157v2.07h-6.162v-2.07a.41.41 0 0 0-.031-.157c-.02-.05-.05-.095-.1-.133a.46.46 0 0 0-.133-.09c-.05-.022-.103-.03-.157-.03h-9.86a.42.42 0 0 0-.29.119c-.038.038-.068.084-.1.133a.41.41 0 0 0-.031.157v2.07H56.28v-2.07a.41.41 0 0 0-.031-.157c-.02-.05-.05-.095-.1-.133a.42.42 0 0 0-.29-.119h-9.86a.42.42 0 0 0-.157.03c-.05.02-.095.05-.133.1s-.068.084-.1.133a.41.41 0 0 0-.031.157v2.07h-6.162v-2.07a.41.41 0 0 0-.031-.157c-.02-.05-.05-.095-.1-.133a.46.46 0 0 0-.133-.09c-.05-.022-.103-.03-.157-.03h-9.86a.42.42 0 0 0-.29.119c-.038.038-.068.084-.1.133a.41.41 0 0 0-.031.157v2.07H9.86a9.87 9.87 0 0 0-6.971 2.884A9.84 9.84 0 0 0 0 196.16v4.452a9.84 9.84 0 0 0 2.888 6.962c1.85 1.847 4.357 2.884 6.97 2.884h327.815c2.615 0 5.123-1.037 6.972-2.884a9.84 9.84 0 0 0 2.887-6.962v-4.452a9.84 9.84 0 0 0-2.887-6.963 9.87 9.87 0 0 0-6.972-2.884zM76.632 166.3c-7.06 0-13.96-2.1-19.83-6.007s-10.444-9.484-13.146-15.998a35.6 35.6 0 0 1-2.031-20.595 35.63 35.63 0 0 1 9.768-18.252 35.71 35.71 0 0 1 18.275-9.755 35.73 35.73 0 0 1 20.622 2.028 35.68 35.68 0 0 1 16.018 13.129c3.922 5.862 6.015 12.754 6.015 19.804a35.66 35.66 0 0 1-10.465 25.194c-6.692 6.682-15.764 10.44-25.227 10.452zm0-70.354c-6.874 0-13.593 2.036-19.308 5.85a34.72 34.72 0 0 0-12.8 15.577 34.66 34.66 0 0 0-1.978 20.053c1.342 6.733 4.65 12.917 9.5 17.77a34.78 34.78 0 0 0 17.794 9.5 34.79 34.79 0 0 0 20.08-1.975c6.35-2.627 11.778-7.075 15.597-12.783s5.857-12.418 5.857-19.283c-.01-9.202-3.675-18.024-10.2-24.53S85.834 95.948 76.62 95.938h0zm318.415-80.672H275.3v.938h119.758v-.938zM535 262.9H190.754v.938H535v-.938zm-324.756 43.152H90.486V307h119.758v-.938z"/></g><path d="M234.35 257.966H221.2V271.1h13.15v-13.133z" class="C"/><path d="M242.334 263.595h-15.968v-15.947h15.968v15.947zm-15.273-.694h14.58v-14.56h-14.58v14.56z" class="B"/><path d="M386.983 10.32h-13.15v13.133h13.15V10.32z" class="C"/><path d="M394.967 15.947H379V0h15.968v15.947zm-15.273-.693h14.58V.693h-14.58v14.56z" class="B"/><path d="M519.422 257.966h-13.15V271.1h13.15v-13.133z" class="C"/><g class="B"><path d="M527.406 263.595h-15.968v-15.947h15.968v15.947zm-15.274-.694h14.58v-14.56h-14.58v14.56zM496.5 108.795h-1.117V78.233a17.67 17.67 0 0 0-1.348-6.769c-.9-2.146-2.195-4.096-3.84-5.74a17.69 17.69 0 0 0-5.746-3.834 17.73 17.73 0 0 0-6.778-1.346h-64.836c-2.326 0-4.63.458-6.778 1.346a17.73 17.73 0 0 0-5.746 3.834c-1.646 1.642-2.95 3.593-3.84 5.74a17.67 17.67 0 0 0-1.348 6.769v167.67a17.67 17.67 0 0 0 1.348 6.769c.9 2.146 2.195 4.096 3.84 5.74a17.69 17.69 0 0 0 5.746 3.834 17.73 17.73 0 0 0 6.778 1.347h64.836a17.73 17.73 0 0 0 6.778-1.347 17.74 17.74 0 0 0 5.746-3.834c1.646-1.642 2.95-3.593 3.84-5.74a17.67 17.67 0 0 0 1.348-6.769V130.55h1.117v-21.755z"/></g><path d="M491.6 79.272v167.425c0 3.503-1.393 6.864-3.873 9.342s-5.844 3.87-9.352 3.87h-65.15c-3.508 0-6.872-1.393-9.352-3.87s-3.873-5.84-3.873-9.342V79.272c.001-3.503 1.394-6.862 3.874-9.34s5.844-3.87 9.35-3.87h7.904a6.27 6.27 0 0 0-.432 3.01c.106 1.024.46 2.006 1.036 2.86a6.28 6.28 0 0 0 2.261 2.038 6.29 6.29 0 0 0 2.954.737h37.144a6.29 6.29 0 0 0 2.954-.737 6.28 6.28 0 0 0 2.261-2.038c.575-.854.93-1.836 1.036-2.86a6.27 6.27 0 0 0-.432-3.01h8.463c3.507 0 6.87 1.392 9.35 3.87s3.873 5.836 3.874 9.34h0z" class="C"/><g class="B"><path d="M455.505 176.457h-19.407v5.744h19.407v-5.744z"/><use xlink:href="#B"/><path d="M478.968 139.534h-66.333v2.46h66.333v-2.46zm0 7.796h-66.333v2.46h66.333v-2.46zm0 7.794h-66.333v2.46h66.333v-2.46zm0 7.796h-66.333v2.46h66.333v-2.46z"/></g><path d="M448.12 99.05h-11.503v11.487h11.503V99.05z" class="D"/><path d="M441.02 101.922v13.95h13.967v-13.95H441.02zm13.36 13.344h-12.756v-12.74h12.756v12.74z" class="B"/><path opacity=".1" d="M491.6 228.818v17.88c0 3.503-1.393 6.864-3.873 9.342s-5.844 3.87-9.352 3.87h-65.15c-3.508 0-6.872-1.393-9.352-3.87s-3.873-5.84-3.873-9.342v-90.152l91.6 72.273z" fill="#000"/><path d="M440.166 254.483c11.378 0 20.602-9.21 20.602-20.575s-9.224-20.575-20.602-20.575-20.602 9.212-20.602 20.575 9.224 20.575 20.602 20.575z" class="D"/><g class="B"><path d="M150.365 307a40.9 40.9 0 0 1-22.7-6.877 40.81 40.81 0 0 1-15.048-18.313c-3.092-7.456-3.902-15.66-2.325-23.576a40.78 40.78 0 0 1 11.182-20.893 40.87 40.87 0 0 1 20.92-11.168c7.926-1.574 16.14-.766 23.607 2.322s13.847 8.32 18.337 15.03 6.886 14.6 6.886 22.67a40.82 40.82 0 0 1-11.98 28.84A40.93 40.93 0 0 1 150.365 307zm0-80.673a39.95 39.95 0 0 0-22.178 6.72 39.88 39.88 0 0 0-14.702 17.892c-3.022 7.285-3.812 15.3-2.272 23.034a39.85 39.85 0 0 0 10.925 20.413 39.93 39.93 0 0 0 20.439 10.911 39.97 39.97 0 0 0 23.065-2.269 39.9 39.9 0 0 0 17.915-14.683 39.84 39.84 0 0 0 6.728-22.15c-.012-10.57-4.222-20.703-11.706-28.177a39.99 39.99 0 0 0-28.214-11.69h0zm295.873 23.45a25.86 25.86 0 0 1-14.35-4.347 25.81 25.81 0 0 1-9.514-11.577 25.77 25.77 0 0 1-1.47-14.905c.996-5.005 3.456-9.6 7.07-13.208s8.215-6.065 13.225-7.06a25.85 25.85 0 0 1 14.924 1.468 25.82 25.82 0 0 1 11.592 9.501 25.77 25.77 0 0 1 4.354 14.332 25.81 25.81 0 0 1-7.574 18.232c-4.843 4.836-11.408 7.557-18.257 7.564h0zm0-50.655a24.91 24.91 0 0 0-13.828 4.19 24.86 24.86 0 0 0-9.168 11.156 24.82 24.82 0 0 0-1.416 14.362 24.84 24.84 0 0 0 6.812 12.728c3.48 3.477 7.916 5.845 12.744 6.804a24.92 24.92 0 0 0 14.382-1.415 24.88 24.88 0 0 0 11.17-9.156c2.735-4.087 4.195-8.894 4.195-13.8a24.87 24.87 0 0 0-7.298-17.57 24.94 24.94 0 0 0-17.593-7.289z"/></g></g><defs><clipPath id="A"><path fill="#fff" d="M0 0h535v307H0z"/></clipPath><path id="B" d="M478.968 131.74h-66.333v2.46h66.333v-2.46z"/></defs></svg>