<svg xmlns="http://www.w3.org/2000/svg" xmlns:xlink="http://www.w3.org/1999/xlink" width="508" height="428" fill="none"><g fill="#ff748e"><path opacity=".2" d="M468.203 0H40.383v428h427.82V0z"/><path opacity=".5" d="M403.24 39.96H104.76v348.665h298.48V39.96z"/></g><path d="M508 61.477H348.226v307.388H508V61.477z" fill="url(#A)"/><path d="M159.774 62.648H0v307.388h159.774V62.648z" fill="url(#B)"/><path d="M502.733 66.16h-149.24v296.263h149.24V66.16zM5.267 362.424h149.24V66.16H5.267v296.263z" fill="#ff748e"/><use xlink:href="#V" fill="url(#C)"/><path d="M478.737 120.613H378.66v18.15h100.078v-18.15z" fill="url(#D)"/><use xlink:href="#W" fill="url(#E)"/><use xlink:href="#W" y="28.103" fill="url(#F)"/><use xlink:href="#W" y="56.208" fill="url(#G)"/><use xlink:href="#W" y="84.313" fill="url(#H)"/><use xlink:href="#W" y="112.416" fill="url(#I)"/><use xlink:href="#W" y="140.52" fill="url(#J)"/><use xlink:href="#W" y="168.623" fill="url(#K)"/><use xlink:href="#W" y="-55.623" fill="url(#L)"/><use xlink:href="#V" y="28.69" fill="url(#M)"/><use xlink:href="#V" y="56.208" fill="url(#N)"/><use xlink:href="#V" y="83.726" fill="url(#O)"/><use xlink:href="#V" y="111.831" fill="url(#P)"/><use xlink:href="#V" y="139.936" fill="url(#Q)"/><g fill="#fff"><path d="M128.17 95.436H32.19v14.052h95.982V95.436z"/><use xlink:href="#X"/><path d="M127.878 151.06H31.896v14.052h95.982V151.06z"/><use xlink:href="#X" y="56.208"/><use xlink:href="#X" y="84.312"/><path d="M127.878 235.37H31.896v14.052h95.982V235.37z"/></g><use xlink:href="#V" y="168.039" fill="url(#R)"/><g fill="#fff"><use xlink:href="#X" y="140.52"/><path d="M127.878 291.58H31.896v14.052h95.982V291.58z"/><use xlink:href="#X" y="196.728"/><path d="M476.396 94.85h-95.98v14.052h95.98V94.85z"/><use xlink:href="#Y"/><path d="M476.396 151.06h-95.98v14.052h95.98V151.06z"/><use xlink:href="#Y" y="56.208"/><use xlink:href="#Y" y="84.312"/><path d="M476.396 235.37h-95.98v14.052h95.98V235.37z"/><use xlink:href="#Y" y="140.52"/><path d="M476.396 291.58h-95.98v14.052h95.98V291.58z"/><use xlink:href="#Y" y="196.728"/></g><path d="M430.16 377.647H77.253v22.25H430.16v-22.25z" fill="url(#S)"/><path d="M427.82 379.99H80.18v17.565h347.64V379.99z" fill="#ff748e"/><path d="M430.747 29.275H78.424V52.1h352.323V29.275z" fill="url(#T)"/><path d="M427.82 31.032H80.18v17.565h347.64V31.032z" fill="#ff748e"/><path opacity=".5" d="M340.032 66.16H169.138v296.263h170.894V66.16z" fill="#263238"/><path d="M386.068 195c4.097 5.492-2.036 11.98-2.036 11.98l1.03.357c-1.516 1.68-7.503 9.263-30.586 43.56-29.555 43.913-69.38 54.867-69.38 54.867-4.84-3.782-10.344-6.624-16.23-8.378v-4.145a48.57 48.57 0 0 0 20.027-11.679c5.636-5.453 9.87-12.19 12.337-19.634 3.524-6.978 5.356-14.688 5.35-22.507 0-28.104-23.275-50.903-51.982-50.903s-51.982 22.794-51.982 50.903c-.007 7.82 1.825 15.53 5.35 22.507 2.468 7.445 6.7 14.18 12.337 19.634s12.508 9.46 20.028 11.68v4.145c-5.886 1.754-11.4 4.596-16.23 8.378 0 0-39.845-10.966-69.4-54.88-23.082-34.298-29.07-41.886-30.585-43.56l1.03-.357s-6.116-6.487-2.037-11.98-27.01-11.98-23.445 0 8.153 17.97 8.153 17.97 65.08 102.685 99.054 119.653a47.11 47.11 0 0 0-1.206 10.609v19.965h97.843V343.22a47.11 47.11 0 0 0-1.206-10.609c33.945-16.98 99.054-119.647 99.054-119.647s4.59-6 8.153-17.97-27.52-5.486-23.44.006z" fill="url(#U)"/><path d="M254.585 291.89c27.494 0 49.782-22.297 49.782-49.803s-22.288-49.802-49.782-49.802-49.78 22.297-49.78 49.802 22.288 49.803 49.78 49.803z" fill="#263238"/><path d="M254.585 296.778c25.878 0 46.856-20.987 46.856-46.875s-20.978-46.875-46.856-46.875-46.855 20.986-46.855 46.875 20.978 46.875 46.855 46.875z" fill="#f8c198"/><path d="M236.04 245.506a5.861 5.861 0 0 0 0-11.722 5.861 5.861 0 0 0 0 11.722zm38.07 0a5.861 5.861 0 0 0 0-11.722 5.861 5.861 0 0 0 0 11.722z" fill="#263238"/><path d="M268.25 271.38c0 3.513-6.116 9.28-13.666 9.28s-13.665-5.767-13.665-9.28 6.116-3.42 13.665-3.42 13.666-.094 13.666 3.42zm-30.748-29.78c1.08 0 1.954-.876 1.954-1.956s-.875-1.956-1.954-1.956-1.955.876-1.955 1.956.875 1.956 1.955 1.956zm38.556 0c1.08 0 1.955-.876 1.955-1.956s-.875-1.956-1.955-1.956-1.954.876-1.954 1.956.875 1.956 1.954 1.956z" fill="#fff"/><path d="M259.267 223.883c-2.856 0-5.42-2.482-5.724-5.322-.098-1.428.24-2.85.973-4.08s1.822-2.206 3.124-2.8a2.02 2.02 0 0 1 .86-.222c.984 0 1.47 1.17 1.785 2.102.984 2.88 2.728 5.69 5.467 7.026s6.566.65 8.012-2.032c-3.874-1.727-5.53-7.15-3.278-10.744.872-1.387 2.23-2.564 2.505-4.18.504-2.928-2.704-5.06-5.542-5.937-8.194-2.535-36.754-2.816-38.328 9.415-1.65 12.904 21.15 18.484 30.146 16.774z" fill="#263238"/><path d="M212.72 258.126c1.503-.593 1.36-4.532-.323-8.797s-4.265-7.243-5.768-6.65-1.36 4.532.323 8.797 4.265 7.242 5.768 6.65zm89.485-6.68c1.682-4.265 1.827-8.204.323-8.797s-4.086 2.383-5.768 6.65-1.826 8.204-.323 8.797 4.086-2.383 5.768-6.65z" fill="#f8c198"/><path d="M283.795 307s38.14-10.715 66.45-53.685 29.772-43.087 29.772-43.087l15.13 5.978S324.868 329.5 294.61 335.35 283.795 307 283.795 307z" fill="#6cc"/><path d="M378.56 210.352s5.852-6.347 1.954-11.7 25.87-11.7 22.45 0-7.808 17.565-7.808 17.565l-16.597-5.855z" fill="#f8c198"/><path d="M225.375 307s-38.14-10.715-66.45-53.685-29.772-43.087-29.772-43.087l-15.13 5.978S184.308 329.5 214.57 335.35 225.375 307 225.375 307z" fill="#6cc"/><path d="M130.61 210.352s-5.853-6.347-1.955-11.7-25.868-11.7-22.45 0 7.807 17.565 7.807 17.565l16.598-5.855z" fill="#f8c198"/><path opacity=".04" d="M270.557 200.692c-.28 1.616-1.64 2.787-2.505 4.18-1.972 3.15-.948 7.705 1.943 9.954a7.49 7.49 0 0 1-.501-3.319 7.5 7.5 0 0 1 .998-3.204c.872-1.388 2.23-2.564 2.505-4.18.316-1.833-.825-3.355-2.417-4.45.042.34.034.682-.023 1.02zm-12.19 11.265l-.515-1.33c-.316-.93-.802-2.073-1.785-2.102a1.98 1.98 0 0 0-.86.222 7.02 7.02 0 0 0-4.097 6.88 6.13 6.13 0 0 0 .85 2.43 6.19 6.19 0 0 0 1.767 1.872 5.67 5.67 0 0 1-.176-.884c-.098-1.428.24-2.85.973-4.08s1.822-2.206 3.124-2.8a2.27 2.27 0 0 1 .72-.21zm-4.126 9.273c-7.117.3-18.6-2.418-24.26-8.197 4.226 8.993 21.684 12.758 29.263 11.312a5.9 5.9 0 0 1-5.004-3.115zm16.545-4.824c-1.7 2-5.022 2.43-7.462 1.242a8.53 8.53 0 0 1-2.166-1.528 10.44 10.44 0 0 0 4.606 4.94c2.74 1.33 6.567.65 8.013-2.032a6.95 6.95 0 0 1-2.991-2.623z" fill="#fff"/><path opacity=".2" d="M393.203 216.207S322.92 329.5 292.627 335.35a35.5 35.5 0 0 1-5.308.65 31.08 31.08 0 0 0 7.263-.65c30.263-5.855 100.546-119.144 100.546-119.144l-1.568-.556c-.217.37-.357.556-.357.556z" fill="#fff"/><g fill="#6cc"><path opacity=".2" d="M115.968 216.207S186.25 329.5 216.544 335.35c1.75.35 3.525.567 5.308.65a31.08 31.08 0 0 1-7.263-.65c-30.263-5.855-100.547-119.144-100.547-119.144l1.57-.556c.217.37.357.556.357.556z"/><path d="M254.585 296.778c6.153 0 12.246 1.212 17.93 3.568s10.85 5.808 15.2 10.16 7.802 9.52 10.157 15.208 3.567 11.782 3.567 17.938v19.532h-93.71v-19.532c0-6.156 1.212-12.25 3.567-17.938a46.86 46.86 0 0 1 10.157-15.208c4.35-4.353 9.516-7.805 15.2-10.16s11.777-3.568 17.93-3.568z"/></g><g fill="#fff"><path opacity=".2" d="M255.07 297.024c-1.705 0-3.408.09-5.103.275l1.685-.035c12.427 0 24.345 4.938 33.132 13.73s13.724 20.714 13.724 33.146v19.286h3.418V343.9c0-12.432-4.937-24.355-13.724-33.146s-20.705-13.73-33.132-13.73z"/><path opacity=".2" d="M254.1 297.024a47.29 47.29 0 0 1 5.103.275c-.585 0-1.118-.035-1.686-.035-12.426 0-24.344 4.938-33.13 13.73s-13.724 20.714-13.724 33.146v19.286h-3.418V343.9c0-12.432 4.937-24.355 13.724-33.146s20.705-13.73 33.132-13.73z"/></g><path d="M268.25 297.5c0-7.55-6.118-13.672-13.666-13.672a13.67 13.67 0 0 0-13.665 13.672v5.615a13.67 13.67 0 0 0 13.665 13.671 13.67 13.67 0 0 0 13.666-13.671V297.5z" fill="#f8c198"/><defs><linearGradient id="A" x1="428.113" y1="368.865" x2="428.113" y2="61.477" xlink:href="#Z"><stop stop-color="gray" stop-opacity=".25"/><stop offset=".54" stop-color="gray" stop-opacity=".12"/><stop offset="1" stop-color="gray" stop-opacity=".1"/></linearGradient><linearGradient id="B" x1="21809.2" y1="194331" x2="21809.2" y2="32953.1" xlink:href="#Z"><stop stop-color="gray" stop-opacity=".25"/><stop offset=".54" stop-color="gray" stop-opacity=".12"/><stop offset="1" stop-color="gray" stop-opacity=".1"/></linearGradient><linearGradient id="C" x1="79.887" y1="111.245" x2="79.887" y2="93.094" xlink:href="#Z"><stop stop-opacity=".12"/><stop offset=".55" stop-opacity=".1"/><stop offset="1" stop-opacity=".02"/></linearGradient><linearGradient id="D" x1="73686" y1="4422.27" x2="73686" y2="3859.61" xlink:href="#Z"><stop stop-opacity=".12"/><stop offset=".55" stop-opacity=".1"/><stop offset="1" stop-opacity=".02"/></linearGradient><linearGradient id="E" x1="73585.4" y1="5321.6" x2="73585.4" y2="4758.94" xlink:href="#Z"><stop stop-opacity=".12"/><stop offset=".55" stop-opacity=".1"/><stop offset="1" stop-opacity=".02"/></linearGradient><linearGradient id="F" x1="73585.4" y1="6192.827" x2="73585.4" y2="5630.157" xlink:href="#Z"><stop stop-opacity=".12"/><stop offset=".55" stop-opacity=".1"/><stop offset="1" stop-opacity=".02"/></linearGradient><linearGradient id="G" x1="73585.4" y1="7064.042" x2="73585.4" y2="6501.372" xlink:href="#Z"><stop stop-opacity=".12"/><stop offset=".55" stop-opacity=".1"/><stop offset="1" stop-opacity=".02"/></linearGradient><linearGradient id="H" x1="73585.4" y1="7935.267" x2="73585.4" y2="7372.597" xlink:href="#Z"><stop stop-opacity=".12"/><stop offset=".55" stop-opacity=".1"/><stop offset="1" stop-opacity=".02"/></linearGradient><linearGradient id="I" x1="73585.4" y1="8806.454" x2="73585.4" y2="8243.794" xlink:href="#Z"><stop stop-opacity=".12"/><stop offset=".55" stop-opacity=".1"/><stop offset="1" stop-opacity=".02"/></linearGradient><linearGradient id="J" x1="73585.4" y1="9677.72" x2="73585.4" y2="9115.06" xlink:href="#Z"><stop stop-opacity=".12"/><stop offset=".55" stop-opacity=".1"/><stop offset="1" stop-opacity=".02"/></linearGradient><linearGradient id="K" x1="73585.4" y1="10548.877" x2="73585.4" y2="9986.277" xlink:href="#Z"><stop stop-opacity=".12"/><stop offset=".55" stop-opacity=".1"/><stop offset="1" stop-opacity=".02"/></linearGradient><linearGradient id="L" x1="73585.4" y1="148.717" x2="73585.4" y2="148.717" xlink:href="#Z"><stop stop-opacity=".12"/><stop offset=".55" stop-opacity=".1"/><stop offset="1" stop-opacity=".02"/></linearGradient><linearGradient id="M" x1="5133.84" y1="4149.73" x2="22247.2" y2="4149.73" xlink:href="#Z"><stop stop-opacity=".12"/><stop offset=".55" stop-opacity=".1"/><stop offset="1" stop-opacity=".02"/></linearGradient><linearGradient id="N" x1="5133.84" y1="5002.792" x2="22247.2" y2="5002.792" xlink:href="#Z"><stop stop-opacity=".12"/><stop offset=".55" stop-opacity=".1"/><stop offset="1" stop-opacity=".02"/></linearGradient><linearGradient id="O" x1="5133.84" y1="5855.864" x2="22247.2" y2="5855.864" xlink:href="#Z"><stop stop-opacity=".12"/><stop offset=".55" stop-opacity=".1"/><stop offset="1" stop-opacity=".02"/></linearGradient><linearGradient id="P" x1="5133.84" y1="6727.079" x2="22247.2" y2="6727.079" xlink:href="#Z"><stop stop-opacity=".12"/><stop offset=".55" stop-opacity=".1"/><stop offset="1" stop-opacity=".02"/></linearGradient><linearGradient id="Q" x1="5133.84" y1="7598.314" x2="22247.2" y2="7598.314" xlink:href="#Z"><stop stop-opacity=".12"/><stop offset=".55" stop-opacity=".1"/><stop offset="1" stop-opacity=".02"/></linearGradient><linearGradient id="R" x1="5133.84" y1="8469.501" x2="22247.2" y2="8469.501" xlink:href="#Z"><stop stop-opacity=".12"/><stop offset=".55" stop-opacity=".1"/><stop offset="1" stop-opacity=".02"/></linearGradient><linearGradient id="S" x1="46661.1" y1="15151" x2="259465" y2="15151" xlink:href="#Z"><stop stop-color="gray" stop-opacity=".25"/><stop offset=".54" stop-color="gray" stop-opacity=".12"/><stop offset="1" stop-color="gray" stop-opacity=".1"/></linearGradient><linearGradient id="T" x1="153339" y1="2061.54" x2="153339" y2="1171" xlink:href="#Z"><stop stop-color="gray" stop-opacity=".25"/><stop offset=".54" stop-color="gray" stop-opacity=".12"/><stop offset="1" stop-color="gray" stop-opacity=".1"/></linearGradient><linearGradient id="U" x1="186659" y1="123500" x2="186659" y2="71222.2" xlink:href="#Z"><stop stop-color="gray" stop-opacity=".25"/><stop offset=".54" stop-color="gray" stop-opacity=".12"/><stop offset="1" stop-color="gray" stop-opacity=".1"/></linearGradient><path id="V" d="M129.926 93.094H29.848v18.15h100.078v-18.15z"/><path id="W" d="M478.152 148.717H378.074v18.15h100.078v-18.15z"/><path id="X" d="M127.878 122.955H31.896v14.052h95.982v-14.052z"/><path id="Y" d="M476.396 122.955h-95.98v14.052h95.98v-14.052z"/><linearGradient id="Z" gradientUnits="userSpaceOnUse"/></defs></svg>