<svg xmlns="http://www.w3.org/2000/svg" xmlns:xlink="http://www.w3.org/1999/xlink" width="595" height="440" fill="none"><style><![CDATA[.B{opacity:.1}.C{fill:#000}.D{fill:#fff}.E{fill:#ff748e}.F{fill:#3f3d56}.G{fill:#fbbebe}.H{fill:#cf6f80}.I{stroke:#535461}.J{stroke-width:2}.K{stroke-miterlimit:10}]]></style><g clip-path="url(#C)"><g class="E"><path d="M468.597 93.918h-20.893v-6.496h9.36V68.07l2.425.918v18.434h9.102l.005 6.496zm-83.624 71.227h-17.178v5.13h17.178v-5.13zm0 92.357h-17.178v22.28h17.178v-22.28zm0 63.278c.17 0 .337 0 .5.036-.168 0-.336 0-.5-.03v5.176h-17.178v-22.28h17.178v17.098zm0 29.075v17.205a262.67 262.67 0 0 1-17.178-1.983v-15.222h17.178zm-85.53-108.497h-73.62v1.637h73.62v-1.637zm0 3.814h-73.62v6.272h73.62v-6.272zm0 26.833h-73.62v10.086h73.62v-10.086zm0 30.645v10.087H241.86l-7.4-5.885-5.06-4.202h70.053zm0 30.643v10.112h-6.08c-6.84-3.087-13.538-6.45-20.098-10.092l26.177-.02zM441.73 179.3h-14.5v14.502h14.492V179.3zm-313.793 67.158h-14.492v14.502h14.492v-14.502zm0 33.685h-14.492v14.503h14.492v-14.503zM497.057 179.3h-14.493v14.502h14.493V179.3zm-55.327 35.76h-14.5v14.503h14.492V215.06zm55.327 0h-14.493v14.503h14.493V215.06zm-55.327 35.768h-14.5v14.502h14.492v-14.502zm55.327 0h-14.493v14.502h14.493v-14.502zM441.73 286.6h-14.5v14.5h14.492v-14.5zm55.327 0h-14.493v14.5h14.493v-14.5zm-55.327 35.77h-14.5v14.503h14.492V322.37zm55.327 0h-14.493v14.503h14.493V322.37zm-69.817 45.118v-9.352h14.487v8.022l-14.487 1.33zM41.063 224.592v8.3h49.593v-8.3H41.063zm4.938 7.77h-4.077v-7.26H46v7.26zm4.938 0h-4.077v-7.26h4.077v7.26zm4.928 0H51.8v-7.26h4.077v7.26zm4.938 0h-4.077v-7.26h4.077v7.26zm4.933 0H61.66v-7.26h4.077v7.26zm4.938 0H66.6v-7.26h4.077v7.26zm4.938 0h-4.077v-7.26h4.077v7.26zm4.933 0H76.47v-7.26h4.077v7.26zm4.933 0h-4.077v-7.26h4.077v7.26zm4.938 0H86.34v-7.26h4.077v7.26zm-49.116 16.37l.657 2.33v-1.805h4.077v7.246H43.85l.2.5h46.627v-8.28H41.302zm9.682 7.77h-4.077v-7.246h4.077v7.246zm4.928 0h-4.077v-7.246h4.077v7.246zm4.938 0h-4.077v-7.246h4.077v7.246zm4.933 0h-4.077v-7.246h4.077v7.246zm4.938 0h-4.077v-7.246h4.077v7.246zm4.938 0h-4.077v-7.246h4.077v7.246zm4.933 0h-4.077v-7.246h4.077v7.246zm4.933 0h-4.077v-7.246h4.077v7.246zm4.938 0h-4.077v-7.246h4.077v7.246zm-37.675 16.38l.382.5h2.696v3.483l.87 1.02v-4.523h4.077v7.313h-1.677l.5.5h30.998v-8.312H52.788zm12.974 7.802h-4.077v-7.282h4.077v7.282zm4.938 0h-4.077v-7.282H70.7v7.282zm4.938 0H71.56v-7.282h4.077v7.282zm4.933 0h-4.077v-7.282h4.077v7.282zm4.933 0h-4.077v-7.282h4.077v7.282zm4.938 0h-4.077v-7.282h4.077v7.282zm-10.447 16.348l1.417.77v-.255h4.077v2.3l.866.398v-2.698h4.077v4.416a1.72 1.72 0 0 0 .24.087v-5.018H79.995z" class="B"/><use xlink:href="#D" class="B"/><path d="M224.203 432.02c27.424 0 49.655-3.573 49.655-7.98s-22.23-7.98-49.655-7.98-49.654 3.573-49.654 7.98 22.23 7.98 49.654 7.98z" class="B"/></g><path d="M281.37 213.022c-.012-.05-.04-.097-.076-.133-.76-.75-10.442-14.45-10.442-14.45s-.51-1.53-1.335-3.52c.265-.343.463-.732.586-1.147a3.9 3.9 0 0 0 .097-.535c0-.057.04-.102.056-.16a3.87 3.87 0 0 0-.051-2.1 3.64 3.64 0 0 1-.209.51 8.57 8.57 0 0 0-.764-1.704c-1.284-2.213-3.12-4.08-4.47-6.236-2.045-3.35-2.858-7.31-2.3-11.198v.602c.05-.77.154-1.538.306-2.295a15.95 15.95 0 0 1 .851-2.519c1.213-2.78 3.175-5.2 4.367-7.99a15.14 15.14 0 0 0 .907-2.921 16.35 16.35 0 0 0 .454-5.125c0 .408-.066.816-.128 1.22a16.6 16.6 0 0 0-4.683-11.051c-4.163-4.186-10.14-5.813-15.858-6.67a14.53 14.53 0 0 1-6.676-2.55c-2.196-1.423-5.034-1.764-7.603-1.453-2.952.32-5.694 1.676-7.74 3.83-2.716 2.988-3.894 7.22-7.063 9.74-1.92 1.53-4.357 2.243-6.594 3.284s-4.352 2.55-5.07 4.783v-.046.127l-.03.082c-.744 2.64.693 5.33 1.442 7.965.78 2.728.83 5.61.87 8.43l.05 10.352c-.025 1.356-.07 2.728-.173 4.08a21.41 21.41 0 0 0-3.501 1.407c-1.14.745-5.412 5.36-5.412 5.36l-8.352 31.93.112.128-.112.433.423-.097c1.182 1.275 4.714 4.906 8.525 7.17l.357 6.262s.428 6.282 6.202 8.878c.132 2.177.545 11.02-1.366 14.522a16.34 16.34 0 0 0-1.804 8.302s.668 5.313-.09 8.108a13.26 13.26 0 0 0-.097 5.691v27.505c-.097 2.422 0 38.244 0 38.244s-.474 17.904-1.993 22.753-1.136 20.907-1.136 20.907-.953 19.128 2.415 22.9c0 .168-.03.342-.035.5v.24c-.04 1.453.24 2.998 1.488 3.472 2.548.98 5.916 3.917 6.553 4.758s4.342 2.937 9.172 2.376c3.027-.34 6.072-.48 9.117-.418 0 0 1.906-.347 1.29-2.718-.397-1.48-1.885-3.753-2.945-5.247.194.05.382.092.56.127l.184.036h.143c.078.005.156.005.234 0h.102c.095.008.2.008.285 0 1.28-.122 6.05 2.1 6.9 3.57s3.853 2.585 6.115 2.865c1.345.164 4.74-.112 7.588-.48 1.434-.148 2.855-.407 4.25-.775.673-.255.815-1.07.622-1.99a5.18 5.18 0 0 0-1.764-2.978c-.825-.586-1.916-2.13-2.72-3.396l-.214-.34c1.422-1.357 4-5.793 4.77-6.71.948-1.117-1.53-41.957-1.53-41.957v-20.473l3.797-19.377 2.655-10.255 2.277-15.48s3.985-18.082 2.757-19.857c0-.036-1.02-18.653-2.09-23.125-.464-1.994-.347-6.48-.07-10.846.287-.286.488-.648.578-1.043s.066-.808-.07-1.19a4.74 4.74 0 0 0-.295-.76v-.234c2.2-1.014 4.5-1.796 6.864-2.336 3.796-.744 2.848-2.702 2.848-2.702l1.422-2.703c.566-1.025.097-10.07 0-10.815-.036-.3-.27-1.964-.54-3.85 1.218-.867 2.803-1.943 4.53-2.963 3.287-1.948 2.548-4.003 2.278-4.538zm-49.532 129.28s-2.85 7.272-1.707 9.133-.19 8.77-.19 8.77l-.953 10.254s-2.654 19.02-1.707 23.493c.744 3.508 1.02 13.987 1.106 18.357a1.21 1.21 0 0 0-.188.092l-.128.066c.438-1.718.255-5.196-1.92-12.192l-.183-28.898s-.337-33.38 2.298-37.112 3.567-10.07 3.567-10.07-.57 9.143-.943 11.565.948 6.542.948 6.542zm-5.305 71.83c-.025.06-.056.122-.076.178l-.143-.184a1.6 1.6 0 0 0 .219.006z" fill="url(#A)"/><path d="M255.584 425.584c-1.473.566-9.458 1.53-11.7 1.26s-5.188-1.402-6.03-2.88-5.554-3.712-6.818-3.57a4.58 4.58 0 0 1-1.529-.214c-.872-.264-1.723-.59-2.548-.98a4.74 4.74 0 0 1 .056-1.938c.03-.128.067-.254.113-.377.297-.837.912-1.522 1.712-1.907l.183-.087c.354-.153.723-.265 1.1-.336 4.005-.77 20.53.775 20.53.775s.464.83 1.1 1.86c.795 1.275 1.875 2.83 2.69 3.416a5.23 5.23 0 0 1 1.737 2.999c.194.902.05 1.728-.61 1.978z" class="D"/><path d="M255.584 425.584c-1.473.566-9.453 1.53-11.685 1.26s-5.188-1.407-6.033-2.88-5.55-3.712-6.814-3.57-4.076-1.193-4.076-1.193-.44-2.04.835-3.432l2.548 1.81s6.82 2.116 8.082 4.08 3.568 3.06 6.895 3.258c2.487.164 8.2-.805 10.875-1.3.178.882.04 1.71-.627 1.958z" class="B C"/><path d="M231.2 428.185a67.8 67.8 0 0 0-8.999.423c-4.785.56-8.44-1.53-9.076-2.39s-3.934-3.774-6.467-4.794c-1.238-.48-1.53-2.04-1.473-3.498v-.24a14.32 14.32 0 0 1 .408-2.739l19.828-.423 1.718 2.33.265.356 1.044 1.423 1.096 1.53c1.05 1.53 2.517 3.79 2.9 5.283.626 2.39-1.254 2.738-1.254 2.738z" class="D"/><g class="C"><path d="M231.2 428.185a67.8 67.8 0 0 0-8.999.423c-4.78.56-8.44-1.53-9.07-2.39s-3.94-3.8-6.472-4.783c-1.238-.48-1.53-2.04-1.473-3.498 1.417.33 4.393 1.177 5.56 2.65 1.53 1.968 4.265 5.278 8.153 5.487 3.14.168 10.783-.393 13.586-.617.6 2.38-1.284 2.728-1.284 2.728z" class="B"/><path d="M228.83 414.958c-.23 1.703-.937 2.162-1.447 2.264-.124.024-.252.024-.377 0a1.23 1.23 0 0 1-.199-.031s-17.805 3.937-21.402.75c-.092-.082-.177-.17-.255-.266.047-.923.183-1.84.408-2.738l19.828-.423 1.717 2.33a3.37 3.37 0 0 1 1.712-1.907l.015.02z" class="B"/><path d="M251.762 417.17c-.398.438-.73.688-.938.6-.937-.377-8.622-1.688-11.063-.56s-10.7.184-10.7.184 0-.98-.046-2.55a5.21 5.21 0 0 1 1.101-.336c4.005-.77 20.53.775 20.53.775a69.34 69.34 0 0 0 1.116 1.887z" class="B"/></g><path d="M263.39 301.825l-2.253 15.573-2.62 10.32-3.75 19.5v20.652s2.436 41.1 1.5 42.212-4.5 7.51-5.438 7.14-8.622-1.688-11.063-.566-10.7.188-10.7.188-.19-15.945-1.126-20.448 1.686-23.64 1.686-23.64l.938-10.316s1.315-6.945.19-8.82 1.686-9.18 1.686-9.18-1.31-4.136-.932-6.573.932-11.63.932-11.63-.932 6.384-3.536 10.132-2.273 37.337-2.273 37.337l.183 29.065c4.694 15.4 0 13.886 0 13.886s-17.805 3.94-21.402.75-2.57-23.283-2.57-23.283-.372-16.134 1.127-21.01 1.972-22.9 1.972-22.9v-38.46c.07-2.04 0-20.3 0-26.006v-1.688l2.15-5.344 25.48-3.192h12.19s18.345 4.314 20.24 6.175c.04.03.075.07.102.112 1.228 1.8-2.71 19.994-2.71 19.994z" class="E"/><g class="C"><path d="M232.454 383.628s5.605 13.508 8.25 14.446-8.25-14.446-8.25-14.446zm2.074 19.887s18.926.938 18.737 3.003-18.737-3.003-18.737-3.003zm-25.322-5.4c.75.708 14.437 2.04 13.3 3.335s-12.184 3.814-12.184 3.814l-1.126-7.15zM206.96 374.8c0 .56 2.813 18 3.567 18.76s6.936 1.5 6.936 1.5L206.96 374.8z" class="B"/></g><path d="M227.368 136.298c-2.686 3.004-3.848 7.262-6.976 9.8-1.9 1.53-4.306 2.26-6.518 3.3s-4.403 2.626-5.06 4.982c-.734 2.652.683 5.36 1.427 8.01.77 2.743.815 5.61.86 8.48l.046 10.418c-.092 5.4-.54 11.07-3.41 15.655 10.36 3.3 21.377 3.748 32.24 4.17a32.53 32.53 0 0 0 6.263-.158c1.8-.36 3.58-.8 5.335-1.352 3.47-.918 7.043-1.376 10.63-1.36 1.565 0 3.16.097 4.668-.31s2.96-1.453 3.37-2.963c.36-1.356-.17-2.8-.862-4.018-1.263-2.223-3.057-4.08-4.413-6.272a17.25 17.25 0 0 1-2.396-7.617c-.193-2.69.25-5.4 1.29-7.88 1.202-2.8 3.14-5.237 4.32-8.04a16.97 16.97 0 0 0 .928-9.496c-.606-3.19-2.113-6.137-4.342-8.494-4.113-4.212-10.014-5.844-15.66-6.71-2.377-.28-4.646-1.158-6.594-2.55-2.166-1.427-4.974-1.774-7.51-1.458-2.928.328-5.64 1.7-7.64 3.865z" class="F"/><g class="B C"><path d="M264.023 166.24a16.96 16.96 0 0 0-1.3 7.787c.114-1.904.554-3.773 1.3-5.528 1.197-2.8 3.134-5.237 4.316-8.042a16.28 16.28 0 0 0 1.187-7.404 15.87 15.87 0 0 1-1.187 5.151c-1.182 2.804-3.12 5.237-4.316 8.036zm-52.768 3.938l.066 6-.066-8.25c-.04-2.85-.092-5.737-.86-8.485-.5-1.744-1.264-3.514-1.53-5.273-.454 2.5.835 5.033 1.53 7.527.77 2.723.82 5.63.86 8.48zm55.795 24.838c-1.53.413-3.1.32-4.663.3a40.87 40.87 0 0 0-10.625 1.336 54.09 54.09 0 0 1-5.336 1.346 32.1 32.1 0 0 1-6.267.164c-10.498-.413-21.143-.857-31.197-3.86a17.62 17.62 0 0 1-1.02 1.938c10.36 3.294 21.378 3.748 32.237 4.17 2.1.15 4.2.096 6.268-.163a52.51 52.51 0 0 0 5.315-1.341 40.85 40.85 0 0 1 10.604-1.351c1.565 0 3.155.097 4.663-.316s2.96-1.45 3.37-2.958a4.06 4.06 0 0 0-.051-2.121c-.454 1.428-1.855 2.422-3.297 2.845z" class="B"/></g><path d="M251.956 188.974c-.377.846-1.967 8.158-2.344 8.908s-2.436 12.748-2.625 13.42-13.57-2.815-13.57-2.815l-8.057-6.756-8.28-8.246s-.244-7.44 5.856-9.826c.414-.163.84-.296 1.274-.398 7.4-1.78 6.655-24.293 6.655-24.293l15.186 6.563s-2.813 13.136-2.717 15.67c.026.852.693 1.382 1.565 1.703 1.347.384 2.75.536 4.148.45 0 0 3.287 4.778 2.9 5.62z" class="G"/><use xlink:href="#E" class="E"/><use xlink:href="#E" class="B C"/><use xlink:href="#F" class="E"/><g class="C"><use xlink:href="#F" class="B"/><use xlink:href="#G" class="B"/></g><path d="M239.206 172.554c8.282 0 14.997-6.72 14.997-15.007s-6.715-15.007-14.997-15.007-14.998 6.72-14.998 15.007 6.715 15.007 14.998 15.007z" class="G"/><g class="C"><path d="M266.112 283.534a48.26 48.26 0 0 0-10.034 2.25c-5.605 1.866-49.532.03-50.143 0v-1.688l2.15-5.344 25.48-3.192h12.2s18.345 4.314 20.24 6.175l.117 1.8zm-14.156-94.56c-.377.846-1.967 8.158-2.344 8.908s-2.436 12.748-2.625 13.42-13.57-2.814-13.57-2.814l-8.057-6.757-8.28-8.246s-.244-7.44 5.856-9.826l15.145 17.424 6.818-18.178a12.36 12.36 0 0 0 4.148.448s3.287 4.778 2.9 5.62z" class="B"/></g><path d="M238.08 201.645l-15.5-17.847a6.49 6.49 0 0 0-3.018-1.004 6.5 6.5 0 0 0-3.133.55l-8.908 3.473c-1.126.75-5.345 5.39-5.345 5.39l12.566 32.896-5.534 21.667s.846 11.07-1.31 15.104a16.58 16.58 0 0 0-1.784 8.347s.657 5.35-.092 8.16c-.437 1.88-.47 3.83-.097 5.72 0 0 44.533 1.877 50.154 0 3.255-1.107 6.618-1.86 10.034-2.25 0 0-1.02-18.765-2.04-23.267s.846-21.667.846-21.667L263.7 218.53l7.308-18.867s-3.96-12.096-8.087-13.315c0 0-7.496-1.784-9.09-2.626s-6.283-1.596-6.283-1.596l-2.462.826-7.007 18.694z" class="E"/><path d="M259.708 217.908l-32.62-2.22a1.5 1.5 0 0 0-1.597 1.394l-3.502 51.537a1.5 1.5 0 0 0 1.393 1.597l32.62 2.22a1.5 1.5 0 0 0 1.597-1.394l3.502-51.537a1.5 1.5 0 0 0-1.393-1.597z" class="B C"/><path d="M260.83 216.79l-32.62-2.22a1.5 1.5 0 0 0-1.596 1.394l-3.502 51.537a1.5 1.5 0 0 0 1.393 1.597l32.62 2.22a1.5 1.5 0 0 0 1.596-1.394l3.502-51.537a1.5 1.5 0 0 0-1.393-1.597z" class="F"/><path d="M259.754 220.828l-31.023-2.1-3.188 46.917 31.023 2.1 3.188-46.917z" class="D"/><g class="C"><path d="M256.973 232.804l-25.342-1.775-.495 7.067 25.342 1.775.495-7.067zm-.917 28.096l-4.022-.274-.25 3.684 4.02.273.25-3.683zM252.1 252l-20.586-1.4-.25 3.683 20.586 1.4.25-3.684z" class="B"/></g><path d="M255.914 219.074l-21.434-1.458-.385 5.662 21.435 1.46.384-5.663z" class="F"/><g class="C"><path d="M255.914 219.074l-21.434-1.458-.385 5.662 21.435 1.46.384-5.663zm-15.96 63.426s-.2 27.77-7.5 43.716l8.815-21.855c0-.842 4.872-9.663 3.568-12.3l-4.882-9.57zm.397-128.706c-.28-2.458.322-4.936 1.697-7a8.62 8.62 0 0 0 1.641 5.777 8.61 8.61 0 0 0 5.015 3.3 1.13 1.13 0 0 1-.352-.567c-.057-.22-.047-.453.03-.667 1.045 1.183 1.845 2.586 3.027 3.626s2.956 1.662 4.347.923c1.9-1.02 1.9-3.707 1.422-5.798-1.05-4.452-3.204-8.568-6.263-11.968a8.29 8.29 0 0 0-6.574-3.345c-2.894-.224-5.9.03-8.494 1.33-1.46.797-2.827 1.753-4.077 2.85l-7.134 5.824a6.78 6.78 0 0 0-1.733 1.825 5 5 0 0 0-.54 1.912c-.182 1.908.17 3.828 1.018 5.546a10.31 10.31 0 0 0 3.782 4.179 7.61 7.61 0 0 1 1.19-4.262 7.6 7.6 0 0 1 3.361-2.877 1.98 1.98 0 0 1 .708 1.473l1.503-2.682c.224-.488.576-.906 1.02-1.208.927-.5 2.084.092 2.874.8s1.56 1.616 2.62 1.728l.04-3.993" class="B"/></g><path d="M240.352 153.233a10.45 10.45 0 0 1 1.697-6.996c-.458 4.08 2.614 8.29 6.66 9.076a1.12 1.12 0 0 1-.321-1.229c1.044 1.183 1.844 2.58 3.026 3.626s2.956 1.662 4.347.918c1.89-1.02 1.91-3.707 1.422-5.793-1.05-4.452-3.204-8.568-6.263-11.968a10.02 10.02 0 0 0-3.501-2.723c-.98-.363-2.012-.573-3.057-.622-2.895-.224-5.9.026-8.495 1.326a22.84 22.84 0 0 0-4.077 2.855l-7.134 5.824c-.688.493-1.275 1.113-1.733 1.825-.306.595-.5 1.245-.54 1.913-.182 1.906.17 3.825 1.02 5.542s2.158 3.163 3.782 4.177a7.61 7.61 0 0 1 1.192-4.261c.8-1.27 1.98-2.273 3.358-2.878a1.98 1.98 0 0 1 .512.661 2.01 2.01 0 0 1 .197.812l1.498-2.672c.222-.49.575-.907 1.02-1.208.927-.5 2.084.092 2.874.81s1.56 1.61 2.62 1.728l.04-3.997" class="F"/><path d="M247.456 247.9c-1.3-.662-22.967 2.718-22.967 2.718s-3.567-1.02-12.2-2.437-9.172-9.852-9.172-9.852l-.943-16.884 2.9-2.55 12.464 8.16s.194 4.125 0 4.87c-.122.5-.448 1.117-.418 1.53.01.112.056.218.132.3s.176.138.286.158c.846.214 12.373 2.08 12.373 2.08s26.718-1.83 33.378 7.174a6.76 6.76 0 0 1 1.177 2.224c1.65 6.154-15.843 3.095-17.03 2.508z" class="G"/><path d="M264.502 245.417l-1.65.78s-9.56-.28-14.93-2.228-11.9-1.6-11.9-1.6-22.38-3.855-18.91-8.888c.01.112.055.217.13.3a.51.51 0 0 0 .287.159c.846.214 12.373 2.08 12.373 2.08s26.717-1.83 33.378 7.175c.544.657.96 1.412 1.223 2.223z" class="B C"/><path d="M273.797 215.71l1.406 10.04c.092.755.566 9.847 0 10.882s-1.406 2.718-1.406 2.718.937 1.968-2.813 2.723-8.154 3-8.154 3-9.565-.28-14.905-2.25-11.904-1.596-11.904-1.596-28.4-4.88-16.22-10.836 20.81 2.11 20.81 2.11l13.59-.842s5.065-3.1 6.472-2.814a5.21 5.21 0 0 0 2.904-.469l.097-9.852 10.12-2.815z" class="G"/><path d="M204.88 192.915l-2.72-.143-8.245 32.126s8.902-2.254 12.74 0 10.875 2.718 10.875 2.718l-2.625-25.61-10.023-9.092z" class="B C"/><path d="M204.88 192.35l-2.72-.142-8.245 32.125s8.902-2.254 12.74 0 10.875 2.718 10.875 2.718l-2.625-25.61-10.023-9.092z" class="E"/><path d="M267.238 199.386l3.745.847 10.314 14.538c.75.77-3.567 3.57-5.345 3.57s-10.498 1.02-13.03 3.376-1.478-9.5-1.478-9.77 3.144-7.75 3.144-7.75l2.65-4.81z" class="B C"/><path d="M267.238 198.825l3.745.842 10.314 14.543c.75.75-3.567 3.57-5.345 3.57s-10.498 1.02-13.03 3.376-1.478-9.5-1.478-9.77 3.164-7.777 3.164-7.777l2.63-4.783z" class="E"/><g class="B C"><path d="M242.024 146.282c-.022-.39-.014-.783.025-1.172-.776 1.165-1.3 2.474-1.57 3.85v1.422l-.026 2.484h-.07v.382c0-.133 0-.26-.026-.393-1.02-.163-1.748-1.02-2.507-1.703s-1.946-1.336-2.874-.81c-.444.302-.797.72-1.02 1.21l-1.514 2.672c-.006-.28-.073-.558-.195-.81a1.98 1.98 0 0 0-.513-.658c-1.38.605-2.55 1.606-3.36 2.877s-1.225 2.755-1.19 4.262c-1.392-.873-2.557-2.065-3.397-3.477a10.38 10.38 0 0 1-1.439-4.646c-.088 1.832.313 3.655 1.163 5.28s2.118 2.994 3.673 3.965a7.62 7.62 0 0 1 1.192-4.261c.81-1.27 1.98-2.272 3.36-2.878a1.99 1.99 0 0 1 .708 1.474l1.5-2.672a2.92 2.92 0 0 1 1.019-1.209c.927-.5 2.084.092 2.874.81s1.56 1.612 2.62 1.73l.04-3.906c.25-1.363.77-2.66 1.53-3.82z" class="B"/><path d="M240.3 151.417l.118-1.02.056-1.408a10.29 10.29 0 0 0-.174 2.427zm15.462 6.083c-1.4.744-3.165.122-4.347-.918s-1.982-2.443-3.027-3.626c-.077.214-.088.447-.03.667a1.13 1.13 0 0 0 .351.567c-.102 0-.198-.05-.295-.076 1.02 1.173 1.83 2.55 3 3.57s2.956 1.663 4.347.918 1.8-2.488 1.666-4.186c-.1 1.336-.57 2.493-1.666 3.085z" class="B"/><path d="M248.383 154.105c-1.704-.465-3.225-1.44-4.36-2.794s-1.83-3.024-1.99-4.784c-.29 4.003 2.726 8.016 6.675 8.786a1.12 1.12 0 0 1-.326-1.208z" class="B"/></g><path d="M493.108 237.447s-2.008-.28-2.008-3.202-1.437-8.394-1.437-8.394-1.243-9.52-2.96-11.03-3.924-10.372-3.924-10.372-.377-4.81-1.146-5.844-1.81-3.57-3.343-7.185-7.914-6.093-7.914-6.093-11.562-6.71-14.84-8.9c-.3-.18-.58-.393-.836-.632-.57-.744-3.057-.76-3.057-.76l-.59-5.242v-.55c3.653-2.162 6.405-5.57 7.75-9.597.06-.194.112-.393.168-.592.224-.07.43-.185.606-.34a1.66 1.66 0 0 0 .414-.558c.3-.658.3-1.423.667-2.04.428-.724 1.244-1.112 1.886-1.652 1.62-1.382 2.038-3.702 1.962-5.808-.05-1.714-.327-3.437-.22-5.135 0-.143 0-.286.03-.428.03-.25.066-.5.112-.755.25-1.265.795-2.458 1.1-3.712s.336-2.667-.377-3.748c-1.045-1.586-3.22-1.902-5.132-2.04-2.166-.184-4.076.05-5.488-1.75a19.21 19.21 0 0 0-2.181-2.631c-.285-.266-3.058-1.964-3.058-2.07a12.38 12.38 0 0 0-8.663-.668c-1.442.418-2.792 1.102-4.255 1.443-3.14.745-6.757-.06-9.427 1.74-1.488 1.02-2.38 2.647-3.216 4.222l-2.068 3.9c-1.132 2.137-2.273 4.31-2.747 6.675-.1.517-.162 1.04-.19 1.566v.81c0 .173 0 .346.03.51s0 .2.036.317.045.346.076.5.092.453.153.673c0 .097.06.188.092.285s.112.342.178.5a2.95 2.95 0 0 0 .112.265c.077.18.168.352.26.5.04.067.07.133.112.2.14.24.297.467.47.683 1.085 1.362 2.696 2.23 3.883 3.504v.57a17.47 17.47 0 0 0 2.231 8.105 17.46 17.46 0 0 0 5.759 6.122c0 .193.026.392.036.59.1 1.512.08 3.03-.056 4.54-.208-.244-.468-.44-.76-.57s-.61-.194-.93-.186a2.42 2.42 0 0 0-.652.056l-.046-.036v.046c-1.12.275-2.502 1.443-3.822 4.763 0 0-4.015 4.528-7.073 4.34s-10.798 4.717-10.798 4.717-7.552 4.9-9.173 9.898c-.906 2.834-1.993 5.607-3.256 8.3l-9.36 19.235-1.717 15.298s.952 6.787.764 7.827 3.92 10.372 3.92 10.372 13.57 23.854 19.114 25.078l.398-.275c.238.12.49.212.75.275l1.14-.8c.07.897.04 1.798-.09 2.688-.76 2.36.3 17.73 1.625 20.744s.86 42.533.86 42.533l-.188 3.482s0 .112.046.306l-.046.826.137.072a9.85 9.85 0 0 1-.137 3.324c-.48 1.53-.673 5.85-.673 5.85s-3.822 24.416-2.008 29.32 3.348 10.28 3.348 10.28 1.91 6.12.092 7.14-6.97 2.83-5.92 5.375c.968 2.356 4.642 8.67 5.187 9.59l-.046.5-.75 8.124a10.2 10.2 0 0 0 .862 3.1c.82 1.774 2.4 3.605 5.447 3.406a28.33 28.33 0 0 0 1.672-.168c5.55-.75 12.377-3.228 12.377-3.228a4.89 4.89 0 0 1-.963-.8 2.81 2.81 0 0 1-.635-.933 2.8 2.8 0 0 1-.216-1.107c.082-1.484-2.685-8.526-3.378-10.265l-.158-.388s6.308-6.603 5.26-12.447c0 0-6.982-4.08-4.683-6.323s6.405-8.67 6.405-8.67v-27.627a29.83 29.83 0 0 1 .352-7.466 19.47 19.47 0 0 1 .265-1.091c3.18.48 6.393.724 9.61.73a91.38 91.38 0 0 0 3.567-.071 14.56 14.56 0 0 0 .045 1.101l1.162 20.285c.57 5.558 3.725 20.555 3.725 20.555s-6.018 3.86 1.05 13.39c0 0 0 3.447-.47 3.952a43.03 43.03 0 0 0-1.207 4.982c-.296 1.8-.418 3.6.06 4.548 1.146 2.254 8.026 2.07 8.026 2.07a1.05 1.05 0 0 1 .168-.026 9.83 9.83 0 0 1 3.862.362 9.82 9.82 0 0 1 3.42 1.831c2.614 2.1 12.53 1.183 17.907.5 2.104-.27 3.51-.5 3.51-.5a2.05 2.05 0 0 0 .071-.735c-.056-1.32-1.1-4.217-8.102-6.802 0 0-6.594-4.436-6.502-8.302h-.908l.816-.015s-2.584-9.428-1.53-10.198-2.105-11.22-2.105-11.22l-1.91-18.765a10.83 10.83 0 0 1 .479-3.111l-.48-9.622s-.09-3.197 0-4.237a19.81 19.81 0 0 0-.214-2.698l-.142-1.096c2.47-.627 4.076-1.204 4.076-1.204l-.285-33.476c2.1-4.08 2.487-13.034 2.477-19.378 0-4.08-.184-7.098-.184-7.098l2.87-4.686s.663-5.61-.387-6.838c-.464-.556-.255-1.132.127-1.606.2-.165.414-.315.637-.45-.025-.036-.047-.073-.066-.112.2-.168.413-.32.637-.454 0 0-1.02-1.58-.107-2.25a33.47 33.47 0 0 0 2.201 1.377c-.04.372-.08.586-.08.586l.245-.51.9.51s4.495-8.96 4.398-10.275 3.058-6.884 3.058-6.884.382-2.927 2.104-4.15 1.335-10.092 1.335-10.092.48-4.62 1.626-6.5-1.024-4.442-1.024-4.442zm-85.998-3.93l.086 2.136-.876-1.407.8-.73z" fill="url(#B)"/><use xlink:href="#H" class="D"/><use xlink:href="#H" class="B C"/><g class="D"><path d="M432.4 435.58s-8.154 2.998-13.76 3.376c-2.976.2-4.54-1.627-5.346-3.386a10.41 10.41 0 0 1-.846-3.06l1.127-12.38 11.9-3.1 1.686 5.165.158.388c.673 1.73 3.394 8.735 3.313 10.198a2.78 2.78 0 0 0 .206 1.105 2.8 2.8 0 0 0 .624.935c.276.292.588.547.928.76zm55.668-4.1a2.09 2.09 0 0 1-.07.734s-17.438 2.907-21.006 0a9.39 9.39 0 0 0-3.43-1.85 9.47 9.47 0 0 0-3.886-.306s-6.747.184-7.873-2.04c-.47-.934-.347-2.744-.056-4.523.296-1.674.7-3.33 1.182-4.957l.27-.214 1.605-1.3 18.794-.556h.142c-.1 3.845 6.375 8.256 6.375 8.256 6.885 2.55 7.9 5.43 7.955 6.746z"/></g><g class="C"><path d="M488.073 431.47c.018.247-.008.496-.076.734 0 0-17.438 2.907-21 0a9.45 9.45 0 0 0-7.323-2.157s-6.752.184-7.878-2.04c-.464-.934-.347-2.744-.056-4.528 2.6.26 6.7.907 8.3 2.457 2.436 2.346 6.564 4.692 9.1 4.88 1.998.123 13.876.5 18.93.653zm-55.673 4.1s-8.154 2.998-13.76 3.376c-2.976.2-4.54-1.627-5.346-3.386 2.08.698 4.958 1.428 6.472.76 1.794-.8 8.153-1.3 11.72-1.53a4.63 4.63 0 0 0 .913.78z" class="B"/></g><path d="M444.498 193.93c-6.726-2.616-15.38-11.26-13.218-15.298a9.15 9.15 0 0 0 .84-3.243 29.54 29.54 0 0 0 .062-4.589 63.15 63.15 0 0 0-.902-7.471s21 .475 19.777 3.57c-.357.913-.418 2.488-.316 4.248s.35 3.763.616 5.45c.362 2.3.734 4.08.734 4.08s-1.29 1.8-2.038 1.897 4.097 15.104-5.555 11.356z" class="H"/><g class="C"><path d="M427.3 422.555l-.158.174c-6.278-7.598-13.87 1.876-13.87 1.876l-.112-.204.387-4.298 11.9-3.1 1.687 5.166.158.387zm46.45-5.553s-4.587-.1-7.033 2.07-14.268.464-13.76 0c.15-.236.24-.503.265-.78l1.606-1.3 18.793-.555.128.555z" class="B"/></g><g class="E"><path d="M435.122 357.336a14.4 14.4 0 0 0-.775 2.616c-.425 2.45-.543 4.945-.35 7.424.188 3.57 0 27.5 0 27.5s-4.03 6.38-6.283 8.628 4.586 6.288 4.586 6.288c1.02 5.818-5.157 12.386-5.157 12.386-6.278-7.598-13.87 1.87-13.87 1.87s-4.128-7.14-5.157-9.688 4.03-4.3 5.8-5.35-.092-7.14-.092-7.14-1.498-5.35-3.28-10.23 1.967-29.168 1.967-29.168.193-4.32.657-5.824a9.91 9.91 0 0 0 .138-3.304c-.03-.372-.067-.678-.092-.892s-.046-.306-.046-.306l.07-.123 2.548-4.752s20.552 7.078 19.33 10.07zm38.628 59.104s-4.587-.097-7.033 2.04-14.268.47-13.758 0 .463-3.937.463-3.937c-6.935-9.48-1.02-13.324-1.02-13.324s-3.093-14.915-3.654-20.448c-.392-3.86-.876-14.278-1.136-20.178l-.178-4.3 6.344-1.26 13.667-2.75.632 4.636a20.3 20.3 0 0 1 .209 2.687c-.087 1.02 0 4.217 0 4.217l.47 9.566a11.08 11.08 0 0 0-.47 3.095c.097 1.224 1.875 18.67 1.875 18.67s3.093 10.412 2.04 11.162 1.55 10.132 1.55 10.132z"/></g><path d="M451.057 166.914c-.357.913-.418 2.49-.316 4.248a17.45 17.45 0 0 1-9.33 2.5c-3.283-.06-6.482-1.048-9.23-2.847-.15-2.506-.452-5-.9-7.47 0 0 21 .474 19.777 3.57z" class="B C"/><path d="M459.164 155.655a17.45 17.45 0 0 1-4.958 12.396 17.43 17.43 0 0 1-12.266 5.258c-4.623.055-9.08-1.73-12.388-4.962s-5.198-7.647-5.254-12.274v-.418a17.46 17.46 0 0 1 5.108-12.339c3.27-3.272 7.706-5.11 12.33-5.11s9.06 1.84 12.33 5.11a17.46 17.46 0 0 1 5.107 12.339h-.01z" class="H"/><path d="M444.498 193.93c-6.726-2.616-15.38-11.26-13.218-15.298a9.15 9.15 0 0 0 .84-3.243l9.21 7.578 5.697 4.676 4.33-11.03c.362 2.3.734 4.08.734 4.08s-1.29 1.8-2.038 1.897 4.097 15.09-5.555 11.34z" class="B C"/><path d="M468.31 227.417l-7.69 129.266-10.03.658-25.974-74.954L429.78 174.6l17.245 14.165 4.46-11.356 8.29 7.23 8.535 42.778z" class="E"/><g class="C"><path d="M435.122 357.336a14.4 14.4 0 0 0-.775 2.616c-7.304-1.126-14.398-3.34-21.046-6.573l-.137-.072.045-.82v-.428l2.548-4.752s20.588 7.037 19.365 10.03zm18.095 2.636a51.52 51.52 0 0 1-5.636.648l-.178-4.3 5.646-1.142.168 4.803z" class="B"/><path d="M468.097 356.912c-3.623.944-9.223 2.004-14.227 1.342l-.072-3.228 13.667-2.75.632 4.635zm-14.32 1.933c-20.893 3.57-40.028-6.664-40.028-6.664l.183-3.468s.474-39.3-.84-42.324-2.34-18.276-1.595-20.606-2.716-37.515-2.716-37.515L408.22 234l-20.532-8.348 9.173-19.137a69.17 69.17 0 0 0 3.19-8.261c1.595-4.972 9-9.852 9-9.852s7.593-4.875 10.595-4.7 6.935-4.314 6.935-4.314c2.905-7.4 5.534-4.08 5.534-4.08 0 .356 0 0-.142 1.096-1.02 8.133 16.48 33.833 16.73 34.292l1.687 40.62 1.687 51.406 1.702 56.122z" class="B"/></g><path d="M453.218 358.845c-20.894 3.57-40.034-6.664-40.034-6.664l.19-3.468s.47-39.3-.846-42.324-2.34-18.29-1.6-20.642-2.73-37.5-2.73-37.5l-.566-14.278-20.526-8.347 9.172-19.138a70.08 70.08 0 0 0 3.19-8.255c1.595-4.957 9.025-9.842 9.025-9.842s7.593-4.875 10.59-4.69 6.95-4.31 6.95-4.31c2.9-7.41 6.115-4.08 6.115-4.08 0 .356-.306.51-.142 1.096 2.242 7.888 15.92 33.833 16.17 34.292l1.687 40.62 1.65 51.43 1.697 56.097z" class="D"/><path d="M447.587 211.844c-2.248-.938-14.152-14.538-14.152-14.538v-3.095c-.433-1.02-3.01-.398-5.096.316l.897-18.8 1.02.846c2.227 7.884 17.087 34.818 17.332 35.272z" class="B C"/><path d="M448.152 210.722c-2.252-.943-14.156-14.538-14.156-14.538v-3.1c-.433-1.02-3.007-.398-5.096.316l.882-18.78 1.02.842c2.247 7.873 17.1 34.802 17.35 35.26z" class="D"/><path d="M413.75 278.542c.28 0 14.528-1.5 14.528-1.5s8.627 16.98 8.062 21.106-1.6 7.786-5.06 7.14-18.677.5-18.677.5l1.147-27.256z" class="B C"/><path d="M413.184 277.415c.286 0 14.534-1.5 14.534-1.5s8.622 17.006 8.06 21.085-1.595 7.787-5.06 7.14-18.68.5-18.68.5l1.146-27.235z" class="D"/><path d="M423.92 269.465s13.076 7.037 13.356 9.18-6.655-.938-8.153-1.316a19.51 19.51 0 0 0-3.002-.469l-9.993.27 7.792-7.665z" class="H"/><use xlink:href="#I" class="B C"/><path d="M443.933 212.16c.76 0 1.376-.617 1.376-1.377s-.616-1.377-1.376-1.377-1.376.617-1.376 1.377.616 1.377 1.376 1.377z" class="F"/><use xlink:href="#J" class="B C"/><path d="M446.465 271.755c.76 0 1.376-.616 1.376-1.377s-.616-1.377-1.376-1.377-1.376.617-1.376 1.377.616 1.377 1.376 1.377z" class="F"/><use xlink:href="#K" class="B C"/><path d="M445.31 241.96c.76 0 1.376-.616 1.376-1.377a1.38 1.38 0 0 0-1.376-1.377c-.76 0-1.376.617-1.376 1.377s.616 1.377 1.376 1.377z" class="F"/><g class="D"><path d="M477.025 276.574s.938 1.407 0 2.04.092 2.254.092 2.254-2.34 1.367-1.3 2.606.377 6.802.377 6.802l-2.812 4.687.178 7.062c0 6.333-.372 15.237-2.43 19.296l.275 33.303s-9.85 3.605-18.095 2.504l-1.223-53.44 2.44-36.12c.385-3.017.54-6.06.47-9.102 0 0-.28-9.097-1.223-13.314l-1.122-23.36c-.045-2.422.082-9.49.225-16.2l.336-14.278-1.86-14.732s1.86-.183 2.42.56a5.32 5.32 0 0 0 .815.627c3.215 2.173 14.56 8.853 14.56 8.853s6.278 2.498 7.78 6.078 2.548 6.12 3.277 7.14 1.126 5.813 1.126 5.813 2.16 8.822 3.847 10.316 2.9 10.98 2.9 10.98l-14.905 11.728-1.6 20.264c-.28.755 5.452 17.644 5.452 17.644z"/><path d="M477.59 276.574s.933 1.407 0 2.04.087 2.254.087 2.254-2.34 1.367-1.3 2.606.377 6.802.377 6.802l-2.803 4.687.184 7.062c0 6.333-.372 15.237-2.43 19.296l.28 33.303s-9.85 3.605-18.095 2.504l-1.218-53.44 2.44-36.12a60.06 60.06 0 0 0 .464-9.102s-.28-9.097-1.218-13.314l-1.126-23.36c-.046-2.422.08-9.49.224-16.2l.336-14.278-2.456-14.93s2.456 0 3.022.76c.248.238.522.448.815.627 3.21 2.173 14.554 8.853 14.554 8.853s6.263 2.498 7.792 6.078 2.547 6.12 3.276 7.14 1.126 5.813 1.126 5.813 2.16 8.822 3.848 10.316 2.904 10.98 2.904 10.98l-14.905 11.728-1.595 20.264c-.285.755 5.427 17.644 5.427 17.644z"/></g><path d="M459.74 195.633l1.35 3.927-7.09 7.14.337-14.278-2.457-14.926s2.457 0 3.022.76c.25.237.522.448.816.627l6.023 17.383-2.003-.632z" class="B C"/><path d="M459.164 194.506l1.35 3.922-7.084 7.14.337-14.278-2.462-14.93s2.462 0 3.022.76a5.07 5.07 0 0 0 .816.627l6.06 17.4-2.04-.638z" class="D"/><path d="M459.164 155.655a17.41 17.41 0 0 1-.856 5.41c-.096.016-.194.013-.288-.01s-.184-.064-.262-.122c-.138-4.6-2.4-8.904-5.167-12.57a13.35 13.35 0 0 0-2.803-2.907 5.49 5.49 0 0 0-3.802-1.076c-1.528.21-2.88 1.25-4.423 1.382-2.038.17-3.863-1.244-5.886-1.3a5.76 5.76 0 0 0-2.38.536c-.746.346-1.4.85-1.946 1.473-1.064 1.255-1.854 2.72-2.32 4.3a25.2 25.2 0 0 0-1.294 7.424c-.025 1.428-.163 3.218-1.488 3.738a7.62 7.62 0 0 0-.349-3.109 7.59 7.59 0 0 0-1.572-2.704l-.03-.036v-.418a17.46 17.46 0 0 1 5.108-12.339c3.27-3.272 7.706-5.11 12.33-5.11s9.06 1.84 12.33 5.11a17.46 17.46 0 0 1 5.107 12.339h-.01z" class="B C"/><path d="M448.972 127.95a11.99 11.99 0 0 0-8.469-.663l-4.173 1.438c-3.058.74-6.625-.06-9.25 1.728-1.458 1.02-2.334 2.632-3.15 4.202l-2.038 3.88c-1.11 2.126-2.232 4.288-2.696 6.63s-.183 4.96 1.3 6.848c1.075 1.367 2.675 2.23 3.847 3.52a7.65 7.65 0 0 1 1.916 5.828c1.325-.5 1.458-2.3 1.488-3.738.057-2.525.494-5.028 1.294-7.424a11.83 11.83 0 0 1 2.319-4.299 5.76 5.76 0 0 1 1.946-1.475c.746-.348 1.558-.53 2.38-.54 2.038.07 3.867 1.484 5.885 1.3 1.53-.127 2.884-1.167 4.423-1.376 1.357-.13 2.713.255 3.802 1.076a13.08 13.08 0 0 1 2.798 2.906c2.782 3.672 5.04 7.965 5.172 12.57.576.418 1.406-.133 1.692-.785s.295-1.418.657-2.04c.418-.72 1.218-1.107 1.845-1.647 1.6-1.372 1.987-3.682 1.926-5.778s-.47-4.222-.07-6.282c.24-1.26.78-2.448 1.075-3.697s.33-2.652-.367-3.728c-1.02-1.575-3.164-1.89-5.035-2.04-2.125-.184-4.025.05-5.38-1.74-.638-.933-1.354-1.8-2.14-2.62-.28-.27-2.997-1.953-2.997-2.065z" fill="#512e4e"/><path d="M393.57 235.484l-5.32-9.847-1.687 15.196.75 7.787c-.188 1.035 3.843 10.315 3.843 10.315s13.315 23.737 18.752 24.956l18.346-13.136-4.872-6.2s-1.687-.658-2.1 0l-9.983-16.695c-.932-1.122-.754-3.38-.754-3.38s-1.406-1.5-.937-2.906-2.69-6.283-2.69-6.283l2.905-2.718-16.24 2.902z" class="B C"/><path d="M388.53 224.5l-1.406 1.127-1.687 15.196.75 7.787c-.188 1.035 3.848 10.315 3.848 10.315s13.3 23.737 18.747 24.956l18.376-13.136-4.877-6.2s-1.686-.658-2.11 0l-9.983-16.695c-.938-1.122-.75-3.38-.75-3.38s-1.407-1.5-.938-2.906-2.72-6.283-2.72-6.283l2.904-2.718-20.154-8.072z" class="D"/><path d="M475.807 284.06c1.02 1.24.378 6.808.378 6.808l-2.813 4.656.178 7.067-4.73 1.48c-.428.133-.882.163-1.324.085a2.81 2.81 0 0 1-2.052-1.56 2.82 2.82 0 0 1-.273-1.299l.82-26.312 11.032 4.217c-.937.653.092 2.254.092 2.254s-2.34 1.366-1.3 2.605z" class="B C"/><path d="M476.368 283.5c1.02 1.234.377 6.802.377 6.802l-2.803 4.66.184 7.062-4.816 1.504c-.418.132-.862.16-1.293.085s-.84-.252-1.19-.517a2.75 2.75 0 0 1-.818-1.006c-.19-.396-.28-.83-.267-1.27l.82-26.404 11.028 4.227c-.943.653.087 2.254.087 2.254s-2.34 1.36-1.3 2.6z" class="D"/><path d="M480.027 270.944s-.75 4.788-2.625 5.07-2.716 7.746-4.586 7.486-.632-6.946-.566-8.24-2.038-6.66-.468-7.878 6.563 0 6.563 0l1.682 3.564z" class="H"/><path d="M483.99 234.076l3.532-7.138s1.41 5.44 1.41 8.347 1.967 3.192 1.967 3.192 2.156 2.55 1.02 4.41-1.6 6.47-1.6 6.47.372 8.817-1.315 10.035-2.064 4.13-2.064 4.13-3.093 5.532-2.996 6.848-4.312 10.224-4.312 10.224 2.156-11.07-10.405-15.854c0 0-.097-3.753.84-4.783s2.4-1.53 1.483-6.7-.265-11.428-.265-12.677 2.813-9.036 2.813-9.036l9.88 2.54z" class="B C"/><path d="M485.56 225.918l3.088 1.02s1.41 5.44 1.41 8.348 1.967 3.192 1.967 3.192 2.156 2.55 1.02 4.41-1.595 6.47-1.595 6.47.377 8.817-1.3 10.035-2.038 4.13-2.038 4.13-3.094 5.532-2.997 6.848-4.316 10.224-4.316 10.224 2.156-11.07-10.406-15.854c0 0-.09-3.753.846-4.783s2.4-1.53 1.483-6.7-.265-11.428-.265-12.677 2.813-9.036 2.813-9.036l10.3-5.62z" class="D"/><g class="C"><path d="M417.337 410.955s4.923-3.096 8.154-.847-8.154.847-8.154.847zm38.26-9.572s4.357-.56 8.016 3.38-8.016-3.38-8.016-3.38z" class="B"/><g class="B"><path d="M461.962 154.778c-.627.546-1.432.928-1.85 1.647-.357.617-.367 1.382-.652 2.04s-1.116 1.203-1.697.785c-.132-4.6-2.4-8.898-5.167-12.57-.777-1.106-1.72-2.085-2.798-2.9a5.47 5.47 0 0 0-3.806-1.081c-1.53.2-2.875 1.25-4.42 1.382-2.038.168-3.867-1.245-5.9-1.3a5.74 5.74 0 0 0-2.379.536c-.745.346-1.408.85-1.943 1.473a11.81 11.81 0 0 0-2.318 4.299c-.8 2.396-1.237 4.9-1.295 7.425-.03 1.422-.163 3.197-1.477 3.727.03.38.03.76 0 1.137 1.33-.5 1.462-2.3 1.493-3.738a25.21 25.21 0 0 1 1.294-7.424c.465-1.58 1.255-3.043 2.32-4.3a5.76 5.76 0 0 1 1.943-1.474 5.75 5.75 0 0 1 2.378-.54c2.038.07 3.873 1.484 5.9 1.3 1.528-.128 2.884-1.168 4.418-1.377a5.47 5.47 0 0 1 3.806 1.076c1.078.818 2.022 1.798 2.798 2.906 2.777 3.672 5.035 7.965 5.167 12.57.58.418 1.412-.133 1.697-.785s.296-1.418.653-2.04c.417-.72 1.223-1.107 1.85-1.647 1.6-1.372 1.988-3.682 1.927-5.778v-.193c-.102 1.825-.586 3.676-1.942 4.844zm-37.622-.358c-1.167-1.3-2.767-2.157-3.842-3.524a7.4 7.4 0 0 1-1.483-4.171 7.86 7.86 0 0 0 1.483 5.298c1.075 1.367 2.675 2.23 3.842 3.52a7.65 7.65 0 0 1 1.926 4.548c.077-1.026-.054-2.057-.385-3.03a7.69 7.69 0 0 0-1.54-2.64zm40.552-15.4l-1.08 3.697a11.8 11.8 0 0 0-.158 2.58c.017-.487.07-.973.158-1.453.244-1.26.78-2.447 1.08-3.697.173-.7.23-1.403.168-2.1-.033.332-.1.66-.168.984z" class="B"/></g></g><path d="M67.638 427.767c27.423 0 49.654-3.573 49.654-7.98s-22.23-7.98-49.654-7.98-49.654 3.573-49.654 7.98 22.23 7.98 49.654 7.98z" class="B E"/><path d="M69.238 266.906h-3.195v71.986h3.195v-71.986z" fill="#535461"/><path d="M89.32 338.678l-.204 3.243-.683 11.086-.122 1.907-.28 4.59-3.226 52.048c-.138 2.24-1.123 4.342-2.757 5.88a8.8 8.8 0 0 1-6.033 2.392h-16.75a8.8 8.8 0 0 1-6.046-2.403 8.81 8.81 0 0 1-2.744-5.903l-4.515-72.874a4.59 4.59 0 0 1 .269-1.829c.213-.585.542-1.12.968-1.575a4.6 4.6 0 0 1 1.511-1.064 4.59 4.59 0 0 1 1.808-.381H84.77a4.56 4.56 0 0 1 1.815.386 4.58 4.58 0 0 1 1.514 1.074c.426.457.754.997.964 1.586a4.59 4.59 0 0 1 .257 1.839z" class="F"/><g fill="#9d9cb5"><path d="M89.117 341.916l-.285 4.58H46.444l-.285-4.58h42.958zm-.403 6.486l-.28 4.58H46.846l-.285-4.58h42.153zm-.402 6.49l-.28 4.574H47.25l-.285-4.574h41.348z"/></g><path d="M41.302 293.89c18.6 13.472 26.36 34.542 26.36 34.542s-22.422-.77-41.037-14.242S.25 279.664.25 279.664s22.422.755 41.052 14.227z" class="E"/><path d="M.25 279.664s23.273 12.927 30.738 23.63 36.655 25.15 36.655 25.15" class="I J K"/><path d="M53.293 266.753c10.13 7.327 14.35 18.796 14.35 18.796s-12.23-.42-22.335-7.746-14.35-18.8-14.35-18.8 12.2.418 22.335 7.75z" class="E"/><path d="M30.958 259.002s12.668 7.037 16.735 12.86 19.95 13.687 19.95 13.687" class="I J K"/><path d="M82.36 284.967c-11.634 12.794-14.095 29.515-14.095 29.515s16.404-4.03 28.027-16.828 14.095-29.514 14.095-29.514-16.394 4.033-28.027 16.827z" class="E"/><path d="M110.397 268.145S95.242 281.26 91.4 290.296s-23.125 24.186-23.125 24.186" class="I J K"/></g><defs><linearGradient id="A" x1="237.229" y1="426.074" x2="237.229" y2="131.515" gradientUnits="userSpaceOnUse"><stop stop-color="gray" stop-opacity=".25"/><stop offset=".54" stop-color="gray" stop-opacity=".12"/><stop offset="1" stop-color="gray" stop-opacity=".1"/></linearGradient><linearGradient id="B" x1="96964" y1="276049" x2="96964" y2="82979.9" gradientUnits="userSpaceOnUse"><stop stop-color="gray" stop-opacity=".25"/><stop offset=".54" stop-color="gray" stop-opacity=".12"/><stop offset="1" stop-color="gray" stop-opacity=".1"/></linearGradient><clipPath id="C"><path d="M0 0h595v440H0z" class="D"/></clipPath><path id="D" d="M448.147 440c27.423 0 49.654-3.573 49.654-7.98s-22.23-7.98-49.654-7.98-49.654 3.573-49.654 7.98 22.23 7.98 49.654 7.98z"/><path id="E" d="M279.142 213.644l2.156.566s1.595 2.427-2.156 4.686c-2.38 1.447-4.667 3.047-6.844 4.788l-11.083 3.376-2.135-6.706 10.314-7.832 9.748 1.122z"/><path id="F" d="M198.255 220.12l-4.31 4.222s7.776 9.005 13.76 9.566 9.84-6.848 9.84-6.848l-5.177-8.16-14.11 1.22z"/><path id="G" d="M239.206 173.68c8.282 0 14.997-6.72 14.997-15.007s-6.715-15.007-14.997-15.007-14.998 6.72-14.998 15.007 6.715 15.007 14.998 15.007z"/><path id="H" d="M481.877 275.916l-1.1 4.69s-8.816-4.513-10.4-10.224 2.655-7.888 2.655-7.888l8.22 3.477.627 9.944z"/><path id="I" d="M443.933 212.72c.76 0 1.376-.617 1.376-1.377s-.616-1.377-1.376-1.377-1.376.617-1.376 1.377.616 1.377 1.376 1.377z"/><path id="J" d="M446.465 272.32c.76 0 1.376-.616 1.376-1.377s-.616-1.377-1.376-1.377-1.376.617-1.376 1.377.616 1.377 1.376 1.377z"/><path id="K" d="M445.31 242.52c.76 0 1.376-.616 1.376-1.377a1.38 1.38 0 0 0-1.376-1.377c-.76 0-1.376.617-1.376 1.377s.616 1.377 1.376 1.377z"/></defs></svg>